G04 #@! TF.GenerationSoftware,KiCad,Pcbnew,5.1.5+dfsg1-2*
G04 #@! TF.CreationDate,2020-03-29T15:27:08+02:00*
G04 #@! TF.ProjectId,lownoise-pwr,6c6f776e-6f69-4736-952d-7077722e6b69,rev?*
G04 #@! TF.SameCoordinates,Original*
G04 #@! TF.FileFunction,Paste,Top*
G04 #@! TF.FilePolarity,Positive*
%FSLAX46Y46*%
G04 Gerber Fmt 4.6, Leading zero omitted, Abs format (unit mm)*
G04 Created by KiCad (PCBNEW 5.1.5+dfsg1-2) date 2020-03-29 15:27:08*
%MOMM*%
%LPD*%
G04 APERTURE LIST*
%ADD10C,0.100000*%
%ADD11R,0.900000X0.800000*%
G04 APERTURE END LIST*
D10*
G36*
X108524204Y-79760204D02*
G01*
X108548473Y-79763804D01*
X108572271Y-79769765D01*
X108595371Y-79778030D01*
X108617549Y-79788520D01*
X108638593Y-79801133D01*
X108658298Y-79815747D01*
X108676477Y-79832223D01*
X108692953Y-79850402D01*
X108707567Y-79870107D01*
X108720180Y-79891151D01*
X108730670Y-79913329D01*
X108738935Y-79936429D01*
X108744896Y-79960227D01*
X108748496Y-79984496D01*
X108749700Y-80009000D01*
X108749700Y-81259000D01*
X108748496Y-81283504D01*
X108744896Y-81307773D01*
X108738935Y-81331571D01*
X108730670Y-81354671D01*
X108720180Y-81376849D01*
X108707567Y-81397893D01*
X108692953Y-81417598D01*
X108676477Y-81435777D01*
X108658298Y-81452253D01*
X108638593Y-81466867D01*
X108617549Y-81479480D01*
X108595371Y-81489970D01*
X108572271Y-81498235D01*
X108548473Y-81504196D01*
X108524204Y-81507796D01*
X108499700Y-81509000D01*
X107574700Y-81509000D01*
X107550196Y-81507796D01*
X107525927Y-81504196D01*
X107502129Y-81498235D01*
X107479029Y-81489970D01*
X107456851Y-81479480D01*
X107435807Y-81466867D01*
X107416102Y-81452253D01*
X107397923Y-81435777D01*
X107381447Y-81417598D01*
X107366833Y-81397893D01*
X107354220Y-81376849D01*
X107343730Y-81354671D01*
X107335465Y-81331571D01*
X107329504Y-81307773D01*
X107325904Y-81283504D01*
X107324700Y-81259000D01*
X107324700Y-80009000D01*
X107325904Y-79984496D01*
X107329504Y-79960227D01*
X107335465Y-79936429D01*
X107343730Y-79913329D01*
X107354220Y-79891151D01*
X107366833Y-79870107D01*
X107381447Y-79850402D01*
X107397923Y-79832223D01*
X107416102Y-79815747D01*
X107435807Y-79801133D01*
X107456851Y-79788520D01*
X107479029Y-79778030D01*
X107502129Y-79769765D01*
X107525927Y-79763804D01*
X107550196Y-79760204D01*
X107574700Y-79759000D01*
X108499700Y-79759000D01*
X108524204Y-79760204D01*
G37*
G36*
X105549204Y-79760204D02*
G01*
X105573473Y-79763804D01*
X105597271Y-79769765D01*
X105620371Y-79778030D01*
X105642549Y-79788520D01*
X105663593Y-79801133D01*
X105683298Y-79815747D01*
X105701477Y-79832223D01*
X105717953Y-79850402D01*
X105732567Y-79870107D01*
X105745180Y-79891151D01*
X105755670Y-79913329D01*
X105763935Y-79936429D01*
X105769896Y-79960227D01*
X105773496Y-79984496D01*
X105774700Y-80009000D01*
X105774700Y-81259000D01*
X105773496Y-81283504D01*
X105769896Y-81307773D01*
X105763935Y-81331571D01*
X105755670Y-81354671D01*
X105745180Y-81376849D01*
X105732567Y-81397893D01*
X105717953Y-81417598D01*
X105701477Y-81435777D01*
X105683298Y-81452253D01*
X105663593Y-81466867D01*
X105642549Y-81479480D01*
X105620371Y-81489970D01*
X105597271Y-81498235D01*
X105573473Y-81504196D01*
X105549204Y-81507796D01*
X105524700Y-81509000D01*
X104599700Y-81509000D01*
X104575196Y-81507796D01*
X104550927Y-81504196D01*
X104527129Y-81498235D01*
X104504029Y-81489970D01*
X104481851Y-81479480D01*
X104460807Y-81466867D01*
X104441102Y-81452253D01*
X104422923Y-81435777D01*
X104406447Y-81417598D01*
X104391833Y-81397893D01*
X104379220Y-81376849D01*
X104368730Y-81354671D01*
X104360465Y-81331571D01*
X104354504Y-81307773D01*
X104350904Y-81283504D01*
X104349700Y-81259000D01*
X104349700Y-80009000D01*
X104350904Y-79984496D01*
X104354504Y-79960227D01*
X104360465Y-79936429D01*
X104368730Y-79913329D01*
X104379220Y-79891151D01*
X104391833Y-79870107D01*
X104406447Y-79850402D01*
X104422923Y-79832223D01*
X104441102Y-79815747D01*
X104460807Y-79801133D01*
X104481851Y-79788520D01*
X104504029Y-79778030D01*
X104527129Y-79769765D01*
X104550927Y-79763804D01*
X104575196Y-79760204D01*
X104599700Y-79759000D01*
X105524700Y-79759000D01*
X105549204Y-79760204D01*
G37*
G36*
X115231704Y-79680204D02*
G01*
X115255973Y-79683804D01*
X115279771Y-79689765D01*
X115302871Y-79698030D01*
X115325049Y-79708520D01*
X115346093Y-79721133D01*
X115365798Y-79735747D01*
X115383977Y-79752223D01*
X115400453Y-79770402D01*
X115415067Y-79790107D01*
X115427680Y-79811151D01*
X115438170Y-79833329D01*
X115446435Y-79856429D01*
X115452396Y-79880227D01*
X115455996Y-79904496D01*
X115457200Y-79929000D01*
X115457200Y-81179000D01*
X115455996Y-81203504D01*
X115452396Y-81227773D01*
X115446435Y-81251571D01*
X115438170Y-81274671D01*
X115427680Y-81296849D01*
X115415067Y-81317893D01*
X115400453Y-81337598D01*
X115383977Y-81355777D01*
X115365798Y-81372253D01*
X115346093Y-81386867D01*
X115325049Y-81399480D01*
X115302871Y-81409970D01*
X115279771Y-81418235D01*
X115255973Y-81424196D01*
X115231704Y-81427796D01*
X115207200Y-81429000D01*
X114282200Y-81429000D01*
X114257696Y-81427796D01*
X114233427Y-81424196D01*
X114209629Y-81418235D01*
X114186529Y-81409970D01*
X114164351Y-81399480D01*
X114143307Y-81386867D01*
X114123602Y-81372253D01*
X114105423Y-81355777D01*
X114088947Y-81337598D01*
X114074333Y-81317893D01*
X114061720Y-81296849D01*
X114051230Y-81274671D01*
X114042965Y-81251571D01*
X114037004Y-81227773D01*
X114033404Y-81203504D01*
X114032200Y-81179000D01*
X114032200Y-79929000D01*
X114033404Y-79904496D01*
X114037004Y-79880227D01*
X114042965Y-79856429D01*
X114051230Y-79833329D01*
X114061720Y-79811151D01*
X114074333Y-79790107D01*
X114088947Y-79770402D01*
X114105423Y-79752223D01*
X114123602Y-79735747D01*
X114143307Y-79721133D01*
X114164351Y-79708520D01*
X114186529Y-79698030D01*
X114209629Y-79689765D01*
X114233427Y-79683804D01*
X114257696Y-79680204D01*
X114282200Y-79679000D01*
X115207200Y-79679000D01*
X115231704Y-79680204D01*
G37*
G36*
X112256704Y-79680204D02*
G01*
X112280973Y-79683804D01*
X112304771Y-79689765D01*
X112327871Y-79698030D01*
X112350049Y-79708520D01*
X112371093Y-79721133D01*
X112390798Y-79735747D01*
X112408977Y-79752223D01*
X112425453Y-79770402D01*
X112440067Y-79790107D01*
X112452680Y-79811151D01*
X112463170Y-79833329D01*
X112471435Y-79856429D01*
X112477396Y-79880227D01*
X112480996Y-79904496D01*
X112482200Y-79929000D01*
X112482200Y-81179000D01*
X112480996Y-81203504D01*
X112477396Y-81227773D01*
X112471435Y-81251571D01*
X112463170Y-81274671D01*
X112452680Y-81296849D01*
X112440067Y-81317893D01*
X112425453Y-81337598D01*
X112408977Y-81355777D01*
X112390798Y-81372253D01*
X112371093Y-81386867D01*
X112350049Y-81399480D01*
X112327871Y-81409970D01*
X112304771Y-81418235D01*
X112280973Y-81424196D01*
X112256704Y-81427796D01*
X112232200Y-81429000D01*
X111307200Y-81429000D01*
X111282696Y-81427796D01*
X111258427Y-81424196D01*
X111234629Y-81418235D01*
X111211529Y-81409970D01*
X111189351Y-81399480D01*
X111168307Y-81386867D01*
X111148602Y-81372253D01*
X111130423Y-81355777D01*
X111113947Y-81337598D01*
X111099333Y-81317893D01*
X111086720Y-81296849D01*
X111076230Y-81274671D01*
X111067965Y-81251571D01*
X111062004Y-81227773D01*
X111058404Y-81203504D01*
X111057200Y-81179000D01*
X111057200Y-79929000D01*
X111058404Y-79904496D01*
X111062004Y-79880227D01*
X111067965Y-79856429D01*
X111076230Y-79833329D01*
X111086720Y-79811151D01*
X111099333Y-79790107D01*
X111113947Y-79770402D01*
X111130423Y-79752223D01*
X111148602Y-79735747D01*
X111168307Y-79721133D01*
X111189351Y-79708520D01*
X111211529Y-79698030D01*
X111234629Y-79689765D01*
X111258427Y-79683804D01*
X111282696Y-79680204D01*
X111307200Y-79679000D01*
X112232200Y-79679000D01*
X112256704Y-79680204D01*
G37*
G36*
X112704204Y-68018204D02*
G01*
X112728473Y-68021804D01*
X112752271Y-68027765D01*
X112775371Y-68036030D01*
X112797549Y-68046520D01*
X112818593Y-68059133D01*
X112838298Y-68073747D01*
X112856477Y-68090223D01*
X112872953Y-68108402D01*
X112887567Y-68128107D01*
X112900180Y-68149151D01*
X112910670Y-68171329D01*
X112918935Y-68194429D01*
X112924896Y-68218227D01*
X112928496Y-68242496D01*
X112929700Y-68267000D01*
X112929700Y-70417000D01*
X112928496Y-70441504D01*
X112924896Y-70465773D01*
X112918935Y-70489571D01*
X112910670Y-70512671D01*
X112900180Y-70534849D01*
X112887567Y-70555893D01*
X112872953Y-70575598D01*
X112856477Y-70593777D01*
X112838298Y-70610253D01*
X112818593Y-70624867D01*
X112797549Y-70637480D01*
X112775371Y-70647970D01*
X112752271Y-70656235D01*
X112728473Y-70662196D01*
X112704204Y-70665796D01*
X112679700Y-70667000D01*
X111754700Y-70667000D01*
X111730196Y-70665796D01*
X111705927Y-70662196D01*
X111682129Y-70656235D01*
X111659029Y-70647970D01*
X111636851Y-70637480D01*
X111615807Y-70624867D01*
X111596102Y-70610253D01*
X111577923Y-70593777D01*
X111561447Y-70575598D01*
X111546833Y-70555893D01*
X111534220Y-70534849D01*
X111523730Y-70512671D01*
X111515465Y-70489571D01*
X111509504Y-70465773D01*
X111505904Y-70441504D01*
X111504700Y-70417000D01*
X111504700Y-68267000D01*
X111505904Y-68242496D01*
X111509504Y-68218227D01*
X111515465Y-68194429D01*
X111523730Y-68171329D01*
X111534220Y-68149151D01*
X111546833Y-68128107D01*
X111561447Y-68108402D01*
X111577923Y-68090223D01*
X111596102Y-68073747D01*
X111615807Y-68059133D01*
X111636851Y-68046520D01*
X111659029Y-68036030D01*
X111682129Y-68027765D01*
X111705927Y-68021804D01*
X111730196Y-68018204D01*
X111754700Y-68017000D01*
X112679700Y-68017000D01*
X112704204Y-68018204D01*
G37*
G36*
X109729204Y-68018204D02*
G01*
X109753473Y-68021804D01*
X109777271Y-68027765D01*
X109800371Y-68036030D01*
X109822549Y-68046520D01*
X109843593Y-68059133D01*
X109863298Y-68073747D01*
X109881477Y-68090223D01*
X109897953Y-68108402D01*
X109912567Y-68128107D01*
X109925180Y-68149151D01*
X109935670Y-68171329D01*
X109943935Y-68194429D01*
X109949896Y-68218227D01*
X109953496Y-68242496D01*
X109954700Y-68267000D01*
X109954700Y-70417000D01*
X109953496Y-70441504D01*
X109949896Y-70465773D01*
X109943935Y-70489571D01*
X109935670Y-70512671D01*
X109925180Y-70534849D01*
X109912567Y-70555893D01*
X109897953Y-70575598D01*
X109881477Y-70593777D01*
X109863298Y-70610253D01*
X109843593Y-70624867D01*
X109822549Y-70637480D01*
X109800371Y-70647970D01*
X109777271Y-70656235D01*
X109753473Y-70662196D01*
X109729204Y-70665796D01*
X109704700Y-70667000D01*
X108779700Y-70667000D01*
X108755196Y-70665796D01*
X108730927Y-70662196D01*
X108707129Y-70656235D01*
X108684029Y-70647970D01*
X108661851Y-70637480D01*
X108640807Y-70624867D01*
X108621102Y-70610253D01*
X108602923Y-70593777D01*
X108586447Y-70575598D01*
X108571833Y-70555893D01*
X108559220Y-70534849D01*
X108548730Y-70512671D01*
X108540465Y-70489571D01*
X108534504Y-70465773D01*
X108530904Y-70441504D01*
X108529700Y-70417000D01*
X108529700Y-68267000D01*
X108530904Y-68242496D01*
X108534504Y-68218227D01*
X108540465Y-68194429D01*
X108548730Y-68171329D01*
X108559220Y-68149151D01*
X108571833Y-68128107D01*
X108586447Y-68108402D01*
X108602923Y-68090223D01*
X108621102Y-68073747D01*
X108640807Y-68059133D01*
X108661851Y-68046520D01*
X108684029Y-68036030D01*
X108707129Y-68027765D01*
X108730927Y-68021804D01*
X108755196Y-68018204D01*
X108779700Y-68017000D01*
X109704700Y-68017000D01*
X109729204Y-68018204D01*
G37*
G36*
X94906704Y-94697704D02*
G01*
X94930973Y-94701304D01*
X94954771Y-94707265D01*
X94977871Y-94715530D01*
X95000049Y-94726020D01*
X95021093Y-94738633D01*
X95040798Y-94753247D01*
X95058977Y-94769723D01*
X95075453Y-94787902D01*
X95090067Y-94807607D01*
X95102680Y-94828651D01*
X95113170Y-94850829D01*
X95121435Y-94873929D01*
X95127396Y-94897727D01*
X95130996Y-94921996D01*
X95132200Y-94946500D01*
X95132200Y-95871500D01*
X95130996Y-95896004D01*
X95127396Y-95920273D01*
X95121435Y-95944071D01*
X95113170Y-95967171D01*
X95102680Y-95989349D01*
X95090067Y-96010393D01*
X95075453Y-96030098D01*
X95058977Y-96048277D01*
X95040798Y-96064753D01*
X95021093Y-96079367D01*
X95000049Y-96091980D01*
X94977871Y-96102470D01*
X94954771Y-96110735D01*
X94930973Y-96116696D01*
X94906704Y-96120296D01*
X94882200Y-96121500D01*
X93632200Y-96121500D01*
X93607696Y-96120296D01*
X93583427Y-96116696D01*
X93559629Y-96110735D01*
X93536529Y-96102470D01*
X93514351Y-96091980D01*
X93493307Y-96079367D01*
X93473602Y-96064753D01*
X93455423Y-96048277D01*
X93438947Y-96030098D01*
X93424333Y-96010393D01*
X93411720Y-95989349D01*
X93401230Y-95967171D01*
X93392965Y-95944071D01*
X93387004Y-95920273D01*
X93383404Y-95896004D01*
X93382200Y-95871500D01*
X93382200Y-94946500D01*
X93383404Y-94921996D01*
X93387004Y-94897727D01*
X93392965Y-94873929D01*
X93401230Y-94850829D01*
X93411720Y-94828651D01*
X93424333Y-94807607D01*
X93438947Y-94787902D01*
X93455423Y-94769723D01*
X93473602Y-94753247D01*
X93493307Y-94738633D01*
X93514351Y-94726020D01*
X93536529Y-94715530D01*
X93559629Y-94707265D01*
X93583427Y-94701304D01*
X93607696Y-94697704D01*
X93632200Y-94696500D01*
X94882200Y-94696500D01*
X94906704Y-94697704D01*
G37*
G36*
X94906704Y-91722704D02*
G01*
X94930973Y-91726304D01*
X94954771Y-91732265D01*
X94977871Y-91740530D01*
X95000049Y-91751020D01*
X95021093Y-91763633D01*
X95040798Y-91778247D01*
X95058977Y-91794723D01*
X95075453Y-91812902D01*
X95090067Y-91832607D01*
X95102680Y-91853651D01*
X95113170Y-91875829D01*
X95121435Y-91898929D01*
X95127396Y-91922727D01*
X95130996Y-91946996D01*
X95132200Y-91971500D01*
X95132200Y-92896500D01*
X95130996Y-92921004D01*
X95127396Y-92945273D01*
X95121435Y-92969071D01*
X95113170Y-92992171D01*
X95102680Y-93014349D01*
X95090067Y-93035393D01*
X95075453Y-93055098D01*
X95058977Y-93073277D01*
X95040798Y-93089753D01*
X95021093Y-93104367D01*
X95000049Y-93116980D01*
X94977871Y-93127470D01*
X94954771Y-93135735D01*
X94930973Y-93141696D01*
X94906704Y-93145296D01*
X94882200Y-93146500D01*
X93632200Y-93146500D01*
X93607696Y-93145296D01*
X93583427Y-93141696D01*
X93559629Y-93135735D01*
X93536529Y-93127470D01*
X93514351Y-93116980D01*
X93493307Y-93104367D01*
X93473602Y-93089753D01*
X93455423Y-93073277D01*
X93438947Y-93055098D01*
X93424333Y-93035393D01*
X93411720Y-93014349D01*
X93401230Y-92992171D01*
X93392965Y-92969071D01*
X93387004Y-92945273D01*
X93383404Y-92921004D01*
X93382200Y-92896500D01*
X93382200Y-91971500D01*
X93383404Y-91946996D01*
X93387004Y-91922727D01*
X93392965Y-91898929D01*
X93401230Y-91875829D01*
X93411720Y-91853651D01*
X93424333Y-91832607D01*
X93438947Y-91812902D01*
X93455423Y-91794723D01*
X93473602Y-91778247D01*
X93493307Y-91763633D01*
X93514351Y-91751020D01*
X93536529Y-91740530D01*
X93559629Y-91732265D01*
X93583427Y-91726304D01*
X93607696Y-91722704D01*
X93632200Y-91721500D01*
X94882200Y-91721500D01*
X94906704Y-91722704D01*
G37*
D11*
X114233200Y-89154000D03*
X112233200Y-90104000D03*
X112233200Y-88204000D03*
M02*
