G04 #@! TF.GenerationSoftware,KiCad,Pcbnew,5.1.6+dfsg1-1*
G04 #@! TF.CreationDate,2020-07-23T09:40:13+02:00*
G04 #@! TF.ProjectId,lownoise-pwr,6c6f776e-6f69-4736-952d-7077722e6b69,rev?*
G04 #@! TF.SameCoordinates,Original*
G04 #@! TF.FileFunction,Soldermask,Bot*
G04 #@! TF.FilePolarity,Negative*
%FSLAX46Y46*%
G04 Gerber Fmt 4.6, Leading zero omitted, Abs format (unit mm)*
G04 Created by KiCad (PCBNEW 5.1.6+dfsg1-1) date 2020-07-23 09:40:13*
%MOMM*%
%LPD*%
G01*
G04 APERTURE LIST*
%ADD10C,0.100000*%
G04 APERTURE END LIST*
D10*
G36*
X68364103Y-92755075D02*
G01*
X68580275Y-92844616D01*
X68591771Y-92849378D01*
X68796666Y-92986285D01*
X68970915Y-93160534D01*
X69105209Y-93361519D01*
X69107823Y-93365431D01*
X69202125Y-93593097D01*
X69250200Y-93834786D01*
X69250200Y-94081214D01*
X69202125Y-94322903D01*
X69150938Y-94446481D01*
X69107822Y-94550571D01*
X68970915Y-94755466D01*
X68796666Y-94929715D01*
X68591771Y-95066622D01*
X68591770Y-95066623D01*
X68591769Y-95066623D01*
X68364103Y-95160925D01*
X68122414Y-95209000D01*
X67875986Y-95209000D01*
X67634297Y-95160925D01*
X67406631Y-95066623D01*
X67406630Y-95066623D01*
X67406629Y-95066622D01*
X67201734Y-94929715D01*
X67027485Y-94755466D01*
X66890578Y-94550571D01*
X66847463Y-94446481D01*
X66796275Y-94322903D01*
X66748200Y-94081214D01*
X66748200Y-93834786D01*
X66796275Y-93593097D01*
X66890577Y-93365431D01*
X66893191Y-93361519D01*
X67027485Y-93160534D01*
X67201734Y-92986285D01*
X67406629Y-92849378D01*
X67418126Y-92844616D01*
X67634297Y-92755075D01*
X67875986Y-92707000D01*
X68122414Y-92707000D01*
X68364103Y-92755075D01*
G37*
G36*
X57564103Y-92755075D02*
G01*
X57780275Y-92844616D01*
X57791771Y-92849378D01*
X57996666Y-92986285D01*
X58170915Y-93160534D01*
X58305209Y-93361519D01*
X58307823Y-93365431D01*
X58402125Y-93593097D01*
X58450200Y-93834786D01*
X58450200Y-94081214D01*
X58402125Y-94322903D01*
X58350938Y-94446481D01*
X58307822Y-94550571D01*
X58170915Y-94755466D01*
X57996666Y-94929715D01*
X57791771Y-95066622D01*
X57791770Y-95066623D01*
X57791769Y-95066623D01*
X57564103Y-95160925D01*
X57322414Y-95209000D01*
X57075986Y-95209000D01*
X56834297Y-95160925D01*
X56606631Y-95066623D01*
X56606630Y-95066623D01*
X56606629Y-95066622D01*
X56401734Y-94929715D01*
X56227485Y-94755466D01*
X56090578Y-94550571D01*
X56047463Y-94446481D01*
X55996275Y-94322903D01*
X55948200Y-94081214D01*
X55948200Y-93834786D01*
X55996275Y-93593097D01*
X56090577Y-93365431D01*
X56093191Y-93361519D01*
X56227485Y-93160534D01*
X56401734Y-92986285D01*
X56606629Y-92849378D01*
X56618126Y-92844616D01*
X56834297Y-92755075D01*
X57075986Y-92707000D01*
X57322414Y-92707000D01*
X57564103Y-92755075D01*
G37*
G36*
X76905428Y-93085703D02*
G01*
X77060300Y-93149853D01*
X77199681Y-93242985D01*
X77318215Y-93361519D01*
X77411347Y-93500900D01*
X77475497Y-93655772D01*
X77508200Y-93820184D01*
X77508200Y-93987816D01*
X77475497Y-94152228D01*
X77411347Y-94307100D01*
X77318215Y-94446481D01*
X77199681Y-94565015D01*
X77060300Y-94658147D01*
X76905428Y-94722297D01*
X76741016Y-94755000D01*
X76573384Y-94755000D01*
X76408972Y-94722297D01*
X76254100Y-94658147D01*
X76114719Y-94565015D01*
X75996185Y-94446481D01*
X75903053Y-94307100D01*
X75838903Y-94152228D01*
X75806200Y-93987816D01*
X75806200Y-93820184D01*
X75838903Y-93655772D01*
X75903053Y-93500900D01*
X75996185Y-93361519D01*
X76114719Y-93242985D01*
X76254100Y-93149853D01*
X76408972Y-93085703D01*
X76573384Y-93053000D01*
X76741016Y-93053000D01*
X76905428Y-93085703D01*
G37*
G36*
X108175428Y-92135703D02*
G01*
X108330300Y-92199853D01*
X108469681Y-92292985D01*
X108588215Y-92411519D01*
X108681347Y-92550900D01*
X108745497Y-92705772D01*
X108778200Y-92870184D01*
X108778200Y-93037816D01*
X108745497Y-93202228D01*
X108681347Y-93357100D01*
X108588215Y-93496481D01*
X108469681Y-93615015D01*
X108330300Y-93708147D01*
X108175428Y-93772297D01*
X108011016Y-93805000D01*
X107843384Y-93805000D01*
X107678972Y-93772297D01*
X107524100Y-93708147D01*
X107384719Y-93615015D01*
X107266185Y-93496481D01*
X107173053Y-93357100D01*
X107108903Y-93202228D01*
X107076200Y-93037816D01*
X107076200Y-92870184D01*
X107108903Y-92705772D01*
X107173053Y-92550900D01*
X107266185Y-92411519D01*
X107384719Y-92292985D01*
X107524100Y-92199853D01*
X107678972Y-92135703D01*
X107843384Y-92103000D01*
X108011016Y-92103000D01*
X108175428Y-92135703D01*
G37*
G36*
X100555428Y-92135703D02*
G01*
X100710300Y-92199853D01*
X100849681Y-92292985D01*
X100968215Y-92411519D01*
X101061347Y-92550900D01*
X101125497Y-92705772D01*
X101158200Y-92870184D01*
X101158200Y-93037816D01*
X101125497Y-93202228D01*
X101061347Y-93357100D01*
X100968215Y-93496481D01*
X100849681Y-93615015D01*
X100710300Y-93708147D01*
X100555428Y-93772297D01*
X100391016Y-93805000D01*
X100223384Y-93805000D01*
X100058972Y-93772297D01*
X99904100Y-93708147D01*
X99764719Y-93615015D01*
X99646185Y-93496481D01*
X99553053Y-93357100D01*
X99488903Y-93202228D01*
X99456200Y-93037816D01*
X99456200Y-92870184D01*
X99488903Y-92705772D01*
X99553053Y-92550900D01*
X99646185Y-92411519D01*
X99764719Y-92292985D01*
X99904100Y-92199853D01*
X100058972Y-92135703D01*
X100223384Y-92103000D01*
X100391016Y-92103000D01*
X100555428Y-92135703D01*
G37*
G36*
X90367428Y-91942503D02*
G01*
X90522300Y-92006653D01*
X90661681Y-92099785D01*
X90780215Y-92218319D01*
X90873347Y-92357700D01*
X90937497Y-92512572D01*
X90970200Y-92676984D01*
X90970200Y-92844616D01*
X90937497Y-93009028D01*
X90873347Y-93163900D01*
X90780215Y-93303281D01*
X90661681Y-93421815D01*
X90522300Y-93514947D01*
X90367428Y-93579097D01*
X90203016Y-93611800D01*
X90035384Y-93611800D01*
X89870972Y-93579097D01*
X89716100Y-93514947D01*
X89576719Y-93421815D01*
X89458185Y-93303281D01*
X89365053Y-93163900D01*
X89300903Y-93009028D01*
X89268200Y-92844616D01*
X89268200Y-92676984D01*
X89300903Y-92512572D01*
X89365053Y-92357700D01*
X89458185Y-92218319D01*
X89576719Y-92099785D01*
X89716100Y-92006653D01*
X89870972Y-91942503D01*
X90035384Y-91909800D01*
X90203016Y-91909800D01*
X90367428Y-91942503D01*
G37*
G36*
X82747428Y-91942503D02*
G01*
X82902300Y-92006653D01*
X83041681Y-92099785D01*
X83160215Y-92218319D01*
X83253347Y-92357700D01*
X83317497Y-92512572D01*
X83350200Y-92676984D01*
X83350200Y-92844616D01*
X83317497Y-93009028D01*
X83253347Y-93163900D01*
X83160215Y-93303281D01*
X83041681Y-93421815D01*
X82902300Y-93514947D01*
X82747428Y-93579097D01*
X82583016Y-93611800D01*
X82415384Y-93611800D01*
X82250972Y-93579097D01*
X82096100Y-93514947D01*
X81956719Y-93421815D01*
X81838185Y-93303281D01*
X81745053Y-93163900D01*
X81680903Y-93009028D01*
X81648200Y-92844616D01*
X81648200Y-92676984D01*
X81680903Y-92512572D01*
X81745053Y-92357700D01*
X81838185Y-92218319D01*
X81956719Y-92099785D01*
X82096100Y-92006653D01*
X82250972Y-91942503D01*
X82415384Y-91909800D01*
X82583016Y-91909800D01*
X82747428Y-91942503D01*
G37*
G36*
X76905428Y-89585703D02*
G01*
X77060300Y-89649853D01*
X77199681Y-89742985D01*
X77318215Y-89861519D01*
X77411347Y-90000900D01*
X77475497Y-90155772D01*
X77508200Y-90320184D01*
X77508200Y-90487816D01*
X77475497Y-90652228D01*
X77411347Y-90807100D01*
X77318215Y-90946481D01*
X77199681Y-91065015D01*
X77060300Y-91158147D01*
X76905428Y-91222297D01*
X76741016Y-91255000D01*
X76573384Y-91255000D01*
X76408972Y-91222297D01*
X76254100Y-91158147D01*
X76114719Y-91065015D01*
X75996185Y-90946481D01*
X75903053Y-90807100D01*
X75838903Y-90652228D01*
X75806200Y-90487816D01*
X75806200Y-90320184D01*
X75838903Y-90155772D01*
X75903053Y-90000900D01*
X75996185Y-89861519D01*
X76114719Y-89742985D01*
X76254100Y-89649853D01*
X76408972Y-89585703D01*
X76573384Y-89553000D01*
X76741016Y-89553000D01*
X76905428Y-89585703D01*
G37*
G36*
X82747428Y-89402503D02*
G01*
X82902300Y-89466653D01*
X83041681Y-89559785D01*
X83160215Y-89678319D01*
X83253347Y-89817700D01*
X83317497Y-89972572D01*
X83350200Y-90136984D01*
X83350200Y-90304616D01*
X83317497Y-90469028D01*
X83253347Y-90623900D01*
X83160215Y-90763281D01*
X83041681Y-90881815D01*
X82902300Y-90974947D01*
X82747428Y-91039097D01*
X82583016Y-91071800D01*
X82415384Y-91071800D01*
X82250972Y-91039097D01*
X82096100Y-90974947D01*
X81956719Y-90881815D01*
X81838185Y-90763281D01*
X81745053Y-90623900D01*
X81680903Y-90469028D01*
X81648200Y-90304616D01*
X81648200Y-90136984D01*
X81680903Y-89972572D01*
X81745053Y-89817700D01*
X81838185Y-89678319D01*
X81956719Y-89559785D01*
X82096100Y-89466653D01*
X82250972Y-89402503D01*
X82415384Y-89369800D01*
X82583016Y-89369800D01*
X82747428Y-89402503D01*
G37*
G36*
X90367428Y-89402503D02*
G01*
X90522300Y-89466653D01*
X90661681Y-89559785D01*
X90780215Y-89678319D01*
X90873347Y-89817700D01*
X90937497Y-89972572D01*
X90970200Y-90136984D01*
X90970200Y-90304616D01*
X90937497Y-90469028D01*
X90873347Y-90623900D01*
X90780215Y-90763281D01*
X90661681Y-90881815D01*
X90522300Y-90974947D01*
X90367428Y-91039097D01*
X90203016Y-91071800D01*
X90035384Y-91071800D01*
X89870972Y-91039097D01*
X89716100Y-90974947D01*
X89576719Y-90881815D01*
X89458185Y-90763281D01*
X89365053Y-90623900D01*
X89300903Y-90469028D01*
X89268200Y-90304616D01*
X89268200Y-90136984D01*
X89300903Y-89972572D01*
X89365053Y-89817700D01*
X89458185Y-89678319D01*
X89576719Y-89559785D01*
X89716100Y-89466653D01*
X89870972Y-89402503D01*
X90035384Y-89369800D01*
X90203016Y-89369800D01*
X90367428Y-89402503D01*
G37*
G36*
X105945428Y-88315703D02*
G01*
X106100300Y-88379853D01*
X106239681Y-88472985D01*
X106358215Y-88591519D01*
X106451347Y-88730900D01*
X106515497Y-88885772D01*
X106548200Y-89050184D01*
X106548200Y-89217816D01*
X106515497Y-89382228D01*
X106451347Y-89537100D01*
X106358215Y-89676481D01*
X106239681Y-89795015D01*
X106100300Y-89888147D01*
X105945428Y-89952297D01*
X105781016Y-89985000D01*
X105613384Y-89985000D01*
X105448972Y-89952297D01*
X105294100Y-89888147D01*
X105154719Y-89795015D01*
X105036185Y-89676481D01*
X104943053Y-89537100D01*
X104878903Y-89382228D01*
X104846200Y-89217816D01*
X104846200Y-89050184D01*
X104878903Y-88885772D01*
X104943053Y-88730900D01*
X105036185Y-88591519D01*
X105154719Y-88472985D01*
X105294100Y-88379853D01*
X105448972Y-88315703D01*
X105613384Y-88283000D01*
X105781016Y-88283000D01*
X105945428Y-88315703D01*
G37*
G36*
X108445428Y-88315703D02*
G01*
X108600300Y-88379853D01*
X108739681Y-88472985D01*
X108858215Y-88591519D01*
X108951347Y-88730900D01*
X109015497Y-88885772D01*
X109048200Y-89050184D01*
X109048200Y-89217816D01*
X109015497Y-89382228D01*
X108951347Y-89537100D01*
X108858215Y-89676481D01*
X108739681Y-89795015D01*
X108600300Y-89888147D01*
X108445428Y-89952297D01*
X108281016Y-89985000D01*
X108113384Y-89985000D01*
X107948972Y-89952297D01*
X107794100Y-89888147D01*
X107654719Y-89795015D01*
X107536185Y-89676481D01*
X107443053Y-89537100D01*
X107378903Y-89382228D01*
X107346200Y-89217816D01*
X107346200Y-89050184D01*
X107378903Y-88885772D01*
X107443053Y-88730900D01*
X107536185Y-88591519D01*
X107654719Y-88472985D01*
X107794100Y-88379853D01*
X107948972Y-88315703D01*
X108113384Y-88283000D01*
X108281016Y-88283000D01*
X108445428Y-88315703D01*
G37*
G36*
X100402789Y-87362876D02*
G01*
X100502093Y-87382629D01*
X100642406Y-87440748D01*
X100768684Y-87525125D01*
X100876075Y-87632516D01*
X100960452Y-87758794D01*
X101018571Y-87899107D01*
X101048200Y-88048063D01*
X101048200Y-88199937D01*
X101018571Y-88348893D01*
X100960452Y-88489206D01*
X100876075Y-88615484D01*
X100768684Y-88722875D01*
X100642406Y-88807252D01*
X100502093Y-88865371D01*
X100402789Y-88885124D01*
X100353138Y-88895000D01*
X100201262Y-88895000D01*
X100151611Y-88885124D01*
X100052307Y-88865371D01*
X99911994Y-88807252D01*
X99785716Y-88722875D01*
X99678325Y-88615484D01*
X99593948Y-88489206D01*
X99535829Y-88348893D01*
X99506200Y-88199937D01*
X99506200Y-88048063D01*
X99535829Y-87899107D01*
X99593948Y-87758794D01*
X99678325Y-87632516D01*
X99785716Y-87525125D01*
X99911994Y-87440748D01*
X100052307Y-87382629D01*
X100151611Y-87362876D01*
X100201262Y-87353000D01*
X100353138Y-87353000D01*
X100402789Y-87362876D01*
G37*
G36*
X97862789Y-87362876D02*
G01*
X97962093Y-87382629D01*
X98102406Y-87440748D01*
X98228684Y-87525125D01*
X98336075Y-87632516D01*
X98420452Y-87758794D01*
X98478571Y-87899107D01*
X98508200Y-88048063D01*
X98508200Y-88199937D01*
X98478571Y-88348893D01*
X98420452Y-88489206D01*
X98336075Y-88615484D01*
X98228684Y-88722875D01*
X98102406Y-88807252D01*
X97962093Y-88865371D01*
X97862789Y-88885124D01*
X97813138Y-88895000D01*
X97661262Y-88895000D01*
X97611611Y-88885124D01*
X97512307Y-88865371D01*
X97371994Y-88807252D01*
X97245716Y-88722875D01*
X97138325Y-88615484D01*
X97053948Y-88489206D01*
X96995829Y-88348893D01*
X96966200Y-88199937D01*
X96966200Y-88048063D01*
X96995829Y-87899107D01*
X97053948Y-87758794D01*
X97138325Y-87632516D01*
X97245716Y-87525125D01*
X97371994Y-87440748D01*
X97512307Y-87382629D01*
X97611611Y-87362876D01*
X97661262Y-87353000D01*
X97813138Y-87353000D01*
X97862789Y-87362876D01*
G37*
G36*
X95322789Y-87362876D02*
G01*
X95422093Y-87382629D01*
X95562406Y-87440748D01*
X95688684Y-87525125D01*
X95796075Y-87632516D01*
X95880452Y-87758794D01*
X95938571Y-87899107D01*
X95968200Y-88048063D01*
X95968200Y-88199937D01*
X95938571Y-88348893D01*
X95880452Y-88489206D01*
X95796075Y-88615484D01*
X95688684Y-88722875D01*
X95562406Y-88807252D01*
X95422093Y-88865371D01*
X95322789Y-88885124D01*
X95273138Y-88895000D01*
X95121262Y-88895000D01*
X95071611Y-88885124D01*
X94972307Y-88865371D01*
X94831994Y-88807252D01*
X94705716Y-88722875D01*
X94598325Y-88615484D01*
X94513948Y-88489206D01*
X94455829Y-88348893D01*
X94426200Y-88199937D01*
X94426200Y-88048063D01*
X94455829Y-87899107D01*
X94513948Y-87758794D01*
X94598325Y-87632516D01*
X94705716Y-87525125D01*
X94831994Y-87440748D01*
X94972307Y-87382629D01*
X95071611Y-87362876D01*
X95121262Y-87353000D01*
X95273138Y-87353000D01*
X95322789Y-87362876D01*
G37*
G36*
X82747428Y-86862503D02*
G01*
X82902300Y-86926653D01*
X83041681Y-87019785D01*
X83160215Y-87138319D01*
X83253347Y-87277700D01*
X83317497Y-87432572D01*
X83350200Y-87596984D01*
X83350200Y-87764616D01*
X83317497Y-87929028D01*
X83253347Y-88083900D01*
X83160215Y-88223281D01*
X83041681Y-88341815D01*
X82902300Y-88434947D01*
X82747428Y-88499097D01*
X82583016Y-88531800D01*
X82415384Y-88531800D01*
X82250972Y-88499097D01*
X82096100Y-88434947D01*
X81956719Y-88341815D01*
X81838185Y-88223281D01*
X81745053Y-88083900D01*
X81680903Y-87929028D01*
X81648200Y-87764616D01*
X81648200Y-87596984D01*
X81680903Y-87432572D01*
X81745053Y-87277700D01*
X81838185Y-87138319D01*
X81956719Y-87019785D01*
X82096100Y-86926653D01*
X82250972Y-86862503D01*
X82415384Y-86829800D01*
X82583016Y-86829800D01*
X82747428Y-86862503D01*
G37*
G36*
X90367428Y-86862503D02*
G01*
X90522300Y-86926653D01*
X90661681Y-87019785D01*
X90780215Y-87138319D01*
X90873347Y-87277700D01*
X90937497Y-87432572D01*
X90970200Y-87596984D01*
X90970200Y-87764616D01*
X90937497Y-87929028D01*
X90873347Y-88083900D01*
X90780215Y-88223281D01*
X90661681Y-88341815D01*
X90522300Y-88434947D01*
X90367428Y-88499097D01*
X90203016Y-88531800D01*
X90035384Y-88531800D01*
X89870972Y-88499097D01*
X89716100Y-88434947D01*
X89576719Y-88341815D01*
X89458185Y-88223281D01*
X89365053Y-88083900D01*
X89300903Y-87929028D01*
X89268200Y-87764616D01*
X89268200Y-87596984D01*
X89300903Y-87432572D01*
X89365053Y-87277700D01*
X89458185Y-87138319D01*
X89576719Y-87019785D01*
X89716100Y-86926653D01*
X89870972Y-86862503D01*
X90035384Y-86829800D01*
X90203016Y-86829800D01*
X90367428Y-86862503D01*
G37*
G36*
X48603272Y-84954918D02*
G01*
X48807690Y-85039590D01*
X48849139Y-85056759D01*
X48887136Y-85082148D01*
X49032085Y-85179000D01*
X49070412Y-85204610D01*
X49258590Y-85392788D01*
X49359561Y-85543900D01*
X49406442Y-85614063D01*
X49508282Y-85859928D01*
X49560200Y-86120937D01*
X49560200Y-86387063D01*
X49541573Y-86480705D01*
X49508282Y-86648072D01*
X49406441Y-86893939D01*
X49258590Y-87115212D01*
X49070412Y-87303390D01*
X48849139Y-87451241D01*
X48849138Y-87451242D01*
X48849137Y-87451242D01*
X48603272Y-87553082D01*
X48342263Y-87605000D01*
X48076137Y-87605000D01*
X47815128Y-87553082D01*
X47569263Y-87451242D01*
X47569262Y-87451242D01*
X47569261Y-87451241D01*
X47347988Y-87303390D01*
X47159810Y-87115212D01*
X47011959Y-86893939D01*
X46910118Y-86648072D01*
X46876827Y-86480705D01*
X46858200Y-86387063D01*
X46858200Y-86120937D01*
X46910118Y-85859928D01*
X47011958Y-85614063D01*
X47058840Y-85543900D01*
X47159810Y-85392788D01*
X47347988Y-85204610D01*
X47386316Y-85179000D01*
X47531264Y-85082148D01*
X47569261Y-85056759D01*
X47610711Y-85039590D01*
X47815128Y-84954918D01*
X48076137Y-84903000D01*
X48342263Y-84903000D01*
X48603272Y-84954918D01*
G37*
G36*
X76197785Y-83970802D02*
G01*
X76347610Y-84000604D01*
X76629874Y-84117521D01*
X76883905Y-84287259D01*
X77099941Y-84503295D01*
X77269679Y-84757326D01*
X77386596Y-85039590D01*
X77446200Y-85339240D01*
X77446200Y-85644760D01*
X77386596Y-85944410D01*
X77269679Y-86226674D01*
X77099941Y-86480705D01*
X76883905Y-86696741D01*
X76629874Y-86866479D01*
X76347610Y-86983396D01*
X76197785Y-87013198D01*
X76047961Y-87043000D01*
X75742439Y-87043000D01*
X75592615Y-87013198D01*
X75442790Y-86983396D01*
X75160526Y-86866479D01*
X74906495Y-86696741D01*
X74690459Y-86480705D01*
X74520721Y-86226674D01*
X74403804Y-85944410D01*
X74344200Y-85644760D01*
X74344200Y-85339240D01*
X74403804Y-85039590D01*
X74520721Y-84757326D01*
X74690459Y-84503295D01*
X74906495Y-84287259D01*
X75160526Y-84117521D01*
X75442790Y-84000604D01*
X75592615Y-83970802D01*
X75742439Y-83941000D01*
X76047961Y-83941000D01*
X76197785Y-83970802D01*
G37*
G36*
X90367428Y-84322503D02*
G01*
X90522300Y-84386653D01*
X90661681Y-84479785D01*
X90780215Y-84598319D01*
X90873347Y-84737700D01*
X90937497Y-84892572D01*
X90970200Y-85056984D01*
X90970200Y-85224616D01*
X90937497Y-85389028D01*
X90873347Y-85543900D01*
X90780215Y-85683281D01*
X90661681Y-85801815D01*
X90522300Y-85894947D01*
X90367428Y-85959097D01*
X90203016Y-85991800D01*
X90035384Y-85991800D01*
X89870972Y-85959097D01*
X89716100Y-85894947D01*
X89576719Y-85801815D01*
X89458185Y-85683281D01*
X89365053Y-85543900D01*
X89300903Y-85389028D01*
X89268200Y-85224616D01*
X89268200Y-85056984D01*
X89300903Y-84892572D01*
X89365053Y-84737700D01*
X89458185Y-84598319D01*
X89576719Y-84479785D01*
X89716100Y-84386653D01*
X89870972Y-84322503D01*
X90035384Y-84289800D01*
X90203016Y-84289800D01*
X90367428Y-84322503D01*
G37*
G36*
X82747428Y-84322503D02*
G01*
X82902300Y-84386653D01*
X83041681Y-84479785D01*
X83160215Y-84598319D01*
X83253347Y-84737700D01*
X83317497Y-84892572D01*
X83350200Y-85056984D01*
X83350200Y-85224616D01*
X83317497Y-85389028D01*
X83253347Y-85543900D01*
X83160215Y-85683281D01*
X83041681Y-85801815D01*
X82902300Y-85894947D01*
X82747428Y-85959097D01*
X82583016Y-85991800D01*
X82415384Y-85991800D01*
X82250972Y-85959097D01*
X82096100Y-85894947D01*
X81956719Y-85801815D01*
X81838185Y-85683281D01*
X81745053Y-85543900D01*
X81680903Y-85389028D01*
X81648200Y-85224616D01*
X81648200Y-85056984D01*
X81680903Y-84892572D01*
X81745053Y-84737700D01*
X81838185Y-84598319D01*
X81956719Y-84479785D01*
X82096100Y-84386653D01*
X82250972Y-84322503D01*
X82415384Y-84289800D01*
X82583016Y-84289800D01*
X82747428Y-84322503D01*
G37*
G36*
X119214200Y-85229000D02*
G01*
X117412200Y-85229000D01*
X117412200Y-83427000D01*
X119214200Y-83427000D01*
X119214200Y-85229000D01*
G37*
G36*
X105353428Y-83509703D02*
G01*
X105508300Y-83573853D01*
X105647681Y-83666985D01*
X105766215Y-83785519D01*
X105859347Y-83924900D01*
X105923497Y-84079772D01*
X105956200Y-84244184D01*
X105956200Y-84411816D01*
X105923497Y-84576228D01*
X105859347Y-84731100D01*
X105766215Y-84870481D01*
X105647681Y-84989015D01*
X105508300Y-85082147D01*
X105353428Y-85146297D01*
X105189016Y-85179000D01*
X105021384Y-85179000D01*
X104856972Y-85146297D01*
X104702100Y-85082147D01*
X104562719Y-84989015D01*
X104444185Y-84870481D01*
X104351053Y-84731100D01*
X104286903Y-84576228D01*
X104254200Y-84411816D01*
X104254200Y-84244184D01*
X104286903Y-84079772D01*
X104351053Y-83924900D01*
X104444185Y-83785519D01*
X104562719Y-83666985D01*
X104702100Y-83573853D01*
X104856972Y-83509703D01*
X105021384Y-83477000D01*
X105189016Y-83477000D01*
X105353428Y-83509703D01*
G37*
G36*
X112973428Y-83509703D02*
G01*
X113128300Y-83573853D01*
X113267681Y-83666985D01*
X113386215Y-83785519D01*
X113479347Y-83924900D01*
X113543497Y-84079772D01*
X113576200Y-84244184D01*
X113576200Y-84411816D01*
X113543497Y-84576228D01*
X113479347Y-84731100D01*
X113386215Y-84870481D01*
X113267681Y-84989015D01*
X113128300Y-85082147D01*
X112973428Y-85146297D01*
X112809016Y-85179000D01*
X112641384Y-85179000D01*
X112476972Y-85146297D01*
X112322100Y-85082147D01*
X112182719Y-84989015D01*
X112064185Y-84870481D01*
X111971053Y-84731100D01*
X111906903Y-84576228D01*
X111874200Y-84411816D01*
X111874200Y-84244184D01*
X111906903Y-84079772D01*
X111971053Y-83924900D01*
X112064185Y-83785519D01*
X112182719Y-83666985D01*
X112322100Y-83573853D01*
X112476972Y-83509703D01*
X112641384Y-83477000D01*
X112809016Y-83477000D01*
X112973428Y-83509703D01*
G37*
G36*
X68364103Y-81855075D02*
G01*
X68568612Y-81939785D01*
X68591771Y-81949378D01*
X68796666Y-82086285D01*
X68970915Y-82260534D01*
X69038949Y-82362354D01*
X69107823Y-82465431D01*
X69202125Y-82693097D01*
X69250200Y-82934786D01*
X69250200Y-83181214D01*
X69202125Y-83422903D01*
X69190156Y-83451800D01*
X69107822Y-83650571D01*
X68970915Y-83855466D01*
X68796666Y-84029715D01*
X68591771Y-84166622D01*
X68591770Y-84166623D01*
X68591769Y-84166623D01*
X68364103Y-84260925D01*
X68122414Y-84309000D01*
X67875986Y-84309000D01*
X67634297Y-84260925D01*
X67406631Y-84166623D01*
X67406630Y-84166623D01*
X67406629Y-84166622D01*
X67201734Y-84029715D01*
X67027485Y-83855466D01*
X66890578Y-83650571D01*
X66808245Y-83451800D01*
X66796275Y-83422903D01*
X66748200Y-83181214D01*
X66748200Y-82934786D01*
X66796275Y-82693097D01*
X66890577Y-82465431D01*
X66959451Y-82362354D01*
X67027485Y-82260534D01*
X67201734Y-82086285D01*
X67406629Y-81949378D01*
X67429789Y-81939785D01*
X67634297Y-81855075D01*
X67875986Y-81807000D01*
X68122414Y-81807000D01*
X68364103Y-81855075D01*
G37*
G36*
X58350200Y-84309000D02*
G01*
X55848200Y-84309000D01*
X55848200Y-81807000D01*
X58350200Y-81807000D01*
X58350200Y-84309000D01*
G37*
G36*
X82747428Y-81782503D02*
G01*
X82902300Y-81846653D01*
X83041681Y-81939785D01*
X83160215Y-82058319D01*
X83253347Y-82197700D01*
X83317497Y-82352572D01*
X83350200Y-82516984D01*
X83350200Y-82684616D01*
X83317497Y-82849028D01*
X83253347Y-83003900D01*
X83160215Y-83143281D01*
X83041681Y-83261815D01*
X82902300Y-83354947D01*
X82747428Y-83419097D01*
X82583016Y-83451800D01*
X82415384Y-83451800D01*
X82250972Y-83419097D01*
X82096100Y-83354947D01*
X81956719Y-83261815D01*
X81838185Y-83143281D01*
X81745053Y-83003900D01*
X81680903Y-82849028D01*
X81648200Y-82684616D01*
X81648200Y-82516984D01*
X81680903Y-82352572D01*
X81745053Y-82197700D01*
X81838185Y-82058319D01*
X81956719Y-81939785D01*
X82096100Y-81846653D01*
X82250972Y-81782503D01*
X82415384Y-81749800D01*
X82583016Y-81749800D01*
X82747428Y-81782503D01*
G37*
G36*
X90367428Y-81782503D02*
G01*
X90522300Y-81846653D01*
X90661681Y-81939785D01*
X90780215Y-82058319D01*
X90873347Y-82197700D01*
X90937497Y-82352572D01*
X90970200Y-82516984D01*
X90970200Y-82684616D01*
X90937497Y-82849028D01*
X90873347Y-83003900D01*
X90780215Y-83143281D01*
X90661681Y-83261815D01*
X90522300Y-83354947D01*
X90367428Y-83419097D01*
X90203016Y-83451800D01*
X90035384Y-83451800D01*
X89870972Y-83419097D01*
X89716100Y-83354947D01*
X89576719Y-83261815D01*
X89458185Y-83143281D01*
X89365053Y-83003900D01*
X89300903Y-82849028D01*
X89268200Y-82684616D01*
X89268200Y-82516984D01*
X89300903Y-82352572D01*
X89365053Y-82197700D01*
X89458185Y-82058319D01*
X89576719Y-81939785D01*
X89716100Y-81846653D01*
X89870972Y-81782503D01*
X90035384Y-81749800D01*
X90203016Y-81749800D01*
X90367428Y-81782503D01*
G37*
G36*
X97862789Y-81522876D02*
G01*
X97962093Y-81542629D01*
X98102406Y-81600748D01*
X98228684Y-81685125D01*
X98336075Y-81792516D01*
X98420452Y-81918794D01*
X98478571Y-82059107D01*
X98478571Y-82059109D01*
X98508200Y-82208062D01*
X98508200Y-82359938D01*
X98507719Y-82362354D01*
X98478571Y-82508893D01*
X98420452Y-82649206D01*
X98336075Y-82775484D01*
X98228684Y-82882875D01*
X98102406Y-82967252D01*
X97962093Y-83025371D01*
X97862789Y-83045124D01*
X97813138Y-83055000D01*
X97661262Y-83055000D01*
X97611611Y-83045124D01*
X97512307Y-83025371D01*
X97371994Y-82967252D01*
X97245716Y-82882875D01*
X97138325Y-82775484D01*
X97053948Y-82649206D01*
X96995829Y-82508893D01*
X96966681Y-82362354D01*
X96966200Y-82359938D01*
X96966200Y-82208062D01*
X96995829Y-82059109D01*
X96995829Y-82059107D01*
X97053948Y-81918794D01*
X97138325Y-81792516D01*
X97245716Y-81685125D01*
X97371994Y-81600748D01*
X97512307Y-81542629D01*
X97611611Y-81522876D01*
X97661262Y-81513000D01*
X97813138Y-81513000D01*
X97862789Y-81522876D01*
G37*
G36*
X100402789Y-81522876D02*
G01*
X100502093Y-81542629D01*
X100642406Y-81600748D01*
X100768684Y-81685125D01*
X100876075Y-81792516D01*
X100960452Y-81918794D01*
X101018571Y-82059107D01*
X101018571Y-82059109D01*
X101048200Y-82208062D01*
X101048200Y-82359938D01*
X101047719Y-82362354D01*
X101018571Y-82508893D01*
X100960452Y-82649206D01*
X100876075Y-82775484D01*
X100768684Y-82882875D01*
X100642406Y-82967252D01*
X100502093Y-83025371D01*
X100402789Y-83045124D01*
X100353138Y-83055000D01*
X100201262Y-83055000D01*
X100151611Y-83045124D01*
X100052307Y-83025371D01*
X99911994Y-82967252D01*
X99785716Y-82882875D01*
X99678325Y-82775484D01*
X99593948Y-82649206D01*
X99535829Y-82508893D01*
X99506681Y-82362354D01*
X99506200Y-82359938D01*
X99506200Y-82208062D01*
X99535829Y-82059109D01*
X99535829Y-82059107D01*
X99593948Y-81918794D01*
X99678325Y-81792516D01*
X99785716Y-81685125D01*
X99911994Y-81600748D01*
X100052307Y-81542629D01*
X100151611Y-81522876D01*
X100201262Y-81513000D01*
X100353138Y-81513000D01*
X100402789Y-81522876D01*
G37*
G36*
X95322789Y-81522876D02*
G01*
X95422093Y-81542629D01*
X95562406Y-81600748D01*
X95688684Y-81685125D01*
X95796075Y-81792516D01*
X95880452Y-81918794D01*
X95938571Y-82059107D01*
X95938571Y-82059109D01*
X95968200Y-82208062D01*
X95968200Y-82359938D01*
X95967719Y-82362354D01*
X95938571Y-82508893D01*
X95880452Y-82649206D01*
X95796075Y-82775484D01*
X95688684Y-82882875D01*
X95562406Y-82967252D01*
X95422093Y-83025371D01*
X95322789Y-83045124D01*
X95273138Y-83055000D01*
X95121262Y-83055000D01*
X95071611Y-83045124D01*
X94972307Y-83025371D01*
X94831994Y-82967252D01*
X94705716Y-82882875D01*
X94598325Y-82775484D01*
X94513948Y-82649206D01*
X94455829Y-82508893D01*
X94426681Y-82362354D01*
X94426200Y-82359938D01*
X94426200Y-82208062D01*
X94455829Y-82059109D01*
X94455829Y-82059107D01*
X94513948Y-81918794D01*
X94598325Y-81792516D01*
X94705716Y-81685125D01*
X94831994Y-81600748D01*
X94972307Y-81542629D01*
X95071611Y-81522876D01*
X95121262Y-81513000D01*
X95273138Y-81513000D01*
X95322789Y-81522876D01*
G37*
G36*
X118426712Y-80891927D02*
G01*
X118576012Y-80921624D01*
X118739984Y-80989544D01*
X118887554Y-81088147D01*
X119013053Y-81213646D01*
X119111656Y-81361216D01*
X119179576Y-81525188D01*
X119214200Y-81699259D01*
X119214200Y-81876741D01*
X119179576Y-82050812D01*
X119111656Y-82214784D01*
X119013053Y-82362354D01*
X118887554Y-82487853D01*
X118739984Y-82586456D01*
X118576012Y-82654376D01*
X118426712Y-82684073D01*
X118401942Y-82689000D01*
X118224458Y-82689000D01*
X118199688Y-82684073D01*
X118050388Y-82654376D01*
X117886416Y-82586456D01*
X117738846Y-82487853D01*
X117613347Y-82362354D01*
X117514744Y-82214784D01*
X117446824Y-82050812D01*
X117412200Y-81876741D01*
X117412200Y-81699259D01*
X117446824Y-81525188D01*
X117514744Y-81361216D01*
X117613347Y-81213646D01*
X117738846Y-81088147D01*
X117886416Y-80989544D01*
X118050388Y-80921624D01*
X118199688Y-80891927D01*
X118224458Y-80887000D01*
X118401942Y-80887000D01*
X118426712Y-80891927D01*
G37*
G36*
X49560200Y-82525000D02*
G01*
X46858200Y-82525000D01*
X46858200Y-79823000D01*
X49560200Y-79823000D01*
X49560200Y-82525000D01*
G37*
G36*
X82747428Y-79242503D02*
G01*
X82902300Y-79306653D01*
X83041681Y-79399785D01*
X83160215Y-79518319D01*
X83253347Y-79657700D01*
X83317497Y-79812572D01*
X83350200Y-79976984D01*
X83350200Y-80144616D01*
X83317497Y-80309028D01*
X83253347Y-80463900D01*
X83160215Y-80603281D01*
X83041681Y-80721815D01*
X82902300Y-80814947D01*
X82747428Y-80879097D01*
X82583016Y-80911800D01*
X82415384Y-80911800D01*
X82250972Y-80879097D01*
X82096100Y-80814947D01*
X81956719Y-80721815D01*
X81838185Y-80603281D01*
X81745053Y-80463900D01*
X81680903Y-80309028D01*
X81648200Y-80144616D01*
X81648200Y-79976984D01*
X81680903Y-79812572D01*
X81745053Y-79657700D01*
X81838185Y-79518319D01*
X81956719Y-79399785D01*
X82096100Y-79306653D01*
X82250972Y-79242503D01*
X82415384Y-79209800D01*
X82583016Y-79209800D01*
X82747428Y-79242503D01*
G37*
G36*
X90367428Y-79242503D02*
G01*
X90522300Y-79306653D01*
X90661681Y-79399785D01*
X90780215Y-79518319D01*
X90873347Y-79657700D01*
X90937497Y-79812572D01*
X90970200Y-79976984D01*
X90970200Y-80144616D01*
X90937497Y-80309028D01*
X90873347Y-80463900D01*
X90780215Y-80603281D01*
X90661681Y-80721815D01*
X90522300Y-80814947D01*
X90367428Y-80879097D01*
X90203016Y-80911800D01*
X90035384Y-80911800D01*
X89870972Y-80879097D01*
X89716100Y-80814947D01*
X89576719Y-80721815D01*
X89458185Y-80603281D01*
X89365053Y-80463900D01*
X89300903Y-80309028D01*
X89268200Y-80144616D01*
X89268200Y-79976984D01*
X89300903Y-79812572D01*
X89365053Y-79657700D01*
X89458185Y-79518319D01*
X89576719Y-79399785D01*
X89716100Y-79306653D01*
X89870972Y-79242503D01*
X90035384Y-79209800D01*
X90203016Y-79209800D01*
X90367428Y-79242503D01*
G37*
G36*
X83350200Y-78371800D02*
G01*
X81648200Y-78371800D01*
X81648200Y-76669800D01*
X83350200Y-76669800D01*
X83350200Y-78371800D01*
G37*
G36*
X90367428Y-76702503D02*
G01*
X90522300Y-76766653D01*
X90661681Y-76859785D01*
X90780215Y-76978319D01*
X90873347Y-77117700D01*
X90937497Y-77272572D01*
X90970200Y-77436984D01*
X90970200Y-77604616D01*
X90937497Y-77769028D01*
X90873347Y-77923900D01*
X90780215Y-78063281D01*
X90661681Y-78181815D01*
X90522300Y-78274947D01*
X90367428Y-78339097D01*
X90203016Y-78371800D01*
X90035384Y-78371800D01*
X89870972Y-78339097D01*
X89716100Y-78274947D01*
X89576719Y-78181815D01*
X89458185Y-78063281D01*
X89365053Y-77923900D01*
X89300903Y-77769028D01*
X89268200Y-77604616D01*
X89268200Y-77436984D01*
X89300903Y-77272572D01*
X89365053Y-77117700D01*
X89458185Y-76978319D01*
X89576719Y-76859785D01*
X89716100Y-76766653D01*
X89870972Y-76702503D01*
X90035384Y-76669800D01*
X90203016Y-76669800D01*
X90367428Y-76702503D01*
G37*
G36*
X118648200Y-76789000D02*
G01*
X115946200Y-76789000D01*
X115946200Y-74087000D01*
X118648200Y-74087000D01*
X118648200Y-76789000D01*
G37*
G36*
X96834103Y-73727075D02*
G01*
X97061771Y-73821378D01*
X97266666Y-73958285D01*
X97440915Y-74132534D01*
X97500893Y-74222297D01*
X97577823Y-74337431D01*
X97672125Y-74565097D01*
X97720200Y-74806786D01*
X97720200Y-75053214D01*
X97672125Y-75294903D01*
X97577822Y-75522571D01*
X97440915Y-75727466D01*
X97266666Y-75901715D01*
X97061771Y-76038622D01*
X97061770Y-76038623D01*
X97061769Y-76038623D01*
X96834103Y-76132925D01*
X96592414Y-76181000D01*
X96345986Y-76181000D01*
X96104297Y-76132925D01*
X95876631Y-76038623D01*
X95876630Y-76038623D01*
X95876629Y-76038622D01*
X95671734Y-75901715D01*
X95497485Y-75727466D01*
X95360578Y-75522571D01*
X95266275Y-75294903D01*
X95218200Y-75053214D01*
X95218200Y-74806786D01*
X95266275Y-74565097D01*
X95360577Y-74337431D01*
X95437507Y-74222297D01*
X95497485Y-74132534D01*
X95671734Y-73958285D01*
X95876629Y-73821378D01*
X96104297Y-73727075D01*
X96345986Y-73679000D01*
X96592414Y-73679000D01*
X96834103Y-73727075D01*
G37*
G36*
X76136344Y-72861519D02*
G01*
X76303857Y-72894839D01*
X76409467Y-72938585D01*
X76558821Y-73000449D01*
X76559500Y-73000903D01*
X76788286Y-73153772D01*
X76983428Y-73348914D01*
X77076238Y-73487815D01*
X77136751Y-73578379D01*
X77198343Y-73727075D01*
X77231491Y-73807100D01*
X77242361Y-73833344D01*
X77296200Y-74104012D01*
X77296200Y-74379988D01*
X77242361Y-74650656D01*
X77136751Y-74905621D01*
X77125708Y-74922148D01*
X76983428Y-75135086D01*
X76788286Y-75330228D01*
X76634963Y-75432675D01*
X76558821Y-75483551D01*
X76464623Y-75522569D01*
X76303857Y-75589161D01*
X76213633Y-75607107D01*
X76033188Y-75643000D01*
X75757212Y-75643000D01*
X75576767Y-75607107D01*
X75486543Y-75589161D01*
X75325777Y-75522569D01*
X75231579Y-75483551D01*
X75155437Y-75432675D01*
X75002114Y-75330228D01*
X74806972Y-75135086D01*
X74664692Y-74922148D01*
X74653649Y-74905621D01*
X74548039Y-74650656D01*
X74494200Y-74379988D01*
X74494200Y-74104012D01*
X74548039Y-73833344D01*
X74558910Y-73807100D01*
X74592057Y-73727075D01*
X74653649Y-73578379D01*
X74714162Y-73487815D01*
X74806972Y-73348914D01*
X75002114Y-73153772D01*
X75230900Y-73000903D01*
X75231579Y-73000449D01*
X75380933Y-72938585D01*
X75486543Y-72894839D01*
X75654056Y-72861519D01*
X75757212Y-72841000D01*
X76033188Y-72841000D01*
X76136344Y-72861519D01*
G37*
G36*
X105353428Y-73349703D02*
G01*
X105508300Y-73413853D01*
X105647681Y-73506985D01*
X105766215Y-73625519D01*
X105859347Y-73764900D01*
X105923497Y-73919772D01*
X105956200Y-74084184D01*
X105956200Y-74251816D01*
X105923497Y-74416228D01*
X105859347Y-74571100D01*
X105766215Y-74710481D01*
X105647681Y-74829015D01*
X105508300Y-74922147D01*
X105353428Y-74986297D01*
X105189016Y-75019000D01*
X105021384Y-75019000D01*
X104856972Y-74986297D01*
X104702100Y-74922147D01*
X104562719Y-74829015D01*
X104444185Y-74710481D01*
X104351053Y-74571100D01*
X104286903Y-74416228D01*
X104254200Y-74251816D01*
X104254200Y-74084184D01*
X104286903Y-73919772D01*
X104351053Y-73764900D01*
X104444185Y-73625519D01*
X104562719Y-73506985D01*
X104702100Y-73413853D01*
X104856972Y-73349703D01*
X105021384Y-73317000D01*
X105189016Y-73317000D01*
X105353428Y-73349703D01*
G37*
G36*
X82747428Y-72585703D02*
G01*
X82902300Y-72649853D01*
X83041681Y-72742985D01*
X83160215Y-72861519D01*
X83253347Y-73000900D01*
X83317497Y-73155772D01*
X83350200Y-73320184D01*
X83350200Y-73487816D01*
X83317497Y-73652228D01*
X83253347Y-73807100D01*
X83160215Y-73946481D01*
X83041681Y-74065015D01*
X82902300Y-74158147D01*
X82747428Y-74222297D01*
X82583016Y-74255000D01*
X82415384Y-74255000D01*
X82250972Y-74222297D01*
X82096100Y-74158147D01*
X81956719Y-74065015D01*
X81838185Y-73946481D01*
X81745053Y-73807100D01*
X81680903Y-73652228D01*
X81648200Y-73487816D01*
X81648200Y-73320184D01*
X81680903Y-73155772D01*
X81745053Y-73000900D01*
X81838185Y-72861519D01*
X81956719Y-72742985D01*
X82096100Y-72649853D01*
X82250972Y-72585703D01*
X82415384Y-72553000D01*
X82583016Y-72553000D01*
X82747428Y-72585703D01*
G37*
G36*
X90367428Y-72585703D02*
G01*
X90522300Y-72649853D01*
X90661681Y-72742985D01*
X90780215Y-72861519D01*
X90873347Y-73000900D01*
X90937497Y-73155772D01*
X90970200Y-73320184D01*
X90970200Y-73487816D01*
X90937497Y-73652228D01*
X90873347Y-73807100D01*
X90780215Y-73946481D01*
X90661681Y-74065015D01*
X90522300Y-74158147D01*
X90367428Y-74222297D01*
X90203016Y-74255000D01*
X90035384Y-74255000D01*
X89870972Y-74222297D01*
X89716100Y-74158147D01*
X89576719Y-74065015D01*
X89458185Y-73946481D01*
X89365053Y-73807100D01*
X89300903Y-73652228D01*
X89268200Y-73487816D01*
X89268200Y-73320184D01*
X89300903Y-73155772D01*
X89365053Y-73000900D01*
X89458185Y-72861519D01*
X89576719Y-72742985D01*
X89716100Y-72649853D01*
X89870972Y-72585703D01*
X90035384Y-72553000D01*
X90203016Y-72553000D01*
X90367428Y-72585703D01*
G37*
G36*
X117664129Y-69053519D02*
G01*
X117691272Y-69058918D01*
X117937139Y-69160759D01*
X118048528Y-69235187D01*
X118158411Y-69308609D01*
X118346591Y-69496789D01*
X118420013Y-69606672D01*
X118468886Y-69679815D01*
X118494442Y-69718063D01*
X118596282Y-69963928D01*
X118648200Y-70224937D01*
X118648200Y-70491063D01*
X118596282Y-70752072D01*
X118494442Y-70997937D01*
X118346591Y-71219211D01*
X118158411Y-71407391D01*
X118048528Y-71480813D01*
X117937139Y-71555241D01*
X117937138Y-71555242D01*
X117937137Y-71555242D01*
X117691272Y-71657082D01*
X117430263Y-71709000D01*
X117164137Y-71709000D01*
X116903128Y-71657082D01*
X116657263Y-71555242D01*
X116657262Y-71555242D01*
X116657261Y-71555241D01*
X116545872Y-71480813D01*
X116435989Y-71407391D01*
X116247809Y-71219211D01*
X116099958Y-70997937D01*
X115998118Y-70752072D01*
X115946200Y-70491063D01*
X115946200Y-70224937D01*
X115998118Y-69963928D01*
X116099958Y-69718063D01*
X116125515Y-69679815D01*
X116174387Y-69606672D01*
X116247809Y-69496789D01*
X116435989Y-69308609D01*
X116545872Y-69235187D01*
X116657261Y-69160759D01*
X116903128Y-69058918D01*
X116930271Y-69053519D01*
X117164137Y-69007000D01*
X117430263Y-69007000D01*
X117664129Y-69053519D01*
G37*
G36*
X105353428Y-69849703D02*
G01*
X105508300Y-69913853D01*
X105647681Y-70006985D01*
X105766215Y-70125519D01*
X105859347Y-70264900D01*
X105923497Y-70419772D01*
X105956200Y-70584184D01*
X105956200Y-70751816D01*
X105923497Y-70916228D01*
X105859347Y-71071100D01*
X105766215Y-71210481D01*
X105647681Y-71329015D01*
X105508300Y-71422147D01*
X105353428Y-71486297D01*
X105189016Y-71519000D01*
X105021384Y-71519000D01*
X104856972Y-71486297D01*
X104702100Y-71422147D01*
X104562719Y-71329015D01*
X104444185Y-71210481D01*
X104351053Y-71071100D01*
X104286903Y-70916228D01*
X104254200Y-70751816D01*
X104254200Y-70584184D01*
X104286903Y-70419772D01*
X104351053Y-70264900D01*
X104444185Y-70125519D01*
X104562719Y-70006985D01*
X104702100Y-69913853D01*
X104856972Y-69849703D01*
X105021384Y-69817000D01*
X105189016Y-69817000D01*
X105353428Y-69849703D01*
G37*
G36*
X96834103Y-68647075D02*
G01*
X97061771Y-68741378D01*
X97266666Y-68878285D01*
X97440915Y-69052534D01*
X97513228Y-69160758D01*
X97577823Y-69257431D01*
X97672125Y-69485097D01*
X97720200Y-69726786D01*
X97720200Y-69973214D01*
X97672125Y-70214903D01*
X97589534Y-70414297D01*
X97577822Y-70442571D01*
X97440915Y-70647466D01*
X97266666Y-70821715D01*
X97061771Y-70958622D01*
X97061770Y-70958623D01*
X97061769Y-70958623D01*
X96834103Y-71052925D01*
X96592414Y-71101000D01*
X96345986Y-71101000D01*
X96104297Y-71052925D01*
X95876631Y-70958623D01*
X95876630Y-70958623D01*
X95876629Y-70958622D01*
X95671734Y-70821715D01*
X95497485Y-70647466D01*
X95360578Y-70442571D01*
X95348867Y-70414297D01*
X95266275Y-70214903D01*
X95218200Y-69973214D01*
X95218200Y-69726786D01*
X95266275Y-69485097D01*
X95360577Y-69257431D01*
X95425172Y-69160758D01*
X95497485Y-69052534D01*
X95671734Y-68878285D01*
X95876629Y-68741378D01*
X96104297Y-68647075D01*
X96345986Y-68599000D01*
X96592414Y-68599000D01*
X96834103Y-68647075D01*
G37*
G36*
X63889764Y-68839389D02*
G01*
X64081033Y-68918615D01*
X64081035Y-68918616D01*
X64253173Y-69033635D01*
X64399565Y-69180027D01*
X64511649Y-69347772D01*
X64514585Y-69352167D01*
X64593811Y-69543436D01*
X64634200Y-69746484D01*
X64634200Y-69953516D01*
X64593811Y-70156564D01*
X64514585Y-70347833D01*
X64514584Y-70347835D01*
X64399565Y-70519973D01*
X64253173Y-70666365D01*
X64081035Y-70781384D01*
X64081034Y-70781385D01*
X64081033Y-70781385D01*
X63889764Y-70860611D01*
X63686716Y-70901000D01*
X63479684Y-70901000D01*
X63276636Y-70860611D01*
X63085367Y-70781385D01*
X63085366Y-70781385D01*
X63085365Y-70781384D01*
X62913227Y-70666365D01*
X62766835Y-70519973D01*
X62651816Y-70347835D01*
X62651815Y-70347833D01*
X62572589Y-70156564D01*
X62532200Y-69953516D01*
X62532200Y-69746484D01*
X62572589Y-69543436D01*
X62651815Y-69352167D01*
X62654752Y-69347772D01*
X62766835Y-69180027D01*
X62913227Y-69033635D01*
X63085365Y-68918616D01*
X63085367Y-68918615D01*
X63276636Y-68839389D01*
X63479684Y-68799000D01*
X63686716Y-68799000D01*
X63889764Y-68839389D01*
G37*
G36*
X56389764Y-68839389D02*
G01*
X56581033Y-68918615D01*
X56581035Y-68918616D01*
X56753173Y-69033635D01*
X56899565Y-69180027D01*
X57011649Y-69347772D01*
X57014585Y-69352167D01*
X57093811Y-69543436D01*
X57134200Y-69746484D01*
X57134200Y-69953516D01*
X57093811Y-70156564D01*
X57014585Y-70347833D01*
X57014584Y-70347835D01*
X56899565Y-70519973D01*
X56753173Y-70666365D01*
X56581035Y-70781384D01*
X56581034Y-70781385D01*
X56581033Y-70781385D01*
X56389764Y-70860611D01*
X56186716Y-70901000D01*
X55979684Y-70901000D01*
X55776636Y-70860611D01*
X55585367Y-70781385D01*
X55585366Y-70781385D01*
X55585365Y-70781384D01*
X55413227Y-70666365D01*
X55266835Y-70519973D01*
X55151816Y-70347835D01*
X55151815Y-70347833D01*
X55072589Y-70156564D01*
X55032200Y-69953516D01*
X55032200Y-69746484D01*
X55072589Y-69543436D01*
X55151815Y-69352167D01*
X55154752Y-69347772D01*
X55266835Y-69180027D01*
X55413227Y-69033635D01*
X55585365Y-68918616D01*
X55585367Y-68918615D01*
X55776636Y-68839389D01*
X55979684Y-68799000D01*
X56186716Y-68799000D01*
X56389764Y-68839389D01*
G37*
G36*
X90367428Y-68777703D02*
G01*
X90522300Y-68841853D01*
X90661681Y-68934985D01*
X90780215Y-69053519D01*
X90873347Y-69192900D01*
X90937497Y-69347772D01*
X90970200Y-69512184D01*
X90970200Y-69679816D01*
X90937497Y-69844228D01*
X90873347Y-69999100D01*
X90780215Y-70138481D01*
X90661681Y-70257015D01*
X90522300Y-70350147D01*
X90367428Y-70414297D01*
X90203016Y-70447000D01*
X90035384Y-70447000D01*
X89870972Y-70414297D01*
X89716100Y-70350147D01*
X89576719Y-70257015D01*
X89458185Y-70138481D01*
X89365053Y-69999100D01*
X89300903Y-69844228D01*
X89268200Y-69679816D01*
X89268200Y-69512184D01*
X89300903Y-69347772D01*
X89365053Y-69192900D01*
X89458185Y-69053519D01*
X89576719Y-68934985D01*
X89716100Y-68841853D01*
X89870972Y-68777703D01*
X90035384Y-68745000D01*
X90203016Y-68745000D01*
X90367428Y-68777703D01*
G37*
G36*
X82747428Y-68777703D02*
G01*
X82902300Y-68841853D01*
X83041681Y-68934985D01*
X83160215Y-69053519D01*
X83253347Y-69192900D01*
X83317497Y-69347772D01*
X83350200Y-69512184D01*
X83350200Y-69679816D01*
X83317497Y-69844228D01*
X83253347Y-69999100D01*
X83160215Y-70138481D01*
X83041681Y-70257015D01*
X82902300Y-70350147D01*
X82747428Y-70414297D01*
X82583016Y-70447000D01*
X82415384Y-70447000D01*
X82250972Y-70414297D01*
X82096100Y-70350147D01*
X81956719Y-70257015D01*
X81838185Y-70138481D01*
X81745053Y-69999100D01*
X81680903Y-69844228D01*
X81648200Y-69679816D01*
X81648200Y-69512184D01*
X81680903Y-69347772D01*
X81745053Y-69192900D01*
X81838185Y-69053519D01*
X81956719Y-68934985D01*
X82096100Y-68841853D01*
X82250972Y-68777703D01*
X82415384Y-68745000D01*
X82583016Y-68745000D01*
X82747428Y-68777703D01*
G37*
G36*
X85483090Y-63890017D02*
G01*
X85601564Y-63939091D01*
X85708188Y-64010335D01*
X85798865Y-64101012D01*
X85870109Y-64207636D01*
X85919183Y-64326110D01*
X85944200Y-64451882D01*
X85944200Y-64580118D01*
X85919183Y-64705890D01*
X85870109Y-64824364D01*
X85798865Y-64930988D01*
X85708188Y-65021665D01*
X85601564Y-65092909D01*
X85601563Y-65092910D01*
X85601562Y-65092910D01*
X85483090Y-65141983D01*
X85357319Y-65167000D01*
X85229081Y-65167000D01*
X85103310Y-65141983D01*
X84984838Y-65092910D01*
X84984837Y-65092910D01*
X84984836Y-65092909D01*
X84878212Y-65021665D01*
X84787535Y-64930988D01*
X84716291Y-64824364D01*
X84667217Y-64705890D01*
X84642200Y-64580118D01*
X84642200Y-64451882D01*
X84667217Y-64326110D01*
X84716291Y-64207636D01*
X84787535Y-64101012D01*
X84878212Y-64010335D01*
X84984836Y-63939091D01*
X85103310Y-63890017D01*
X85229081Y-63865000D01*
X85357319Y-63865000D01*
X85483090Y-63890017D01*
G37*
G36*
X87483090Y-63890017D02*
G01*
X87601564Y-63939091D01*
X87708188Y-64010335D01*
X87798865Y-64101012D01*
X87870109Y-64207636D01*
X87919183Y-64326110D01*
X87944200Y-64451882D01*
X87944200Y-64580118D01*
X87919183Y-64705890D01*
X87870109Y-64824364D01*
X87798865Y-64930988D01*
X87708188Y-65021665D01*
X87601564Y-65092909D01*
X87601563Y-65092910D01*
X87601562Y-65092910D01*
X87483090Y-65141983D01*
X87357319Y-65167000D01*
X87229081Y-65167000D01*
X87103310Y-65141983D01*
X86984838Y-65092910D01*
X86984837Y-65092910D01*
X86984836Y-65092909D01*
X86878212Y-65021665D01*
X86787535Y-64930988D01*
X86716291Y-64824364D01*
X86667217Y-64705890D01*
X86642200Y-64580118D01*
X86642200Y-64451882D01*
X86667217Y-64326110D01*
X86716291Y-64207636D01*
X86787535Y-64101012D01*
X86878212Y-64010335D01*
X86984836Y-63939091D01*
X87103310Y-63890017D01*
X87229081Y-63865000D01*
X87357319Y-63865000D01*
X87483090Y-63890017D01*
G37*
G36*
X108016239Y-60455825D02*
G01*
X108261479Y-60530218D01*
X108487493Y-60651025D01*
X108685596Y-60813604D01*
X108848175Y-61011706D01*
X108968982Y-61237720D01*
X109043375Y-61482960D01*
X109043375Y-61482961D01*
X109062200Y-61674094D01*
X109062200Y-63801906D01*
X109058153Y-63843000D01*
X109043375Y-63993040D01*
X108968982Y-64238280D01*
X108848175Y-64464294D01*
X108832498Y-64483396D01*
X108685597Y-64662397D01*
X108539099Y-64782624D01*
X108487494Y-64824975D01*
X108261480Y-64945782D01*
X108016240Y-65020175D01*
X107761200Y-65045294D01*
X107506161Y-65020175D01*
X107260921Y-64945782D01*
X107034907Y-64824975D01*
X106983302Y-64782624D01*
X106836804Y-64662397D01*
X106689903Y-64483396D01*
X106674226Y-64464294D01*
X106553419Y-64238280D01*
X106479026Y-63993040D01*
X106464248Y-63843000D01*
X106460201Y-63801906D01*
X106460200Y-61674095D01*
X106479025Y-61482962D01*
X106479025Y-61482961D01*
X106553418Y-61237721D01*
X106674225Y-61011707D01*
X106836804Y-60813604D01*
X107034906Y-60651025D01*
X107034905Y-60651025D01*
X107034907Y-60651024D01*
X107260918Y-60530219D01*
X107260920Y-60530218D01*
X107506160Y-60455825D01*
X107761200Y-60430706D01*
X108016239Y-60455825D01*
G37*
G36*
X113466239Y-60455825D02*
G01*
X113711479Y-60530218D01*
X113937493Y-60651025D01*
X114135596Y-60813604D01*
X114298175Y-61011706D01*
X114418982Y-61237720D01*
X114493375Y-61482960D01*
X114493375Y-61482961D01*
X114512200Y-61674094D01*
X114512200Y-63801906D01*
X114508153Y-63843000D01*
X114493375Y-63993040D01*
X114418982Y-64238280D01*
X114298175Y-64464294D01*
X114282498Y-64483396D01*
X114135597Y-64662397D01*
X113989099Y-64782624D01*
X113937494Y-64824975D01*
X113711480Y-64945782D01*
X113466240Y-65020175D01*
X113211200Y-65045294D01*
X112956161Y-65020175D01*
X112710921Y-64945782D01*
X112484907Y-64824975D01*
X112433302Y-64782624D01*
X112286804Y-64662397D01*
X112139903Y-64483396D01*
X112124226Y-64464294D01*
X112003419Y-64238280D01*
X111929026Y-63993040D01*
X111914248Y-63843000D01*
X111910201Y-63801906D01*
X111910200Y-61674095D01*
X111929025Y-61482962D01*
X111929025Y-61482961D01*
X112003418Y-61237721D01*
X112124225Y-61011707D01*
X112286804Y-60813604D01*
X112484906Y-60651025D01*
X112484905Y-60651025D01*
X112484907Y-60651024D01*
X112710918Y-60530219D01*
X112710920Y-60530218D01*
X112956160Y-60455825D01*
X113211200Y-60430706D01*
X113466239Y-60455825D01*
G37*
G36*
X103612200Y-65039000D02*
G01*
X101010200Y-65039000D01*
X101010200Y-60437000D01*
X103612200Y-60437000D01*
X103612200Y-65039000D01*
G37*
G36*
X76197785Y-61470802D02*
G01*
X76347610Y-61500604D01*
X76629874Y-61617521D01*
X76883905Y-61787259D01*
X77099941Y-62003295D01*
X77269679Y-62257326D01*
X77386596Y-62539590D01*
X77446200Y-62839240D01*
X77446200Y-63144760D01*
X77386596Y-63444410D01*
X77269679Y-63726674D01*
X77099941Y-63980705D01*
X76883905Y-64196741D01*
X76629874Y-64366479D01*
X76347610Y-64483396D01*
X76197785Y-64513198D01*
X76047961Y-64543000D01*
X75742439Y-64543000D01*
X75592615Y-64513198D01*
X75442790Y-64483396D01*
X75160526Y-64366479D01*
X74906495Y-64196741D01*
X74690459Y-63980705D01*
X74520721Y-63726674D01*
X74403804Y-63444410D01*
X74344200Y-63144760D01*
X74344200Y-62839240D01*
X74403804Y-62539590D01*
X74520721Y-62257326D01*
X74690459Y-62003295D01*
X74906495Y-61787259D01*
X75160526Y-61617521D01*
X75442790Y-61500604D01*
X75592615Y-61470802D01*
X75742439Y-61441000D01*
X76047961Y-61441000D01*
X76197785Y-61470802D01*
G37*
G36*
X91129428Y-62173703D02*
G01*
X91284300Y-62237853D01*
X91423681Y-62330985D01*
X91542215Y-62449519D01*
X91635347Y-62588900D01*
X91699497Y-62743772D01*
X91732200Y-62908184D01*
X91732200Y-63075816D01*
X91699497Y-63240228D01*
X91635347Y-63395100D01*
X91542215Y-63534481D01*
X91423681Y-63653015D01*
X91284300Y-63746147D01*
X91129428Y-63810297D01*
X90965016Y-63843000D01*
X90797384Y-63843000D01*
X90632972Y-63810297D01*
X90478100Y-63746147D01*
X90338719Y-63653015D01*
X90220185Y-63534481D01*
X90127053Y-63395100D01*
X90062903Y-63240228D01*
X90030200Y-63075816D01*
X90030200Y-62908184D01*
X90062903Y-62743772D01*
X90127053Y-62588900D01*
X90220185Y-62449519D01*
X90338719Y-62330985D01*
X90478100Y-62237853D01*
X90632972Y-62173703D01*
X90797384Y-62141000D01*
X90965016Y-62141000D01*
X91129428Y-62173703D01*
G37*
G36*
X98749428Y-62173703D02*
G01*
X98904300Y-62237853D01*
X99043681Y-62330985D01*
X99162215Y-62449519D01*
X99255347Y-62588900D01*
X99319497Y-62743772D01*
X99352200Y-62908184D01*
X99352200Y-63075816D01*
X99319497Y-63240228D01*
X99255347Y-63395100D01*
X99162215Y-63534481D01*
X99043681Y-63653015D01*
X98904300Y-63746147D01*
X98749428Y-63810297D01*
X98585016Y-63843000D01*
X98417384Y-63843000D01*
X98252972Y-63810297D01*
X98098100Y-63746147D01*
X97958719Y-63653015D01*
X97840185Y-63534481D01*
X97747053Y-63395100D01*
X97682903Y-63240228D01*
X97650200Y-63075816D01*
X97650200Y-62908184D01*
X97682903Y-62743772D01*
X97747053Y-62588900D01*
X97840185Y-62449519D01*
X97958719Y-62330985D01*
X98098100Y-62237853D01*
X98252972Y-62173703D01*
X98417384Y-62141000D01*
X98585016Y-62141000D01*
X98749428Y-62173703D01*
G37*
M02*
