G04 #@! TF.GenerationSoftware,KiCad,Pcbnew,5.1.6+dfsg1-1*
G04 #@! TF.CreationDate,2020-07-23T09:40:13+02:00*
G04 #@! TF.ProjectId,lownoise-pwr,6c6f776e-6f69-4736-952d-7077722e6b69,rev?*
G04 #@! TF.SameCoordinates,Original*
G04 #@! TF.FileFunction,Legend,Top*
G04 #@! TF.FilePolarity,Positive*
%FSLAX46Y46*%
G04 Gerber Fmt 4.6, Leading zero omitted, Abs format (unit mm)*
G04 Created by KiCad (PCBNEW 5.1.6+dfsg1-1) date 2020-07-23 09:40:13*
%MOMM*%
%LPD*%
G01*
G04 APERTURE LIST*
%ADD10C,0.100000*%
%ADD11C,0.200000*%
%ADD12C,0.150000*%
%ADD13C,0.120000*%
G04 APERTURE END LIST*
D10*
X110098057Y-93311285D02*
X110276628Y-93811285D01*
X110455200Y-93311285D01*
X111455200Y-93061285D02*
X111526628Y-93061285D01*
X111598057Y-93097000D01*
X111633771Y-93132714D01*
X111669485Y-93204142D01*
X111705200Y-93347000D01*
X111705200Y-93525571D01*
X111669485Y-93668428D01*
X111633771Y-93739857D01*
X111598057Y-93775571D01*
X111526628Y-93811285D01*
X111455200Y-93811285D01*
X111383771Y-93775571D01*
X111348057Y-93739857D01*
X111312342Y-93668428D01*
X111276628Y-93525571D01*
X111276628Y-93347000D01*
X111312342Y-93204142D01*
X111348057Y-93132714D01*
X111383771Y-93097000D01*
X111455200Y-93061285D01*
X112026628Y-93739857D02*
X112062342Y-93775571D01*
X112026628Y-93811285D01*
X111990914Y-93775571D01*
X112026628Y-93739857D01*
X112026628Y-93811285D01*
X112348057Y-93132714D02*
X112383771Y-93097000D01*
X112455200Y-93061285D01*
X112633771Y-93061285D01*
X112705200Y-93097000D01*
X112740914Y-93132714D01*
X112776628Y-93204142D01*
X112776628Y-93275571D01*
X112740914Y-93382714D01*
X112312342Y-93811285D01*
X112776628Y-93811285D01*
D11*
X112403771Y-66440857D02*
X112903771Y-66440857D01*
X113118057Y-67226571D02*
X112403771Y-67226571D01*
X112403771Y-65726571D01*
X113118057Y-65726571D01*
X107347485Y-66829714D02*
X107276057Y-66901142D01*
X107061771Y-66972571D01*
X106918914Y-66972571D01*
X106704628Y-66901142D01*
X106561771Y-66758285D01*
X106490342Y-66615428D01*
X106418914Y-66329714D01*
X106418914Y-66115428D01*
X106490342Y-65829714D01*
X106561771Y-65686857D01*
X106704628Y-65544000D01*
X106918914Y-65472571D01*
X107061771Y-65472571D01*
X107276057Y-65544000D01*
X107347485Y-65615428D01*
X102164342Y-66186857D02*
X102378628Y-66258285D01*
X102450057Y-66329714D01*
X102521485Y-66472571D01*
X102521485Y-66686857D01*
X102450057Y-66829714D01*
X102378628Y-66901142D01*
X102235771Y-66972571D01*
X101664342Y-66972571D01*
X101664342Y-65472571D01*
X102164342Y-65472571D01*
X102307200Y-65544000D01*
X102378628Y-65615428D01*
X102450057Y-65758285D01*
X102450057Y-65901142D01*
X102378628Y-66044000D01*
X102307200Y-66115428D01*
X102164342Y-66186857D01*
X101664342Y-66186857D01*
D10*
X117913104Y-85936648D02*
X117532152Y-86155696D01*
X117913104Y-86393791D02*
X117113104Y-86293791D01*
X117113104Y-85989029D01*
X117151200Y-85917601D01*
X117189295Y-85884267D01*
X117265485Y-85855696D01*
X117379771Y-85869982D01*
X117455961Y-85917601D01*
X117494057Y-85960458D01*
X117532152Y-86041410D01*
X117532152Y-86346172D01*
X117875009Y-85284267D02*
X117913104Y-85365220D01*
X117913104Y-85517601D01*
X117875009Y-85589029D01*
X117798819Y-85617601D01*
X117494057Y-85579505D01*
X117417866Y-85531886D01*
X117379771Y-85450934D01*
X117379771Y-85298553D01*
X117417866Y-85227125D01*
X117494057Y-85198553D01*
X117570247Y-85208077D01*
X117646438Y-85598553D01*
X117379771Y-84955696D02*
X117379771Y-84650934D01*
X117913104Y-84908077D02*
X117227390Y-84822363D01*
X117151200Y-84774744D01*
X117113104Y-84693791D01*
X117113104Y-84617601D01*
X117836914Y-84441410D02*
X117875009Y-84408077D01*
X117913104Y-84450934D01*
X117875009Y-84484267D01*
X117836914Y-84441410D01*
X117913104Y-84450934D01*
D12*
X120305580Y-85637523D02*
X121115104Y-85637523D01*
X121210342Y-85589904D01*
X121257961Y-85542285D01*
X121305580Y-85447047D01*
X121305580Y-85256571D01*
X121257961Y-85161333D01*
X121210342Y-85113714D01*
X121115104Y-85066095D01*
X120305580Y-85066095D01*
X121305580Y-84589904D02*
X120638914Y-84589904D01*
X120829390Y-84589904D02*
X120734152Y-84542285D01*
X120686533Y-84494666D01*
X120638914Y-84399428D01*
X120638914Y-84304190D01*
X121257961Y-83589904D02*
X121305580Y-83685142D01*
X121305580Y-83875619D01*
X121257961Y-83970857D01*
X121162723Y-84018476D01*
X120781771Y-84018476D01*
X120686533Y-83970857D01*
X120638914Y-83875619D01*
X120638914Y-83685142D01*
X120686533Y-83589904D01*
X120781771Y-83542285D01*
X120877009Y-83542285D01*
X120972247Y-84018476D01*
X120638914Y-83256571D02*
X120638914Y-82875619D01*
X121305580Y-83113714D02*
X120448438Y-83113714D01*
X120353200Y-83066095D01*
X120305580Y-82970857D01*
X120305580Y-82875619D01*
D10*
X97810342Y-96004000D02*
X97753200Y-95975428D01*
X97638914Y-95889714D01*
X97581771Y-95832571D01*
X97524628Y-95746857D01*
X97467485Y-95604000D01*
X97467485Y-95489714D01*
X97524628Y-95346857D01*
X97581771Y-95261142D01*
X97638914Y-95204000D01*
X97753200Y-95118285D01*
X97810342Y-95089714D01*
X98781771Y-95746857D02*
X98667485Y-95775428D01*
X98438914Y-95775428D01*
X98324628Y-95746857D01*
X98267485Y-95718285D01*
X98210342Y-95661142D01*
X98210342Y-95489714D01*
X98267485Y-95432571D01*
X98324628Y-95404000D01*
X98438914Y-95375428D01*
X98667485Y-95375428D01*
X98781771Y-95404000D01*
X99181771Y-96004000D02*
X99238914Y-95975428D01*
X99353200Y-95889714D01*
X99410342Y-95832571D01*
X99467485Y-95746857D01*
X99524628Y-95604000D01*
X99524628Y-95489714D01*
X99467485Y-95346857D01*
X99410342Y-95261142D01*
X99353200Y-95204000D01*
X99238914Y-95118285D01*
X99181771Y-95089714D01*
X100953200Y-95232571D02*
X101010342Y-95204000D01*
X101124628Y-95175428D01*
X101410342Y-95175428D01*
X101524628Y-95204000D01*
X101581771Y-95232571D01*
X101638914Y-95289714D01*
X101638914Y-95346857D01*
X101581771Y-95432571D01*
X100896057Y-95775428D01*
X101638914Y-95775428D01*
X102381771Y-95175428D02*
X102496057Y-95175428D01*
X102610342Y-95204000D01*
X102667485Y-95232571D01*
X102724628Y-95289714D01*
X102781771Y-95404000D01*
X102781771Y-95546857D01*
X102724628Y-95661142D01*
X102667485Y-95718285D01*
X102610342Y-95746857D01*
X102496057Y-95775428D01*
X102381771Y-95775428D01*
X102267485Y-95746857D01*
X102210342Y-95718285D01*
X102153200Y-95661142D01*
X102096057Y-95546857D01*
X102096057Y-95404000D01*
X102153200Y-95289714D01*
X102210342Y-95232571D01*
X102267485Y-95204000D01*
X102381771Y-95175428D01*
X103238914Y-95232571D02*
X103296057Y-95204000D01*
X103410342Y-95175428D01*
X103696057Y-95175428D01*
X103810342Y-95204000D01*
X103867485Y-95232571D01*
X103924628Y-95289714D01*
X103924628Y-95346857D01*
X103867485Y-95432571D01*
X103181771Y-95775428D01*
X103924628Y-95775428D01*
X104667485Y-95175428D02*
X104781771Y-95175428D01*
X104896057Y-95204000D01*
X104953200Y-95232571D01*
X105010342Y-95289714D01*
X105067485Y-95404000D01*
X105067485Y-95546857D01*
X105010342Y-95661142D01*
X104953200Y-95718285D01*
X104896057Y-95746857D01*
X104781771Y-95775428D01*
X104667485Y-95775428D01*
X104553200Y-95746857D01*
X104496057Y-95718285D01*
X104438914Y-95661142D01*
X104381771Y-95546857D01*
X104381771Y-95404000D01*
X104438914Y-95289714D01*
X104496057Y-95232571D01*
X104553200Y-95204000D01*
X104667485Y-95175428D01*
X106496057Y-95775428D02*
X106496057Y-95175428D01*
X106781771Y-95175428D01*
X106953200Y-95204000D01*
X107067485Y-95261142D01*
X107124628Y-95318285D01*
X107181771Y-95432571D01*
X107181771Y-95518285D01*
X107124628Y-95632571D01*
X107067485Y-95689714D01*
X106953200Y-95746857D01*
X106781771Y-95775428D01*
X106496057Y-95775428D01*
X107924628Y-95175428D02*
X108153200Y-95175428D01*
X108267485Y-95204000D01*
X108381771Y-95261142D01*
X108438914Y-95375428D01*
X108438914Y-95575428D01*
X108381771Y-95689714D01*
X108267485Y-95746857D01*
X108153200Y-95775428D01*
X107924628Y-95775428D01*
X107810342Y-95746857D01*
X107696057Y-95689714D01*
X107638914Y-95575428D01*
X107638914Y-95375428D01*
X107696057Y-95261142D01*
X107810342Y-95204000D01*
X107924628Y-95175428D01*
X109581771Y-95775428D02*
X108896057Y-95775428D01*
X109238914Y-95775428D02*
X109238914Y-95175428D01*
X109124628Y-95261142D01*
X109010342Y-95318285D01*
X108896057Y-95346857D01*
X110038914Y-95746857D02*
X110210342Y-95775428D01*
X110496057Y-95775428D01*
X110610342Y-95746857D01*
X110667485Y-95718285D01*
X110724628Y-95661142D01*
X110724628Y-95604000D01*
X110667485Y-95546857D01*
X110610342Y-95518285D01*
X110496057Y-95489714D01*
X110267485Y-95461142D01*
X110153200Y-95432571D01*
X110096057Y-95404000D01*
X110038914Y-95346857D01*
X110038914Y-95289714D01*
X110096057Y-95232571D01*
X110153200Y-95204000D01*
X110267485Y-95175428D01*
X110553200Y-95175428D01*
X110724628Y-95204000D01*
X111810342Y-95775428D02*
X111238914Y-95775428D01*
X111238914Y-95175428D01*
X112438914Y-95175428D02*
X112667485Y-95175428D01*
X112781771Y-95204000D01*
X112896057Y-95261142D01*
X112953200Y-95375428D01*
X112953200Y-95575428D01*
X112896057Y-95689714D01*
X112781771Y-95746857D01*
X112667485Y-95775428D01*
X112438914Y-95775428D01*
X112324628Y-95746857D01*
X112210342Y-95689714D01*
X112153200Y-95575428D01*
X112153200Y-95375428D01*
X112210342Y-95261142D01*
X112324628Y-95204000D01*
X112438914Y-95175428D01*
X113524628Y-95746857D02*
X113524628Y-95775428D01*
X113467485Y-95832571D01*
X113410342Y-95861142D01*
X115638914Y-95718285D02*
X115581771Y-95746857D01*
X115410342Y-95775428D01*
X115296057Y-95775428D01*
X115124628Y-95746857D01*
X115010342Y-95689714D01*
X114953200Y-95632571D01*
X114896057Y-95518285D01*
X114896057Y-95432571D01*
X114953200Y-95318285D01*
X115010342Y-95261142D01*
X115124628Y-95204000D01*
X115296057Y-95175428D01*
X115410342Y-95175428D01*
X115581771Y-95204000D01*
X115638914Y-95232571D01*
X116838914Y-95718285D02*
X116781771Y-95746857D01*
X116610342Y-95775428D01*
X116496057Y-95775428D01*
X116324628Y-95746857D01*
X116210342Y-95689714D01*
X116153200Y-95632571D01*
X116096057Y-95518285D01*
X116096057Y-95432571D01*
X116153200Y-95318285D01*
X116210342Y-95261142D01*
X116324628Y-95204000D01*
X116496057Y-95175428D01*
X116610342Y-95175428D01*
X116781771Y-95204000D01*
X116838914Y-95232571D01*
X117296057Y-95604000D02*
X117867485Y-95604000D01*
X117181771Y-95775428D02*
X117581771Y-95175428D01*
X117981771Y-95775428D01*
X118324628Y-95604000D02*
X118896057Y-95604000D01*
X118210342Y-95775428D02*
X118610342Y-95175428D01*
X119010342Y-95775428D01*
D12*
X117257580Y-77708000D02*
X117257580Y-77517523D01*
X117305200Y-77422285D01*
X117400438Y-77327047D01*
X117590914Y-77279428D01*
X117924247Y-77279428D01*
X118114723Y-77327047D01*
X118209961Y-77422285D01*
X118257580Y-77517523D01*
X118257580Y-77708000D01*
X118209961Y-77803238D01*
X118114723Y-77898476D01*
X117924247Y-77946095D01*
X117590914Y-77946095D01*
X117400438Y-77898476D01*
X117305200Y-77803238D01*
X117257580Y-77708000D01*
X117257580Y-76850857D02*
X118067104Y-76850857D01*
X118162342Y-76803238D01*
X118209961Y-76755619D01*
X118257580Y-76660380D01*
X118257580Y-76469904D01*
X118209961Y-76374666D01*
X118162342Y-76327047D01*
X118067104Y-76279428D01*
X117257580Y-76279428D01*
X117257580Y-75946095D02*
X117257580Y-75374666D01*
X118257580Y-75660380D02*
X117257580Y-75660380D01*
X122347200Y-74929904D02*
X122299580Y-75025142D01*
X122299580Y-75168000D01*
X122347200Y-75310857D01*
X122442438Y-75406095D01*
X122537676Y-75453714D01*
X122728152Y-75501333D01*
X122871009Y-75501333D01*
X123061485Y-75453714D01*
X123156723Y-75406095D01*
X123251961Y-75310857D01*
X123299580Y-75168000D01*
X123299580Y-75072761D01*
X123251961Y-74929904D01*
X123204342Y-74882285D01*
X122871009Y-74882285D01*
X122871009Y-75072761D01*
X123299580Y-74453714D02*
X122299580Y-74453714D01*
X123299580Y-73882285D01*
X122299580Y-73882285D01*
X123299580Y-73406095D02*
X122299580Y-73406095D01*
X122299580Y-73168000D01*
X122347200Y-73025142D01*
X122442438Y-72929904D01*
X122537676Y-72882285D01*
X122728152Y-72834666D01*
X122871009Y-72834666D01*
X123061485Y-72882285D01*
X123156723Y-72929904D01*
X123251961Y-73025142D01*
X123299580Y-73168000D01*
X123299580Y-73406095D01*
D11*
X47502819Y-76314095D02*
X48502819Y-76314095D01*
X47502819Y-76790285D02*
X48502819Y-76790285D01*
X47502819Y-77361714D01*
X48502819Y-77361714D01*
D12*
X127339345Y-73721551D02*
X127341963Y-74340593D01*
X126959604Y-74008875D01*
X126960209Y-74151730D01*
X126912993Y-74247169D01*
X126865576Y-74294989D01*
X126770540Y-74343011D01*
X126532447Y-74344018D01*
X126437008Y-74296802D01*
X126389188Y-74249385D01*
X126341166Y-74154349D01*
X126339958Y-73868637D01*
X126387174Y-73773199D01*
X126434591Y-73725379D01*
X127344582Y-74959635D02*
X127344985Y-75054873D01*
X127297769Y-75150311D01*
X127250352Y-75198131D01*
X127155316Y-75246153D01*
X126965043Y-75294577D01*
X126726950Y-75295584D01*
X126536274Y-75248772D01*
X126440835Y-75201556D01*
X126393015Y-75154139D01*
X126344994Y-75059103D01*
X126344591Y-74963866D01*
X126391807Y-74868427D01*
X126439224Y-74820607D01*
X126534260Y-74772585D01*
X126724533Y-74724161D01*
X126962626Y-74723154D01*
X127153302Y-74769967D01*
X127248740Y-74817182D01*
X127296560Y-74864600D01*
X127344582Y-74959635D01*
X126443051Y-75725361D02*
X126395634Y-75773181D01*
X126347814Y-75725764D01*
X126395231Y-75677943D01*
X126443051Y-75725361D01*
X126347814Y-75725764D01*
X127350625Y-76388194D02*
X127351028Y-76483431D01*
X127303812Y-76578870D01*
X127256395Y-76626690D01*
X127161359Y-76674712D01*
X126971086Y-76723136D01*
X126732993Y-76724143D01*
X126542317Y-76677330D01*
X126446878Y-76630114D01*
X126399058Y-76582697D01*
X126351037Y-76487661D01*
X126350634Y-76392424D01*
X126397850Y-76296986D01*
X126445267Y-76249165D01*
X126540303Y-76201144D01*
X126730576Y-76152720D01*
X126968669Y-76151712D01*
X127159345Y-76198525D01*
X127254783Y-76245741D01*
X127302603Y-76293158D01*
X127350625Y-76388194D01*
X127258409Y-77102876D02*
X127306229Y-77150294D01*
X127354251Y-77245329D01*
X127355258Y-77483422D01*
X127308042Y-77578861D01*
X127260625Y-77626681D01*
X127165589Y-77674703D01*
X127070352Y-77675106D01*
X126927294Y-77628091D01*
X126353454Y-77059085D01*
X126356072Y-77678127D01*
X127357474Y-78007227D02*
X127360092Y-78626269D01*
X126977733Y-78294550D01*
X126978337Y-78437406D01*
X126931122Y-78532845D01*
X126883704Y-78580665D01*
X126788669Y-78628687D01*
X126550576Y-78629694D01*
X126455137Y-78582478D01*
X126407317Y-78535061D01*
X126359295Y-78440025D01*
X126358087Y-78154313D01*
X126405303Y-78058875D01*
X126452720Y-78011054D01*
X126365137Y-79820965D02*
X127031798Y-79818145D01*
X126936560Y-79818548D02*
X126984380Y-79865965D01*
X127032402Y-79961001D01*
X127033006Y-80103857D01*
X126985790Y-80199295D01*
X126890755Y-80247317D01*
X126366950Y-80249533D01*
X126890755Y-80247317D02*
X126986193Y-80294533D01*
X127034215Y-80389568D01*
X127034819Y-80532424D01*
X126987603Y-80627863D01*
X126892568Y-80675884D01*
X126368763Y-80678100D01*
X126370777Y-81154286D02*
X127037438Y-81151466D01*
X126942200Y-81151869D02*
X126990021Y-81199286D01*
X127038042Y-81294322D01*
X127038646Y-81437178D01*
X126991431Y-81532617D01*
X126896395Y-81580638D01*
X126372590Y-81582854D01*
X126896395Y-81580638D02*
X126991833Y-81627854D01*
X127039855Y-81722890D01*
X127040459Y-81865746D01*
X126993243Y-81961184D01*
X126898208Y-82009206D01*
X126374403Y-82011422D01*
D13*
X125475968Y-62908279D02*
X125602968Y-92931079D01*
X123698000Y-62915800D02*
X126062384Y-62905798D01*
X123825000Y-92938600D02*
X126189384Y-92928598D01*
X125602968Y-92931079D02*
X125011787Y-91807066D01*
X125602968Y-92931079D02*
X126184618Y-91802105D01*
X125475968Y-62908279D02*
X124894318Y-64037253D01*
X125475968Y-62908279D02*
X126067149Y-64032292D01*
D12*
X131758225Y-74099110D02*
X131759081Y-74718157D01*
X131377668Y-74385351D01*
X131377865Y-74528208D01*
X131330378Y-74623512D01*
X131282825Y-74671197D01*
X131187653Y-74718947D01*
X130949558Y-74719276D01*
X130854254Y-74671789D01*
X130806569Y-74624236D01*
X130758818Y-74529064D01*
X130758423Y-74243350D01*
X130805911Y-74148046D01*
X130853464Y-74100361D01*
X131760265Y-75575299D02*
X131760002Y-75384823D01*
X131712252Y-75289651D01*
X131664567Y-75242098D01*
X131521578Y-75147058D01*
X131331036Y-75099702D01*
X130950084Y-75100228D01*
X130854912Y-75147979D01*
X130807359Y-75195664D01*
X130759871Y-75290968D01*
X130760135Y-75481444D01*
X130807885Y-75576616D01*
X130855570Y-75624169D01*
X130950874Y-75671656D01*
X131188969Y-75671327D01*
X131284141Y-75623577D01*
X131331694Y-75575892D01*
X131379182Y-75480588D01*
X131378919Y-75290112D01*
X131331168Y-75194940D01*
X131283483Y-75147387D01*
X131188179Y-75099899D01*
X130856228Y-76100359D02*
X130808675Y-76148044D01*
X130760990Y-76100491D01*
X130808544Y-76052806D01*
X130856228Y-76100359D01*
X130760990Y-76100491D01*
X131761516Y-76480061D02*
X131762437Y-77146727D01*
X130761846Y-76719538D01*
X131763622Y-78003869D02*
X131762964Y-77527679D01*
X131286708Y-77480718D01*
X131334393Y-77528271D01*
X131382144Y-77623443D01*
X131382473Y-77861538D01*
X131334985Y-77956842D01*
X131287432Y-78004527D01*
X131192260Y-78052277D01*
X130954165Y-78052606D01*
X130858861Y-78005119D01*
X130811176Y-77957566D01*
X130763426Y-77862394D01*
X130763097Y-77624299D01*
X130810584Y-77528995D01*
X130858137Y-77481310D01*
X131431540Y-78909090D02*
X130764874Y-78910012D01*
X131812163Y-78670469D02*
X131097548Y-78433361D01*
X131098404Y-79052408D01*
X130766651Y-80195725D02*
X131433317Y-80194803D01*
X131338079Y-80194935D02*
X131385764Y-80242488D01*
X131433514Y-80337660D01*
X131433712Y-80480517D01*
X131386224Y-80575821D01*
X131291052Y-80623572D01*
X130767243Y-80624296D01*
X131291052Y-80623572D02*
X131386356Y-80671059D01*
X131434107Y-80766231D01*
X131434304Y-80909088D01*
X131386817Y-81004392D01*
X131291644Y-81052143D01*
X130767835Y-81052867D01*
X130768494Y-81529057D02*
X131435160Y-81528135D01*
X131339922Y-81528267D02*
X131387606Y-81575820D01*
X131435357Y-81670992D01*
X131435555Y-81813849D01*
X131388067Y-81909153D01*
X131292895Y-81956904D01*
X130769086Y-81957628D01*
X131292895Y-81956904D02*
X131388199Y-82004391D01*
X131435949Y-82099563D01*
X131436147Y-82242420D01*
X131388659Y-82337724D01*
X131293487Y-82385475D01*
X130769678Y-82386199D01*
D13*
X129971800Y-96668995D02*
X129921000Y-59915195D01*
X127508145Y-96672400D02*
X130558220Y-96668184D01*
X127457345Y-59918600D02*
X130507420Y-59914384D01*
X129921000Y-59915195D02*
X130508977Y-61040887D01*
X129921000Y-59915195D02*
X129336137Y-61042508D01*
X129971800Y-96668995D02*
X130556663Y-95541682D01*
X129971800Y-96668995D02*
X129383823Y-95543303D01*
X54849200Y-82608000D02*
X55599200Y-81858000D01*
X55899200Y-81558000D02*
X56649200Y-80808000D01*
X56649200Y-80808000D02*
X70249200Y-80808000D01*
X70249200Y-80808000D02*
X70249200Y-96208000D01*
X70249200Y-96208000D02*
X54849200Y-96208000D01*
X54849200Y-96208000D02*
X54849200Y-82608000D01*
X99691200Y-60287000D02*
X115831200Y-60287000D01*
X99691200Y-65558000D02*
X115831200Y-65558000D01*
X99691200Y-60287000D02*
X99691200Y-65558000D01*
X115831200Y-60287000D02*
X115831200Y-65558000D01*
X105957200Y-60287000D02*
X105957200Y-65558000D01*
X109566200Y-60287000D02*
X109566200Y-65558000D01*
X96469200Y-72310000D02*
X96469200Y-71350000D01*
X99089200Y-74930000D02*
G75*
G03*
X99089200Y-74930000I-2620000J0D01*
G01*
X122897200Y-78278000D02*
X122897200Y-77778000D01*
X122157200Y-78278000D02*
X122897200Y-78278000D01*
X118289200Y-71616000D02*
X118685200Y-72011000D01*
X115643200Y-68970000D02*
X116023200Y-69350000D01*
X118571200Y-71365000D02*
X118951200Y-71745000D01*
X115909200Y-68704000D02*
X116305200Y-69099000D01*
X118578200Y-76986000D02*
X118685200Y-77092000D01*
X115643200Y-74050000D02*
X115750200Y-74157000D01*
X118844200Y-76720000D02*
X118951200Y-76826000D01*
X115909200Y-73784000D02*
X116016200Y-73891000D01*
X111337200Y-67758000D02*
X122657200Y-67758000D01*
X111337200Y-78038000D02*
X122657200Y-78038000D01*
X122657200Y-78038000D02*
X122657200Y-67758000D01*
X111337200Y-78038000D02*
X111337200Y-67758000D01*
X113397200Y-78038000D02*
X113397200Y-67758000D01*
X119597200Y-78038000D02*
X119597200Y-67758000D01*
X122097200Y-78038000D02*
X122097200Y-67758000D01*
X119477200Y-70358000D02*
G75*
G03*
X119477200Y-70358000I-2180000J0D01*
G01*
X119477200Y-75438000D02*
G75*
G03*
X119477200Y-75438000I-2180000J0D01*
G01*
X70985200Y-62882000D02*
X74145200Y-62882000D01*
X70985200Y-62882000D02*
X70985200Y-85602000D01*
X80805200Y-62882000D02*
X80805200Y-85602000D01*
X77645200Y-62882000D02*
X80805200Y-62882000D01*
X77645200Y-85602000D02*
X80805200Y-85602000D01*
X70985200Y-85602000D02*
X74145200Y-85602000D01*
X42609200Y-78334000D02*
X42609200Y-78834000D01*
X43349200Y-78334000D02*
X42609200Y-78334000D01*
X47217200Y-84996000D02*
X46821200Y-84601000D01*
X49863200Y-87642000D02*
X49483200Y-87262000D01*
X46935200Y-85247000D02*
X46555200Y-84867000D01*
X49597200Y-87908000D02*
X49201200Y-87513000D01*
X46928200Y-79626000D02*
X46821200Y-79520000D01*
X49863200Y-82562000D02*
X49756200Y-82455000D01*
X46662200Y-79892000D02*
X46555200Y-79786000D01*
X49597200Y-82828000D02*
X49490200Y-82721000D01*
X54169200Y-88854000D02*
X42849200Y-88854000D01*
X54169200Y-78574000D02*
X42849200Y-78574000D01*
X42849200Y-78574000D02*
X42849200Y-88854000D01*
X54169200Y-78574000D02*
X54169200Y-88854000D01*
X52109200Y-78574000D02*
X52109200Y-88854000D01*
X45909200Y-78574000D02*
X45909200Y-88854000D01*
X43409200Y-78574000D02*
X43409200Y-88854000D01*
X50389200Y-86254000D02*
G75*
G03*
X50389200Y-86254000I-2180000J0D01*
G01*
X50389200Y-81174000D02*
G75*
G03*
X50389200Y-81174000I-2180000J0D01*
G01*
X68953200Y-69850000D02*
G75*
G03*
X68953200Y-69850000I-9120000J0D01*
G01*
X54849200Y-82608000D02*
X55599200Y-81858000D01*
X55899200Y-81558000D02*
X56649200Y-80808000D01*
X56649200Y-80808000D02*
X70249200Y-80808000D01*
X70249200Y-80808000D02*
X70249200Y-96208000D01*
X70249200Y-96208000D02*
X54849200Y-96208000D01*
X54849200Y-96208000D02*
X54849200Y-82608000D01*
X105645200Y-82958000D02*
X105645200Y-83288000D01*
X112185200Y-82958000D02*
X105645200Y-82958000D01*
X112185200Y-83288000D02*
X112185200Y-82958000D01*
X105645200Y-85698000D02*
X105645200Y-85368000D01*
X112185200Y-85698000D02*
X105645200Y-85698000D01*
X112185200Y-85368000D02*
X112185200Y-85698000D01*
X92852200Y-84814000D02*
X92852200Y-79744000D01*
X102622200Y-84814000D02*
X102622200Y-79744000D01*
X102622200Y-79744000D02*
X92852200Y-79744000D01*
X102622200Y-84814000D02*
X92852200Y-84814000D01*
X92852200Y-90654000D02*
X92852200Y-85584000D01*
X102622200Y-90654000D02*
X102622200Y-85584000D01*
X102622200Y-85584000D02*
X92852200Y-85584000D01*
X102622200Y-90654000D02*
X92852200Y-90654000D01*
X105947636Y-81544000D02*
X107151764Y-81544000D01*
X105947636Y-79724000D02*
X107151764Y-79724000D01*
X100847200Y-91584000D02*
X100847200Y-91914000D01*
X107387200Y-91584000D02*
X100847200Y-91584000D01*
X107387200Y-91914000D02*
X107387200Y-91584000D01*
X100847200Y-94324000D02*
X100847200Y-93994000D01*
X107387200Y-94324000D02*
X100847200Y-94324000D01*
X107387200Y-93994000D02*
X107387200Y-94324000D01*
X89579200Y-74774000D02*
X89579200Y-74444000D01*
X83039200Y-74774000D02*
X89579200Y-74774000D01*
X83039200Y-74444000D02*
X83039200Y-74774000D01*
X89579200Y-72034000D02*
X89579200Y-72364000D01*
X83039200Y-72034000D02*
X89579200Y-72034000D01*
X83039200Y-72364000D02*
X83039200Y-72034000D01*
X112655136Y-81464000D02*
X113859264Y-81464000D01*
X112655136Y-79644000D02*
X113859264Y-79644000D01*
X116191200Y-89023436D02*
X116191200Y-90227564D01*
X118911200Y-89023436D02*
X118911200Y-90227564D01*
X109225200Y-72418000D02*
G75*
G03*
X109225200Y-72418000I-4120000J0D01*
G01*
X88913200Y-64516000D02*
G75*
G03*
X88913200Y-64516000I-2620000J0D01*
G01*
X109567200Y-87764000D02*
X109567200Y-90504000D01*
X104327200Y-87764000D02*
X104327200Y-90504000D01*
X104327200Y-90504000D02*
X109567200Y-90504000D01*
X104327200Y-87764000D02*
X109567200Y-87764000D01*
X93347200Y-93319436D02*
X93347200Y-94523564D01*
X95167200Y-93319436D02*
X95167200Y-94523564D01*
X113993200Y-90734000D02*
X112533200Y-90734000D01*
X113993200Y-87574000D02*
X111833200Y-87574000D01*
X113993200Y-87574000D02*
X113993200Y-88504000D01*
X113993200Y-90734000D02*
X113993200Y-89804000D01*
X119643200Y-85658000D02*
X118313200Y-85658000D01*
X119643200Y-84328000D02*
X119643200Y-85658000D01*
X119643200Y-83058000D02*
X116983200Y-83058000D01*
X116983200Y-83058000D02*
X116983200Y-80458000D01*
X119643200Y-83058000D02*
X119643200Y-80458000D01*
X119643200Y-80458000D02*
X116983200Y-80458000D01*
X80777200Y-92154000D02*
G75*
G03*
X80777200Y-92154000I-4120000J0D01*
G01*
X88959200Y-76190800D02*
X87309200Y-76190800D01*
X88959200Y-94090800D02*
X88959200Y-76190800D01*
X83659200Y-94090800D02*
X88959200Y-94090800D01*
X83659200Y-76190800D02*
X83659200Y-94090800D01*
X85309200Y-76190800D02*
X83659200Y-76190800D01*
X87309200Y-76190800D02*
G75*
G02*
X85309200Y-76190800I-1000000J0D01*
G01*
X83039200Y-68226000D02*
X83039200Y-68556000D01*
X89579200Y-68226000D02*
X83039200Y-68226000D01*
X89579200Y-68556000D02*
X89579200Y-68226000D01*
X83039200Y-70966000D02*
X83039200Y-70636000D01*
X89579200Y-70966000D02*
X83039200Y-70966000D01*
X89579200Y-70636000D02*
X89579200Y-70966000D01*
X91421200Y-61622000D02*
X91421200Y-61952000D01*
X97961200Y-61622000D02*
X91421200Y-61622000D01*
X97961200Y-61952000D02*
X97961200Y-61622000D01*
X91421200Y-64362000D02*
X91421200Y-64032000D01*
X97961200Y-64362000D02*
X91421200Y-64362000D01*
X97961200Y-64032000D02*
X97961200Y-64362000D01*
D12*
X61561104Y-97810380D02*
X61561104Y-96810380D01*
X61799200Y-96810380D01*
X61942057Y-96858000D01*
X62037295Y-96953238D01*
X62084914Y-97048476D01*
X62132533Y-97238952D01*
X62132533Y-97381809D01*
X62084914Y-97572285D01*
X62037295Y-97667523D01*
X61942057Y-97762761D01*
X61799200Y-97810380D01*
X61561104Y-97810380D01*
X63084914Y-97810380D02*
X62513485Y-97810380D01*
X62799200Y-97810380D02*
X62799200Y-96810380D01*
X62703961Y-96953238D01*
X62608723Y-97048476D01*
X62513485Y-97096095D01*
X98405961Y-61761619D02*
X98310723Y-61714000D01*
X98215485Y-61618761D01*
X98072628Y-61475904D01*
X97977390Y-61428285D01*
X97882152Y-61428285D01*
X97929771Y-61666380D02*
X97834533Y-61618761D01*
X97739295Y-61523523D01*
X97691676Y-61333047D01*
X97691676Y-60999714D01*
X97739295Y-60809238D01*
X97834533Y-60714000D01*
X97929771Y-60666380D01*
X98120247Y-60666380D01*
X98215485Y-60714000D01*
X98310723Y-60809238D01*
X98358342Y-60999714D01*
X98358342Y-61333047D01*
X98310723Y-61523523D01*
X98215485Y-61618761D01*
X98120247Y-61666380D01*
X97929771Y-61666380D01*
X99310723Y-61666380D02*
X98739295Y-61666380D01*
X99025009Y-61666380D02*
X99025009Y-60666380D01*
X98929771Y-60809238D01*
X98834533Y-60904476D01*
X98739295Y-60952095D01*
X95286533Y-72334380D02*
X94953200Y-71858190D01*
X94715104Y-72334380D02*
X94715104Y-71334380D01*
X95096057Y-71334380D01*
X95191295Y-71382000D01*
X95238914Y-71429619D01*
X95286533Y-71524857D01*
X95286533Y-71667714D01*
X95238914Y-71762952D01*
X95191295Y-71810571D01*
X95096057Y-71858190D01*
X94715104Y-71858190D01*
X96143676Y-71667714D02*
X96143676Y-72334380D01*
X95905580Y-71286761D02*
X95667485Y-72001047D01*
X96286533Y-72001047D01*
X109789580Y-73231333D02*
X110503866Y-73231333D01*
X110646723Y-73278952D01*
X110741961Y-73374190D01*
X110789580Y-73517047D01*
X110789580Y-73612285D01*
X109884819Y-72802761D02*
X109837200Y-72755142D01*
X109789580Y-72659904D01*
X109789580Y-72421809D01*
X109837200Y-72326571D01*
X109884819Y-72278952D01*
X109980057Y-72231333D01*
X110075295Y-72231333D01*
X110218152Y-72278952D01*
X110789580Y-72850380D01*
X110789580Y-72231333D01*
X69211866Y-78160571D02*
X68878533Y-78160571D01*
X68878533Y-78684380D02*
X68878533Y-77684380D01*
X69354723Y-77684380D01*
X70259485Y-78684380D02*
X69688057Y-78684380D01*
X69973771Y-78684380D02*
X69973771Y-77684380D01*
X69878533Y-77827238D01*
X69783295Y-77922476D01*
X69688057Y-77970095D01*
X52193866Y-76668380D02*
X52193866Y-77382666D01*
X52146247Y-77525523D01*
X52051009Y-77620761D01*
X51908152Y-77668380D01*
X51812914Y-77668380D01*
X53193866Y-77668380D02*
X52622438Y-77668380D01*
X52908152Y-77668380D02*
X52908152Y-76668380D01*
X52812914Y-76811238D01*
X52717676Y-76906476D01*
X52622438Y-76954095D01*
X50328533Y-75033142D02*
X50280914Y-75080761D01*
X50138057Y-75128380D01*
X50042819Y-75128380D01*
X49899961Y-75080761D01*
X49804723Y-74985523D01*
X49757104Y-74890285D01*
X49709485Y-74699809D01*
X49709485Y-74556952D01*
X49757104Y-74366476D01*
X49804723Y-74271238D01*
X49899961Y-74176000D01*
X50042819Y-74128380D01*
X50138057Y-74128380D01*
X50280914Y-74176000D01*
X50328533Y-74223619D01*
X51280914Y-75128380D02*
X50709485Y-75128380D01*
X50995200Y-75128380D02*
X50995200Y-74128380D01*
X50899961Y-74271238D01*
X50804723Y-74366476D01*
X50709485Y-74414095D01*
X61561104Y-97810380D02*
X61561104Y-96810380D01*
X61799200Y-96810380D01*
X61942057Y-96858000D01*
X62037295Y-96953238D01*
X62084914Y-97048476D01*
X62132533Y-97238952D01*
X62132533Y-97381809D01*
X62084914Y-97572285D01*
X62037295Y-97667523D01*
X61942057Y-97762761D01*
X61799200Y-97810380D01*
X61561104Y-97810380D01*
X63084914Y-97810380D02*
X62513485Y-97810380D01*
X62799200Y-97810380D02*
X62799200Y-96810380D01*
X62703961Y-96953238D01*
X62608723Y-97048476D01*
X62513485Y-97096095D01*
X108494533Y-84780380D02*
X108161200Y-84304190D01*
X107923104Y-84780380D02*
X107923104Y-83780380D01*
X108304057Y-83780380D01*
X108399295Y-83828000D01*
X108446914Y-83875619D01*
X108494533Y-83970857D01*
X108494533Y-84113714D01*
X108446914Y-84208952D01*
X108399295Y-84256571D01*
X108304057Y-84304190D01*
X107923104Y-84304190D01*
X109351676Y-83780380D02*
X109161200Y-83780380D01*
X109065961Y-83828000D01*
X109018342Y-83875619D01*
X108923104Y-84018476D01*
X108875485Y-84208952D01*
X108875485Y-84589904D01*
X108923104Y-84685142D01*
X108970723Y-84732761D01*
X109065961Y-84780380D01*
X109256438Y-84780380D01*
X109351676Y-84732761D01*
X109399295Y-84685142D01*
X109446914Y-84589904D01*
X109446914Y-84351809D01*
X109399295Y-84256571D01*
X109351676Y-84208952D01*
X109256438Y-84161333D01*
X109065961Y-84161333D01*
X108970723Y-84208952D01*
X108923104Y-84256571D01*
X108875485Y-84351809D01*
X95190533Y-79286380D02*
X94857200Y-78810190D01*
X94619104Y-79286380D02*
X94619104Y-78286380D01*
X95000057Y-78286380D01*
X95095295Y-78334000D01*
X95142914Y-78381619D01*
X95190533Y-78476857D01*
X95190533Y-78619714D01*
X95142914Y-78714952D01*
X95095295Y-78762571D01*
X95000057Y-78810190D01*
X94619104Y-78810190D01*
X95523866Y-78286380D02*
X96190533Y-78286380D01*
X95761961Y-79286380D01*
X96950533Y-91936380D02*
X96617200Y-91460190D01*
X96379104Y-91936380D02*
X96379104Y-90936380D01*
X96760057Y-90936380D01*
X96855295Y-90984000D01*
X96902914Y-91031619D01*
X96950533Y-91126857D01*
X96950533Y-91269714D01*
X96902914Y-91364952D01*
X96855295Y-91412571D01*
X96760057Y-91460190D01*
X96379104Y-91460190D01*
X97902914Y-91936380D02*
X97331485Y-91936380D01*
X97617200Y-91936380D02*
X97617200Y-90936380D01*
X97521961Y-91079238D01*
X97426723Y-91174476D01*
X97331485Y-91222095D01*
X107224533Y-79192380D02*
X106891200Y-78716190D01*
X106653104Y-79192380D02*
X106653104Y-78192380D01*
X107034057Y-78192380D01*
X107129295Y-78240000D01*
X107176914Y-78287619D01*
X107224533Y-78382857D01*
X107224533Y-78525714D01*
X107176914Y-78620952D01*
X107129295Y-78668571D01*
X107034057Y-78716190D01*
X106653104Y-78716190D01*
X107700723Y-79192380D02*
X107891200Y-79192380D01*
X107986438Y-79144761D01*
X108034057Y-79097142D01*
X108129295Y-78954285D01*
X108176914Y-78763809D01*
X108176914Y-78382857D01*
X108129295Y-78287619D01*
X108081676Y-78240000D01*
X107986438Y-78192380D01*
X107795961Y-78192380D01*
X107700723Y-78240000D01*
X107653104Y-78287619D01*
X107605485Y-78382857D01*
X107605485Y-78620952D01*
X107653104Y-78716190D01*
X107700723Y-78763809D01*
X107795961Y-78811428D01*
X107986438Y-78811428D01*
X108081676Y-78763809D01*
X108129295Y-78716190D01*
X108176914Y-78620952D01*
X103922533Y-93396380D02*
X103589200Y-92920190D01*
X103351104Y-93396380D02*
X103351104Y-92396380D01*
X103732057Y-92396380D01*
X103827295Y-92444000D01*
X103874914Y-92491619D01*
X103922533Y-92586857D01*
X103922533Y-92729714D01*
X103874914Y-92824952D01*
X103827295Y-92872571D01*
X103732057Y-92920190D01*
X103351104Y-92920190D01*
X104493961Y-92824952D02*
X104398723Y-92777333D01*
X104351104Y-92729714D01*
X104303485Y-92634476D01*
X104303485Y-92586857D01*
X104351104Y-92491619D01*
X104398723Y-92444000D01*
X104493961Y-92396380D01*
X104684438Y-92396380D01*
X104779676Y-92444000D01*
X104827295Y-92491619D01*
X104874914Y-92586857D01*
X104874914Y-92634476D01*
X104827295Y-92729714D01*
X104779676Y-92777333D01*
X104684438Y-92824952D01*
X104493961Y-92824952D01*
X104398723Y-92872571D01*
X104351104Y-92920190D01*
X104303485Y-93015428D01*
X104303485Y-93205904D01*
X104351104Y-93301142D01*
X104398723Y-93348761D01*
X104493961Y-93396380D01*
X104684438Y-93396380D01*
X104779676Y-93348761D01*
X104827295Y-93301142D01*
X104874914Y-93205904D01*
X104874914Y-93015428D01*
X104827295Y-92920190D01*
X104779676Y-92872571D01*
X104684438Y-92824952D01*
X85888533Y-73604380D02*
X85555200Y-73128190D01*
X85317104Y-73604380D02*
X85317104Y-72604380D01*
X85698057Y-72604380D01*
X85793295Y-72652000D01*
X85840914Y-72699619D01*
X85888533Y-72794857D01*
X85888533Y-72937714D01*
X85840914Y-73032952D01*
X85793295Y-73080571D01*
X85698057Y-73128190D01*
X85317104Y-73128190D01*
X86269485Y-72699619D02*
X86317104Y-72652000D01*
X86412342Y-72604380D01*
X86650438Y-72604380D01*
X86745676Y-72652000D01*
X86793295Y-72699619D01*
X86840914Y-72794857D01*
X86840914Y-72890095D01*
X86793295Y-73032952D01*
X86221866Y-73604380D01*
X86840914Y-73604380D01*
X110542342Y-80430666D02*
X110589961Y-80478285D01*
X110637580Y-80621142D01*
X110637580Y-80716380D01*
X110589961Y-80859238D01*
X110494723Y-80954476D01*
X110399485Y-81002095D01*
X110209009Y-81049714D01*
X110066152Y-81049714D01*
X109875676Y-81002095D01*
X109780438Y-80954476D01*
X109685200Y-80859238D01*
X109637580Y-80716380D01*
X109637580Y-80621142D01*
X109685200Y-80478285D01*
X109732819Y-80430666D01*
X110066152Y-79859238D02*
X110018533Y-79954476D01*
X109970914Y-80002095D01*
X109875676Y-80049714D01*
X109828057Y-80049714D01*
X109732819Y-80002095D01*
X109685200Y-79954476D01*
X109637580Y-79859238D01*
X109637580Y-79668761D01*
X109685200Y-79573523D01*
X109732819Y-79525904D01*
X109828057Y-79478285D01*
X109875676Y-79478285D01*
X109970914Y-79525904D01*
X110018533Y-79573523D01*
X110066152Y-79668761D01*
X110066152Y-79859238D01*
X110113771Y-79954476D01*
X110161390Y-80002095D01*
X110256628Y-80049714D01*
X110447104Y-80049714D01*
X110542342Y-80002095D01*
X110589961Y-79954476D01*
X110637580Y-79859238D01*
X110637580Y-79668761D01*
X110589961Y-79573523D01*
X110542342Y-79525904D01*
X110447104Y-79478285D01*
X110256628Y-79478285D01*
X110161390Y-79525904D01*
X110113771Y-79573523D01*
X110066152Y-79668761D01*
X114844533Y-92305142D02*
X114796914Y-92352761D01*
X114654057Y-92400380D01*
X114558819Y-92400380D01*
X114415961Y-92352761D01*
X114320723Y-92257523D01*
X114273104Y-92162285D01*
X114225485Y-91971809D01*
X114225485Y-91828952D01*
X114273104Y-91638476D01*
X114320723Y-91543238D01*
X114415961Y-91448000D01*
X114558819Y-91400380D01*
X114654057Y-91400380D01*
X114796914Y-91448000D01*
X114844533Y-91495619D01*
X115177866Y-91400380D02*
X115844533Y-91400380D01*
X115415961Y-92400380D01*
X99858533Y-71223142D02*
X99810914Y-71270761D01*
X99668057Y-71318380D01*
X99572819Y-71318380D01*
X99429961Y-71270761D01*
X99334723Y-71175523D01*
X99287104Y-71080285D01*
X99239485Y-70889809D01*
X99239485Y-70746952D01*
X99287104Y-70556476D01*
X99334723Y-70461238D01*
X99429961Y-70366000D01*
X99572819Y-70318380D01*
X99668057Y-70318380D01*
X99810914Y-70366000D01*
X99858533Y-70413619D01*
X100715676Y-70318380D02*
X100525200Y-70318380D01*
X100429961Y-70366000D01*
X100382342Y-70413619D01*
X100287104Y-70556476D01*
X100239485Y-70746952D01*
X100239485Y-71127904D01*
X100287104Y-71223142D01*
X100334723Y-71270761D01*
X100429961Y-71318380D01*
X100620438Y-71318380D01*
X100715676Y-71270761D01*
X100763295Y-71223142D01*
X100810914Y-71127904D01*
X100810914Y-70889809D01*
X100763295Y-70794571D01*
X100715676Y-70746952D01*
X100620438Y-70699333D01*
X100429961Y-70699333D01*
X100334723Y-70746952D01*
X100287104Y-70794571D01*
X100239485Y-70889809D01*
X89434533Y-63069142D02*
X89386914Y-63116761D01*
X89244057Y-63164380D01*
X89148819Y-63164380D01*
X89005961Y-63116761D01*
X88910723Y-63021523D01*
X88863104Y-62926285D01*
X88815485Y-62735809D01*
X88815485Y-62592952D01*
X88863104Y-62402476D01*
X88910723Y-62307238D01*
X89005961Y-62212000D01*
X89148819Y-62164380D01*
X89244057Y-62164380D01*
X89386914Y-62212000D01*
X89434533Y-62259619D01*
X90339295Y-62164380D02*
X89863104Y-62164380D01*
X89815485Y-62640571D01*
X89863104Y-62592952D01*
X89958342Y-62545333D01*
X90196438Y-62545333D01*
X90291676Y-62592952D01*
X90339295Y-62640571D01*
X90386914Y-62735809D01*
X90386914Y-62973904D01*
X90339295Y-63069142D01*
X90291676Y-63116761D01*
X90196438Y-63164380D01*
X89958342Y-63164380D01*
X89863104Y-63116761D01*
X89815485Y-63069142D01*
X107224533Y-87225142D02*
X107176914Y-87272761D01*
X107034057Y-87320380D01*
X106938819Y-87320380D01*
X106795961Y-87272761D01*
X106700723Y-87177523D01*
X106653104Y-87082285D01*
X106605485Y-86891809D01*
X106605485Y-86748952D01*
X106653104Y-86558476D01*
X106700723Y-86463238D01*
X106795961Y-86368000D01*
X106938819Y-86320380D01*
X107034057Y-86320380D01*
X107176914Y-86368000D01*
X107224533Y-86415619D01*
X108081676Y-86653714D02*
X108081676Y-87320380D01*
X107843580Y-86272761D02*
X107605485Y-86987047D01*
X108224533Y-86987047D01*
X96434342Y-93638666D02*
X96481961Y-93686285D01*
X96529580Y-93829142D01*
X96529580Y-93924380D01*
X96481961Y-94067238D01*
X96386723Y-94162476D01*
X96291485Y-94210095D01*
X96101009Y-94257714D01*
X95958152Y-94257714D01*
X95767676Y-94210095D01*
X95672438Y-94162476D01*
X95577200Y-94067238D01*
X95529580Y-93924380D01*
X95529580Y-93829142D01*
X95577200Y-93686285D01*
X95624819Y-93638666D01*
X95529580Y-93305333D02*
X95529580Y-92686285D01*
X95910533Y-93019619D01*
X95910533Y-92876761D01*
X95958152Y-92781523D01*
X96005771Y-92733904D01*
X96101009Y-92686285D01*
X96339104Y-92686285D01*
X96434342Y-92733904D01*
X96481961Y-92781523D01*
X96529580Y-92876761D01*
X96529580Y-93162476D01*
X96481961Y-93257714D01*
X96434342Y-93305333D01*
X115011295Y-88606380D02*
X115011295Y-89415904D01*
X115058914Y-89511142D01*
X115106533Y-89558761D01*
X115201771Y-89606380D01*
X115392247Y-89606380D01*
X115487485Y-89558761D01*
X115535104Y-89511142D01*
X115582723Y-89415904D01*
X115582723Y-88606380D01*
X116011295Y-88701619D02*
X116058914Y-88654000D01*
X116154152Y-88606380D01*
X116392247Y-88606380D01*
X116487485Y-88654000D01*
X116535104Y-88701619D01*
X116582723Y-88796857D01*
X116582723Y-88892095D01*
X116535104Y-89034952D01*
X115963676Y-89606380D01*
X116582723Y-89606380D01*
X117725866Y-86320380D02*
X117725866Y-87034666D01*
X117678247Y-87177523D01*
X117583009Y-87272761D01*
X117440152Y-87320380D01*
X117344914Y-87320380D01*
X118106819Y-86320380D02*
X118725866Y-86320380D01*
X118392533Y-86701333D01*
X118535390Y-86701333D01*
X118630628Y-86748952D01*
X118678247Y-86796571D01*
X118725866Y-86891809D01*
X118725866Y-87129904D01*
X118678247Y-87225142D01*
X118630628Y-87272761D01*
X118535390Y-87320380D01*
X118249676Y-87320380D01*
X118154438Y-87272761D01*
X118106819Y-87225142D01*
X72426533Y-89257142D02*
X72378914Y-89304761D01*
X72236057Y-89352380D01*
X72140819Y-89352380D01*
X71997961Y-89304761D01*
X71902723Y-89209523D01*
X71855104Y-89114285D01*
X71807485Y-88923809D01*
X71807485Y-88780952D01*
X71855104Y-88590476D01*
X71902723Y-88495238D01*
X71997961Y-88400000D01*
X72140819Y-88352380D01*
X72236057Y-88352380D01*
X72378914Y-88400000D01*
X72426533Y-88447619D01*
X72807485Y-88447619D02*
X72855104Y-88400000D01*
X72950342Y-88352380D01*
X73188438Y-88352380D01*
X73283676Y-88400000D01*
X73331295Y-88447619D01*
X73378914Y-88542857D01*
X73378914Y-88638095D01*
X73331295Y-88780952D01*
X72759866Y-89352380D01*
X73378914Y-89352380D01*
X81737295Y-94702380D02*
X81737295Y-95511904D01*
X81784914Y-95607142D01*
X81832533Y-95654761D01*
X81927771Y-95702380D01*
X82118247Y-95702380D01*
X82213485Y-95654761D01*
X82261104Y-95607142D01*
X82308723Y-95511904D01*
X82308723Y-94702380D01*
X83308723Y-95702380D02*
X82737295Y-95702380D01*
X83023009Y-95702380D02*
X83023009Y-94702380D01*
X82927771Y-94845238D01*
X82832533Y-94940476D01*
X82737295Y-94988095D01*
X85888533Y-70048380D02*
X85555200Y-69572190D01*
X85317104Y-70048380D02*
X85317104Y-69048380D01*
X85698057Y-69048380D01*
X85793295Y-69096000D01*
X85840914Y-69143619D01*
X85888533Y-69238857D01*
X85888533Y-69381714D01*
X85840914Y-69476952D01*
X85793295Y-69524571D01*
X85698057Y-69572190D01*
X85317104Y-69572190D01*
X86793295Y-69048380D02*
X86317104Y-69048380D01*
X86269485Y-69524571D01*
X86317104Y-69476952D01*
X86412342Y-69429333D01*
X86650438Y-69429333D01*
X86745676Y-69476952D01*
X86793295Y-69524571D01*
X86840914Y-69619809D01*
X86840914Y-69857904D01*
X86793295Y-69953142D01*
X86745676Y-70000761D01*
X86650438Y-70048380D01*
X86412342Y-70048380D01*
X86317104Y-70000761D01*
X86269485Y-69953142D01*
X94524533Y-63444380D02*
X94191200Y-62968190D01*
X93953104Y-63444380D02*
X93953104Y-62444380D01*
X94334057Y-62444380D01*
X94429295Y-62492000D01*
X94476914Y-62539619D01*
X94524533Y-62634857D01*
X94524533Y-62777714D01*
X94476914Y-62872952D01*
X94429295Y-62920571D01*
X94334057Y-62968190D01*
X93953104Y-62968190D01*
X94857866Y-62444380D02*
X95476914Y-62444380D01*
X95143580Y-62825333D01*
X95286438Y-62825333D01*
X95381676Y-62872952D01*
X95429295Y-62920571D01*
X95476914Y-63015809D01*
X95476914Y-63253904D01*
X95429295Y-63349142D01*
X95381676Y-63396761D01*
X95286438Y-63444380D01*
X95000723Y-63444380D01*
X94905485Y-63396761D01*
X94857866Y-63349142D01*
M02*
