%FSLAX45Y45*%
G04 Gerber Fmt 4.5, Leading zero omitted, Abs format (unit mm)*
G04 Created by KiCad (PCBNEW 5.1.5+dfsg1-2) date 2020-03-29 15:26:55*
%MOMM*%
%LPD*%
G04 APERTURE LIST*
%TA.AperFunction,Profile*%
%ADD10C,0.050000*%
%TD*%
%ADD11C,0.200000*%
%ADD12C,0.300000*%
G04 APERTURE END LIST*
D10*
X4563720Y-9668400D02*
X4565720Y-5983400D01*
X12364720Y-9672320D02*
X4563720Y-9668400D01*
X12364720Y-5994400D02*
X12364720Y-9672320D01*
X4565720Y-5983400D02*
X12364720Y-5994400D01*
D11*
X7323720Y-7233400D02*
X7593720Y-7503400D01*
X7593720Y-7233400D02*
X7323720Y-7503400D01*
D12*
X4847648Y-10140534D02*
X4847648Y-9840534D01*
X4919077Y-9840534D01*
X4961934Y-9854820D01*
X4990506Y-9883392D01*
X5004791Y-9911963D01*
X5019077Y-9969106D01*
X5019077Y-10011963D01*
X5004791Y-10069106D01*
X4990506Y-10097677D01*
X4961934Y-10126249D01*
X4919077Y-10140534D01*
X4847648Y-10140534D01*
X5147648Y-10140534D02*
X5147648Y-9940534D01*
X5147648Y-9997677D02*
X5161934Y-9969106D01*
X5176220Y-9954820D01*
X5204791Y-9940534D01*
X5233363Y-9940534D01*
X5333363Y-10140534D02*
X5333363Y-9940534D01*
X5333363Y-9840534D02*
X5319077Y-9854820D01*
X5333363Y-9869106D01*
X5347648Y-9854820D01*
X5333363Y-9840534D01*
X5333363Y-9869106D01*
X5519077Y-10140534D02*
X5490506Y-10126249D01*
X5476220Y-10097677D01*
X5476220Y-9840534D01*
X5676220Y-10140534D02*
X5647648Y-10126249D01*
X5633363Y-10097677D01*
X5633363Y-9840534D01*
X6019077Y-10140534D02*
X6019077Y-9840534D01*
X6119077Y-10054820D01*
X6219077Y-9840534D01*
X6219077Y-10140534D01*
X6490506Y-10140534D02*
X6490506Y-9983392D01*
X6476220Y-9954820D01*
X6447648Y-9940534D01*
X6390506Y-9940534D01*
X6361934Y-9954820D01*
X6490506Y-10126249D02*
X6461934Y-10140534D01*
X6390506Y-10140534D01*
X6361934Y-10126249D01*
X6347648Y-10097677D01*
X6347648Y-10069106D01*
X6361934Y-10040534D01*
X6390506Y-10026249D01*
X6461934Y-10026249D01*
X6490506Y-10011963D01*
X6633363Y-9940534D02*
X6633363Y-10240534D01*
X6633363Y-9954820D02*
X6661934Y-9940534D01*
X6719077Y-9940534D01*
X6747648Y-9954820D01*
X6761934Y-9969106D01*
X6776220Y-9997677D01*
X6776220Y-10083392D01*
X6761934Y-10111963D01*
X6747648Y-10126249D01*
X6719077Y-10140534D01*
X6661934Y-10140534D01*
X6633363Y-10126249D01*
X6904791Y-10111963D02*
X6919077Y-10126249D01*
X6904791Y-10140534D01*
X6890506Y-10126249D01*
X6904791Y-10111963D01*
X6904791Y-10140534D01*
X6904791Y-9954820D02*
X6919077Y-9969106D01*
X6904791Y-9983392D01*
X6890506Y-9969106D01*
X6904791Y-9954820D01*
X6904791Y-9983392D01*
X4291220Y-10499820D02*
X4561220Y-10769820D01*
X4561220Y-10499820D02*
X4291220Y-10769820D01*
X4833363Y-10499106D02*
X4847648Y-10484820D01*
X4876220Y-10470534D01*
X4947648Y-10470534D01*
X4976220Y-10484820D01*
X4990506Y-10499106D01*
X5004791Y-10527677D01*
X5004791Y-10556249D01*
X4990506Y-10599106D01*
X4819077Y-10770534D01*
X5004791Y-10770534D01*
X5133363Y-10741963D02*
X5147648Y-10756249D01*
X5133363Y-10770534D01*
X5119077Y-10756249D01*
X5133363Y-10741963D01*
X5133363Y-10770534D01*
X5247648Y-10470534D02*
X5447648Y-10470534D01*
X5319077Y-10770534D01*
X5619077Y-10470534D02*
X5647648Y-10470534D01*
X5676220Y-10484820D01*
X5690506Y-10499106D01*
X5704791Y-10527677D01*
X5719077Y-10584820D01*
X5719077Y-10656249D01*
X5704791Y-10713392D01*
X5690506Y-10741963D01*
X5676220Y-10756249D01*
X5647648Y-10770534D01*
X5619077Y-10770534D01*
X5590506Y-10756249D01*
X5576220Y-10741963D01*
X5561934Y-10713392D01*
X5547648Y-10656249D01*
X5547648Y-10584820D01*
X5561934Y-10527677D01*
X5576220Y-10499106D01*
X5590506Y-10484820D01*
X5619077Y-10470534D01*
X5847648Y-10770534D02*
X5847648Y-10570534D01*
X5847648Y-10599106D02*
X5861934Y-10584820D01*
X5890506Y-10570534D01*
X5933363Y-10570534D01*
X5961934Y-10584820D01*
X5976220Y-10613392D01*
X5976220Y-10770534D01*
X5976220Y-10613392D02*
X5990506Y-10584820D01*
X6019077Y-10570534D01*
X6061934Y-10570534D01*
X6090506Y-10584820D01*
X6104791Y-10613392D01*
X6104791Y-10770534D01*
X6247648Y-10770534D02*
X6247648Y-10570534D01*
X6247648Y-10599106D02*
X6261934Y-10584820D01*
X6290506Y-10570534D01*
X6333363Y-10570534D01*
X6361934Y-10584820D01*
X6376220Y-10613392D01*
X6376220Y-10770534D01*
X6376220Y-10613392D02*
X6390506Y-10584820D01*
X6419077Y-10570534D01*
X6461934Y-10570534D01*
X6490506Y-10584820D01*
X6504791Y-10613392D01*
X6504791Y-10770534D01*
X7090506Y-10456249D02*
X6833363Y-10841963D01*
X7476220Y-10470534D02*
X7504791Y-10470534D01*
X7533363Y-10484820D01*
X7547648Y-10499106D01*
X7561934Y-10527677D01*
X7576220Y-10584820D01*
X7576220Y-10656249D01*
X7561934Y-10713392D01*
X7547648Y-10741963D01*
X7533363Y-10756249D01*
X7504791Y-10770534D01*
X7476220Y-10770534D01*
X7447648Y-10756249D01*
X7433363Y-10741963D01*
X7419077Y-10713392D01*
X7404791Y-10656249D01*
X7404791Y-10584820D01*
X7419077Y-10527677D01*
X7433363Y-10499106D01*
X7447648Y-10484820D01*
X7476220Y-10470534D01*
X7704791Y-10741963D02*
X7719077Y-10756249D01*
X7704791Y-10770534D01*
X7690506Y-10756249D01*
X7704791Y-10741963D01*
X7704791Y-10770534D01*
X8004791Y-10770534D02*
X7833363Y-10770534D01*
X7919077Y-10770534D02*
X7919077Y-10470534D01*
X7890506Y-10513392D01*
X7861934Y-10541963D01*
X7833363Y-10556249D01*
X8190506Y-10470534D02*
X8219077Y-10470534D01*
X8247648Y-10484820D01*
X8261934Y-10499106D01*
X8276220Y-10527677D01*
X8290506Y-10584820D01*
X8290506Y-10656249D01*
X8276220Y-10713392D01*
X8261934Y-10741963D01*
X8247648Y-10756249D01*
X8219077Y-10770534D01*
X8190506Y-10770534D01*
X8161934Y-10756249D01*
X8147648Y-10741963D01*
X8133363Y-10713392D01*
X8119077Y-10656249D01*
X8119077Y-10584820D01*
X8133363Y-10527677D01*
X8147648Y-10499106D01*
X8161934Y-10484820D01*
X8190506Y-10470534D01*
X8547648Y-10470534D02*
X8490506Y-10470534D01*
X8461934Y-10484820D01*
X8447648Y-10499106D01*
X8419077Y-10541963D01*
X8404791Y-10599106D01*
X8404791Y-10713392D01*
X8419077Y-10741963D01*
X8433363Y-10756249D01*
X8461934Y-10770534D01*
X8519077Y-10770534D01*
X8547648Y-10756249D01*
X8561934Y-10741963D01*
X8576220Y-10713392D01*
X8576220Y-10641963D01*
X8561934Y-10613392D01*
X8547648Y-10599106D01*
X8519077Y-10584820D01*
X8461934Y-10584820D01*
X8433363Y-10599106D01*
X8419077Y-10613392D01*
X8404791Y-10641963D01*
X8690506Y-10470534D02*
X8690506Y-10527677D01*
X8804791Y-10470534D02*
X8804791Y-10527677D01*
X9247648Y-10884820D02*
X9233363Y-10870534D01*
X9204791Y-10827677D01*
X9190506Y-10799106D01*
X9176220Y-10756249D01*
X9161934Y-10684820D01*
X9161934Y-10627677D01*
X9176220Y-10556249D01*
X9190506Y-10513392D01*
X9204791Y-10484820D01*
X9233363Y-10441963D01*
X9247648Y-10427677D01*
X9519077Y-10770534D02*
X9347648Y-10770534D01*
X9433363Y-10770534D02*
X9433363Y-10470534D01*
X9404791Y-10513392D01*
X9376220Y-10541963D01*
X9347648Y-10556249D01*
X9876220Y-10770534D02*
X9876220Y-10470534D01*
X10004791Y-10770534D02*
X10004791Y-10613392D01*
X9990506Y-10584820D01*
X9961934Y-10570534D01*
X9919077Y-10570534D01*
X9890506Y-10584820D01*
X9876220Y-10599106D01*
X10190506Y-10770534D02*
X10161934Y-10756249D01*
X10147648Y-10741963D01*
X10133363Y-10713392D01*
X10133363Y-10627677D01*
X10147648Y-10599106D01*
X10161934Y-10584820D01*
X10190506Y-10570534D01*
X10233363Y-10570534D01*
X10261934Y-10584820D01*
X10276220Y-10599106D01*
X10290506Y-10627677D01*
X10290506Y-10713392D01*
X10276220Y-10741963D01*
X10261934Y-10756249D01*
X10233363Y-10770534D01*
X10190506Y-10770534D01*
X10461934Y-10770534D02*
X10433363Y-10756249D01*
X10419077Y-10727677D01*
X10419077Y-10470534D01*
X10690506Y-10756249D02*
X10661934Y-10770534D01*
X10604791Y-10770534D01*
X10576220Y-10756249D01*
X10561934Y-10727677D01*
X10561934Y-10613392D01*
X10576220Y-10584820D01*
X10604791Y-10570534D01*
X10661934Y-10570534D01*
X10690506Y-10584820D01*
X10704791Y-10613392D01*
X10704791Y-10641963D01*
X10561934Y-10670534D01*
X10804791Y-10884820D02*
X10819077Y-10870534D01*
X10847648Y-10827677D01*
X10861934Y-10799106D01*
X10876220Y-10756249D01*
X10890506Y-10684820D01*
X10890506Y-10627677D01*
X10876220Y-10556249D01*
X10861934Y-10513392D01*
X10847648Y-10484820D01*
X10819077Y-10441963D01*
X10804791Y-10427677D01*
X11347648Y-10884820D02*
X11333363Y-10870534D01*
X11304791Y-10827677D01*
X11290506Y-10799106D01*
X11276220Y-10756249D01*
X11261934Y-10684820D01*
X11261934Y-10627677D01*
X11276220Y-10556249D01*
X11290506Y-10513392D01*
X11304791Y-10484820D01*
X11333363Y-10441963D01*
X11347648Y-10427677D01*
X11461934Y-10570534D02*
X11461934Y-10770534D01*
X11461934Y-10599106D02*
X11476220Y-10584820D01*
X11504791Y-10570534D01*
X11547648Y-10570534D01*
X11576220Y-10584820D01*
X11590506Y-10613392D01*
X11590506Y-10770534D01*
X11776220Y-10770534D02*
X11747648Y-10756249D01*
X11733363Y-10741963D01*
X11719077Y-10713392D01*
X11719077Y-10627677D01*
X11733363Y-10599106D01*
X11747648Y-10584820D01*
X11776220Y-10570534D01*
X11819077Y-10570534D01*
X11847648Y-10584820D01*
X11861934Y-10599106D01*
X11876220Y-10627677D01*
X11876220Y-10713392D01*
X11861934Y-10741963D01*
X11847648Y-10756249D01*
X11819077Y-10770534D01*
X11776220Y-10770534D01*
X11961934Y-10570534D02*
X12076220Y-10570534D01*
X12004791Y-10470534D02*
X12004791Y-10727677D01*
X12019077Y-10756249D01*
X12047648Y-10770534D01*
X12076220Y-10770534D01*
X12404791Y-10570534D02*
X12404791Y-10870534D01*
X12404791Y-10584820D02*
X12433363Y-10570534D01*
X12490506Y-10570534D01*
X12519077Y-10584820D01*
X12533363Y-10599106D01*
X12547648Y-10627677D01*
X12547648Y-10713392D01*
X12533363Y-10741963D01*
X12519077Y-10756249D01*
X12490506Y-10770534D01*
X12433363Y-10770534D01*
X12404791Y-10756249D01*
X12719077Y-10770534D02*
X12690506Y-10756249D01*
X12676220Y-10727677D01*
X12676220Y-10470534D01*
X12961934Y-10770534D02*
X12961934Y-10613392D01*
X12947648Y-10584820D01*
X12919077Y-10570534D01*
X12861934Y-10570534D01*
X12833363Y-10584820D01*
X12961934Y-10756249D02*
X12933363Y-10770534D01*
X12861934Y-10770534D01*
X12833363Y-10756249D01*
X12819077Y-10727677D01*
X12819077Y-10699106D01*
X12833363Y-10670534D01*
X12861934Y-10656249D01*
X12933363Y-10656249D01*
X12961934Y-10641963D01*
X13061934Y-10570534D02*
X13176220Y-10570534D01*
X13104791Y-10470534D02*
X13104791Y-10727677D01*
X13119077Y-10756249D01*
X13147648Y-10770534D01*
X13176220Y-10770534D01*
X13390506Y-10756249D02*
X13361934Y-10770534D01*
X13304791Y-10770534D01*
X13276220Y-10756249D01*
X13261934Y-10727677D01*
X13261934Y-10613392D01*
X13276220Y-10584820D01*
X13304791Y-10570534D01*
X13361934Y-10570534D01*
X13390506Y-10584820D01*
X13404791Y-10613392D01*
X13404791Y-10641963D01*
X13261934Y-10670534D01*
X13661934Y-10770534D02*
X13661934Y-10470534D01*
X13661934Y-10756249D02*
X13633363Y-10770534D01*
X13576220Y-10770534D01*
X13547648Y-10756249D01*
X13533363Y-10741963D01*
X13519077Y-10713392D01*
X13519077Y-10627677D01*
X13533363Y-10599106D01*
X13547648Y-10584820D01*
X13576220Y-10570534D01*
X13633363Y-10570534D01*
X13661934Y-10584820D01*
X13776220Y-10884820D02*
X13790506Y-10870534D01*
X13819077Y-10827677D01*
X13833363Y-10799106D01*
X13847648Y-10756249D01*
X13861934Y-10684820D01*
X13861934Y-10627677D01*
X13847648Y-10556249D01*
X13833363Y-10513392D01*
X13819077Y-10484820D01*
X13790506Y-10441963D01*
X13776220Y-10427677D01*
M02*
