M48
; DRILL file {KiCad 5.1.6+dfsg1-1} date Thu Jul 23 09:42:08 2020
; FORMAT={-:-/ absolute / inch / decimal}
; #@! TF.CreationDate,2020-07-23T09:42:08+02:00
; #@! TF.GenerationSoftware,Kicad,Pcbnew,5.1.6+dfsg1-1
; #@! TF.FileFunction,Plated,1,2,PTH
FMAT,2
INCH
T1C0.0157
T2C0.0236
T3C0.0315
T4C0.0394
T5C0.0472
T6C0.0512
T7C0.0591
T8C0.1220
%
G90
G05
T1
X3.6211Y-3.4143
X4.1363Y-3.1746
T2
X3.358Y-2.54
X3.4367Y-2.54
T3
X3.7479Y-3.2395
X3.8479Y-3.2395
X3.9479Y-3.2395
X3.018Y-3.5592
X3.018Y-3.697
X3.9491Y-3.6596
X4.2491Y-3.6596
X3.248Y-2.74
X3.548Y-2.74
X3.578Y-2.48
X3.878Y-2.48
X4.1613Y-3.5092
X4.2597Y-3.5092
X3.7479Y-3.4694
X3.8479Y-3.4694
X3.9479Y-3.4694
X4.138Y-3.32
X4.438Y-3.32
X3.248Y-2.8899
X3.548Y-2.8899
X4.138Y-2.7822
X4.138Y-2.92
X3.248Y-3.052
X3.248Y-3.152
X3.248Y-3.252
X3.248Y-3.352
X3.248Y-3.452
X3.248Y-3.552
X3.248Y-3.652
X3.548Y-3.052
X3.548Y-3.152
X3.548Y-3.252
X3.548Y-3.352
X3.548Y-3.452
X3.548Y-3.552
X3.548Y-3.652
T4
X2.988Y-2.76
X2.208Y-2.75
X2.5033Y-2.75
X4.658Y-3.22
X4.658Y-3.32
T5
X3.798Y-2.75
X3.798Y-2.95
X2.248Y-3.27
X2.2519Y-3.6991
X2.6771Y-3.27
X2.6771Y-3.6991
X2.248Y-3.27
X2.2519Y-3.6991
X2.6771Y-3.27
X2.6771Y-3.6991
T6
X1.898Y-3.1958
X1.898Y-3.3958
X2.988Y-2.48
X2.988Y-3.3658
X4.618Y-2.77
X4.618Y-2.97
T7
X4.028Y-2.47
X4.2426Y-2.47
X4.4571Y-2.47
T8
X1.9235Y-2.4754
X1.9235Y-3.66
X4.758Y-2.479
X4.758Y-3.661
T0
M30
