G04 #@! TF.GenerationSoftware,KiCad,Pcbnew,5.1.5+dfsg1-2*
G04 #@! TF.CreationDate,2020-03-29T15:27:08+02:00*
G04 #@! TF.ProjectId,lownoise-pwr,6c6f776e-6f69-4736-952d-7077722e6b69,rev?*
G04 #@! TF.SameCoordinates,Original*
G04 #@! TF.FileFunction,Copper,L2,Bot*
G04 #@! TF.FilePolarity,Positive*
%FSLAX46Y46*%
G04 Gerber Fmt 4.6, Leading zero omitted, Abs format (unit mm)*
G04 Created by KiCad (PCBNEW 5.1.5+dfsg1-2) date 2020-03-29 15:27:08*
%MOMM*%
%LPD*%
G04 APERTURE LIST*
%ADD10O,1.600000X1.600000*%
%ADD11C,1.600000*%
%ADD12O,2.400000X2.400000*%
%ADD13C,2.400000*%
%ADD14C,1.440000*%
%ADD15C,3.000000*%
%ADD16R,2.400000X2.400000*%
%ADD17C,1.200000*%
%ADD18O,1.700000X1.700000*%
%ADD19R,1.700000X1.700000*%
%ADD20O,1.905000X2.000000*%
%ADD21R,1.905000X2.000000*%
%ADD22O,2.200000X2.200000*%
%ADD23R,2.000000X2.000000*%
%ADD24O,2.000000X2.000000*%
%ADD25C,2.000000*%
%ADD26R,1.600000X1.600000*%
%ADD27C,4.000000*%
%ADD28C,0.800000*%
%ADD29C,0.250000*%
%ADD30C,2.000000*%
%ADD31C,0.500000*%
%ADD32C,1.000000*%
G04 APERTURE END LIST*
D10*
X105105200Y-84328000D03*
D11*
X112725200Y-84328000D03*
D12*
X93929200Y-75946000D03*
D13*
X114249200Y-75946000D03*
D14*
X100277200Y-82284000D03*
X97737200Y-82284000D03*
X95197200Y-82284000D03*
X100277200Y-88124000D03*
X97737200Y-88124000D03*
X95197200Y-88124000D03*
D15*
X74587200Y-84934000D03*
X74587200Y-62434000D03*
D10*
X100307200Y-92954000D03*
D11*
X107927200Y-92954000D03*
D10*
X88757200Y-73404000D03*
D11*
X81137200Y-73404000D03*
D13*
X65847200Y-83184000D03*
D16*
X65947200Y-94084000D03*
D13*
X55047200Y-94084000D03*
X55047200Y-83184000D03*
D11*
X120543200Y-70104000D03*
X117043200Y-70104000D03*
D17*
X85017200Y-64034000D03*
X83017200Y-64034000D03*
D11*
X108197200Y-89134000D03*
X105697200Y-89134000D03*
D18*
X121547200Y-82864000D03*
D19*
X119007200Y-82864000D03*
D11*
X76657200Y-93904000D03*
X76657200Y-90404000D03*
D20*
X109207200Y-63444000D03*
X106667200Y-63444000D03*
D21*
X104127200Y-63444000D03*
D22*
X121577200Y-76962000D03*
D23*
X119037200Y-76962000D03*
D24*
X48987200Y-87474000D03*
D23*
X48987200Y-84934000D03*
D25*
X58977200Y-67164000D03*
X58977200Y-74664000D03*
D10*
X90119200Y-77520800D03*
X82499200Y-92760800D03*
X90119200Y-80060800D03*
X82499200Y-90220800D03*
X90119200Y-82600800D03*
X82499200Y-87680800D03*
X90119200Y-85140800D03*
X82499200Y-85140800D03*
X90119200Y-87680800D03*
X82499200Y-82600800D03*
X90119200Y-90220800D03*
X82499200Y-80060800D03*
X90119200Y-92760800D03*
D26*
X82499200Y-77520800D03*
D10*
X93637200Y-62992000D03*
D11*
X93637200Y-70612000D03*
D10*
X97957200Y-70564000D03*
D11*
X97957200Y-62944000D03*
D27*
X120853200Y-92989400D03*
X48857200Y-62874000D03*
X48857200Y-92964000D03*
X120853200Y-62966600D03*
D28*
X91977200Y-86724000D03*
X105062200Y-80634000D03*
D29*
X82499200Y-92760800D02*
X82499200Y-92735400D01*
X55047200Y-83184000D02*
X55047200Y-83114000D01*
D30*
X55047200Y-83114000D02*
X58217200Y-79944000D01*
X58217200Y-79944000D02*
X66567200Y-79944000D01*
X74305200Y-79944000D02*
X66567200Y-79944000D01*
X78181200Y-83820000D02*
X74305200Y-79944000D01*
D29*
X78181200Y-85598000D02*
X78173200Y-85598000D01*
D30*
X78181200Y-85598000D02*
X78181200Y-83820000D01*
D29*
X74305200Y-79944000D02*
X74305200Y-79822000D01*
D30*
X79451200Y-91110000D02*
X76657200Y-93904000D01*
X79451200Y-89408000D02*
X79451200Y-91110000D01*
X78181200Y-88138000D02*
X79451200Y-89408000D01*
X78181200Y-85598000D02*
X78181200Y-88138000D01*
D29*
X82499200Y-90220800D02*
X82499200Y-89836000D01*
D31*
X82499200Y-89836000D02*
X80377200Y-87714000D01*
X80377200Y-74164000D02*
X81137200Y-73404000D01*
X80377200Y-87714000D02*
X80377200Y-74164000D01*
D29*
X90119200Y-82600800D02*
X90119200Y-83261200D01*
X90119200Y-82600800D02*
X90119200Y-82352000D01*
D31*
X90119200Y-82352000D02*
X91617200Y-80854000D01*
X91617200Y-80854000D02*
X91617200Y-74894000D01*
X91617200Y-74894000D02*
X94297200Y-72214000D01*
X96307200Y-72214000D02*
X97957200Y-70564000D01*
X94297200Y-72214000D02*
X96307200Y-72214000D01*
D29*
X90119200Y-82600800D02*
X90224000Y-82600800D01*
X91977200Y-86724000D02*
X91907200Y-86664000D01*
X90119200Y-82600800D02*
X90144000Y-82600800D01*
D31*
X91977200Y-84434000D02*
X91977200Y-86724000D01*
X90144000Y-82600800D02*
X91977200Y-84434000D01*
D29*
X90119200Y-85140800D02*
X90119200Y-85293200D01*
X90119200Y-85140800D02*
X89884000Y-85140800D01*
D31*
X89884000Y-85140800D02*
X88517200Y-83774000D01*
X88517200Y-83774000D02*
X88517200Y-76524000D01*
X88517200Y-76524000D02*
X90567200Y-74474000D01*
X90567200Y-74474000D02*
X90567200Y-70214000D01*
D29*
X97837200Y-62944000D02*
X97957200Y-62944000D01*
D31*
X90567200Y-70214000D02*
X97837200Y-62944000D01*
D32*
X106667200Y-68796000D02*
X106667200Y-63444000D01*
X99517200Y-75946000D02*
X106667200Y-68796000D01*
X93929200Y-75946000D02*
X99517200Y-75946000D01*
D29*
X105062200Y-80634000D02*
X105062200Y-80729000D01*
D31*
X108661200Y-84328000D02*
X112725200Y-84328000D01*
X105062200Y-80729000D02*
X108661200Y-84328000D01*
X100374200Y-75946000D02*
X105062200Y-80634000D01*
D29*
X99517200Y-75946000D02*
X100374200Y-75946000D01*
X90119200Y-80060800D02*
X90170000Y-80060800D01*
X82499200Y-85140800D02*
X82524600Y-85140800D01*
X82499200Y-85140800D02*
X82550400Y-85140800D01*
X82499200Y-85140800D02*
X83074000Y-85140800D01*
D31*
X87325200Y-94234000D02*
X91765200Y-94234000D01*
X87325200Y-89966800D02*
X82499200Y-85140800D01*
X87325200Y-94234000D02*
X87325200Y-89966800D01*
X91765200Y-94234000D02*
X91765200Y-88256000D01*
X91765200Y-88256000D02*
X97737200Y-82284000D01*
D30*
X48987200Y-87474000D02*
X61527200Y-87474000D01*
D29*
X65817200Y-83184000D02*
X65847200Y-83184000D01*
D30*
X61527200Y-87474000D02*
X65817200Y-83184000D01*
X55047200Y-94084000D02*
X59727200Y-94084000D01*
X59727200Y-94084000D02*
X65047200Y-88764000D01*
X70867200Y-88764000D02*
X74647200Y-84984000D01*
X65047200Y-88764000D02*
X70867200Y-88764000D01*
X48987200Y-84934000D02*
X48987200Y-70694000D01*
X57197200Y-62484000D02*
X74647200Y-62484000D01*
X48987200Y-70694000D02*
X57197200Y-62484000D01*
D31*
X87237200Y-69214000D02*
X93637200Y-62814000D01*
D29*
X90119200Y-87680800D02*
X89916000Y-87680800D01*
D31*
X89916000Y-87680800D02*
X87325200Y-85090000D01*
X87325200Y-85090000D02*
X87237200Y-69214000D01*
D29*
X100267200Y-82284000D02*
X100279200Y-82296000D01*
X100277200Y-82284000D02*
X100277200Y-82294000D01*
X100277200Y-82284000D02*
X100277200Y-82548000D01*
D31*
X107927200Y-92954000D02*
X105349200Y-92954000D01*
X105349200Y-92954000D02*
X103073200Y-90678000D01*
D29*
X95197200Y-82284000D02*
X95197200Y-82044000D01*
D31*
X95197200Y-82044000D02*
X96977200Y-80264000D01*
X96977200Y-80264000D02*
X101549200Y-80264000D01*
X103073200Y-81788000D02*
X103073200Y-88138000D01*
X101549200Y-80264000D02*
X103073200Y-81788000D01*
X103073200Y-88138000D02*
X103073200Y-87620000D01*
X103073200Y-90678000D02*
X103073200Y-88138000D01*
M02*
