G04 #@! TF.GenerationSoftware,KiCad,Pcbnew,5.1.6+dfsg1-1*
G04 #@! TF.CreationDate,2020-07-23T09:40:13+02:00*
G04 #@! TF.ProjectId,lownoise-pwr,6c6f776e-6f69-4736-952d-7077722e6b69,rev?*
G04 #@! TF.SameCoordinates,Original*
G04 #@! TF.FileFunction,Legend,Bot*
G04 #@! TF.FilePolarity,Positive*
%FSLAX46Y46*%
G04 Gerber Fmt 4.6, Leading zero omitted, Abs format (unit mm)*
G04 Created by KiCad (PCBNEW 5.1.6+dfsg1-1) date 2020-07-23 09:40:13*
%MOMM*%
%LPD*%
G01*
G04 APERTURE LIST*
%ADD10C,0.150000*%
%ADD11C,0.120000*%
G04 APERTURE END LIST*
D10*
X80780846Y-98773246D02*
X81447512Y-98772136D01*
X81020607Y-99772848D01*
X81781003Y-98866818D02*
X81828543Y-98819120D01*
X81923701Y-98771342D01*
X82161796Y-98770946D01*
X82257114Y-98818406D01*
X82304812Y-98865946D01*
X82352590Y-98961104D01*
X82352748Y-99056342D01*
X82305367Y-99199279D01*
X81734891Y-99771658D01*
X82353938Y-99770627D01*
X82782350Y-99674675D02*
X82830049Y-99722215D01*
X82782509Y-99769913D01*
X82734811Y-99722373D01*
X82782350Y-99674675D01*
X82782509Y-99769913D01*
X83447509Y-98768804D02*
X83542747Y-98768645D01*
X83638064Y-98816105D01*
X83685762Y-98863645D01*
X83733540Y-98958804D01*
X83781476Y-99149200D01*
X83781873Y-99387295D01*
X83734571Y-99577851D01*
X83687111Y-99673168D01*
X83639571Y-99720866D01*
X83544413Y-99768644D01*
X83449175Y-99768802D01*
X83353857Y-99721342D01*
X83306159Y-99673802D01*
X83258381Y-99578644D01*
X83210445Y-99388247D01*
X83210049Y-99150152D01*
X83257350Y-98959597D01*
X83304810Y-98864280D01*
X83352350Y-98816581D01*
X83447509Y-98768804D01*
X84114175Y-98767693D02*
X84733221Y-98766662D01*
X84400523Y-99148169D01*
X84543380Y-99147931D01*
X84638697Y-99195391D01*
X84686396Y-99242931D01*
X84734173Y-99338090D01*
X84734570Y-99576185D01*
X84687110Y-99671502D01*
X84639570Y-99719200D01*
X84544411Y-99766978D01*
X84258697Y-99767454D01*
X84163380Y-99719993D01*
X84115682Y-99672454D01*
X85352268Y-98765631D02*
X85447506Y-98765472D01*
X85542823Y-98812932D01*
X85590522Y-98860472D01*
X85638299Y-98955630D01*
X85686236Y-99146027D01*
X85686632Y-99384122D01*
X85639331Y-99574677D01*
X85591870Y-99669995D01*
X85544331Y-99717693D01*
X85449172Y-99765471D01*
X85353934Y-99765629D01*
X85258617Y-99718169D01*
X85210918Y-99670629D01*
X85163141Y-99575471D01*
X85115204Y-99385074D01*
X85114808Y-99146979D01*
X85162109Y-98956424D01*
X85209570Y-98861107D01*
X85257109Y-98813408D01*
X85352268Y-98765631D01*
X86877741Y-99763091D02*
X86876631Y-99096425D01*
X86876789Y-99191663D02*
X86924329Y-99143964D01*
X87019488Y-99096187D01*
X87162345Y-99095949D01*
X87257662Y-99143409D01*
X87305440Y-99238568D01*
X87306312Y-99762377D01*
X87305440Y-99238568D02*
X87352900Y-99143250D01*
X87448059Y-99095473D01*
X87590915Y-99095235D01*
X87686233Y-99142695D01*
X87734010Y-99237854D01*
X87734883Y-99761663D01*
X88211073Y-99760869D02*
X88209962Y-99094204D01*
X88210121Y-99189441D02*
X88257661Y-99141743D01*
X88352819Y-99093966D01*
X88495676Y-99093728D01*
X88590993Y-99141188D01*
X88638771Y-99236346D01*
X88639644Y-99760155D01*
X88638771Y-99236346D02*
X88686231Y-99141029D01*
X88781390Y-99093252D01*
X88924247Y-99093014D01*
X89019564Y-99140474D01*
X89067342Y-99235632D01*
X89068215Y-99759441D01*
D11*
X120985113Y-97983886D02*
X48955113Y-98103886D01*
X120977200Y-93234000D02*
X120986090Y-98570306D01*
X48947200Y-93354000D02*
X48956090Y-98690306D01*
X48955113Y-98103886D02*
X50080638Y-97515589D01*
X48955113Y-98103886D02*
X50082592Y-98688429D01*
X120985113Y-97983886D02*
X119857634Y-97399343D01*
X120985113Y-97983886D02*
X119859588Y-98572183D01*
D10*
X80494836Y-101609814D02*
X81161503Y-101610071D01*
X80732547Y-102609906D01*
X81685147Y-102038843D02*
X81589928Y-101991188D01*
X81542327Y-101943550D01*
X81494744Y-101848294D01*
X81494763Y-101800675D01*
X81542418Y-101705455D01*
X81590056Y-101657854D01*
X81685312Y-101610272D01*
X81875788Y-101610345D01*
X81971008Y-101658001D01*
X82018609Y-101705638D01*
X82066191Y-101800894D01*
X82066173Y-101848513D01*
X82018517Y-101943733D01*
X81970880Y-101991334D01*
X81875624Y-102038916D01*
X81685147Y-102038843D01*
X81589891Y-102086426D01*
X81542254Y-102134026D01*
X81494598Y-102229246D01*
X81494525Y-102419722D01*
X81542107Y-102514979D01*
X81589708Y-102562616D01*
X81684928Y-102610272D01*
X81875404Y-102610345D01*
X81970660Y-102562762D01*
X82018298Y-102515162D01*
X82065953Y-102419942D01*
X82066027Y-102229466D01*
X82018444Y-102134209D01*
X81970843Y-102086572D01*
X81875624Y-102038916D01*
X82494488Y-102515345D02*
X82542089Y-102562982D01*
X82494452Y-102610583D01*
X82446851Y-102562945D01*
X82494488Y-102515345D01*
X82494452Y-102610583D01*
X83161502Y-101610839D02*
X83256741Y-101610876D01*
X83351960Y-101658531D01*
X83399561Y-101706169D01*
X83447144Y-101801425D01*
X83494689Y-101991919D01*
X83494598Y-102230015D01*
X83446906Y-102420473D01*
X83399250Y-102515692D01*
X83351613Y-102563293D01*
X83256356Y-102610876D01*
X83161118Y-102610839D01*
X83065898Y-102563183D01*
X83018298Y-102515546D01*
X82970715Y-102420290D01*
X82923169Y-102229795D01*
X82923261Y-101991700D01*
X82970953Y-101801242D01*
X83018609Y-101706022D01*
X83066246Y-101658421D01*
X83161502Y-101610839D01*
X84066100Y-102039758D02*
X83970880Y-101992102D01*
X83923279Y-101944465D01*
X83875697Y-101849209D01*
X83875715Y-101801590D01*
X83923371Y-101706370D01*
X83971008Y-101658769D01*
X84066264Y-101611187D01*
X84256741Y-101611260D01*
X84351960Y-101658915D01*
X84399561Y-101706553D01*
X84447144Y-101801809D01*
X84447125Y-101849428D01*
X84399470Y-101944648D01*
X84351832Y-101992249D01*
X84256576Y-102039831D01*
X84066100Y-102039758D01*
X83970843Y-102087340D01*
X83923206Y-102134941D01*
X83875550Y-102230161D01*
X83875477Y-102420637D01*
X83923060Y-102515894D01*
X83970660Y-102563531D01*
X84065880Y-102611187D01*
X84256356Y-102611260D01*
X84351613Y-102563677D01*
X84399250Y-102516077D01*
X84446906Y-102420857D01*
X84446979Y-102230381D01*
X84399396Y-102135124D01*
X84351796Y-102087487D01*
X84256576Y-102039831D01*
X85066264Y-101611571D02*
X85161502Y-101611607D01*
X85256722Y-101659263D01*
X85304323Y-101706900D01*
X85351905Y-101802157D01*
X85399451Y-101992651D01*
X85399360Y-102230747D01*
X85351667Y-102421204D01*
X85304012Y-102516424D01*
X85256375Y-102564025D01*
X85161118Y-102611607D01*
X85065880Y-102611571D01*
X84970660Y-102563915D01*
X84923059Y-102516278D01*
X84875477Y-102421021D01*
X84827931Y-102230527D01*
X84828023Y-101992432D01*
X84875715Y-101801974D01*
X84923371Y-101706754D01*
X84971008Y-101659153D01*
X85066264Y-101611571D01*
X86589689Y-102612156D02*
X86589946Y-101945490D01*
X86589909Y-102040728D02*
X86637546Y-101993127D01*
X86732803Y-101945545D01*
X86875660Y-101945599D01*
X86970880Y-101993255D01*
X87018462Y-102088511D01*
X87018261Y-102612321D01*
X87018462Y-102088511D02*
X87066118Y-101993292D01*
X87161374Y-101945709D01*
X87304231Y-101945764D01*
X87399451Y-101993420D01*
X87447034Y-102088676D01*
X87446832Y-102612486D01*
X87923023Y-102612669D02*
X87923279Y-101946002D01*
X87923242Y-102041240D02*
X87970880Y-101993639D01*
X88066136Y-101946057D01*
X88208993Y-101946112D01*
X88304213Y-101993767D01*
X88351795Y-102089024D01*
X88351594Y-102612833D01*
X88351795Y-102089024D02*
X88399451Y-101993804D01*
X88494707Y-101946222D01*
X88637564Y-101946276D01*
X88732784Y-101993932D01*
X88780367Y-102089188D01*
X88780165Y-102612998D01*
D11*
X45645590Y-100874044D02*
X123725590Y-100904044D01*
X45647200Y-96684000D02*
X45645365Y-101460464D01*
X123727200Y-96714000D02*
X123725365Y-101490464D01*
X123725590Y-100904044D02*
X122598861Y-101490032D01*
X123725590Y-100904044D02*
X122599312Y-100317190D01*
X45645590Y-100874044D02*
X46771868Y-101460898D01*
X45645590Y-100874044D02*
X46772319Y-100288056D01*
M02*
