G04 #@! TF.GenerationSoftware,KiCad,Pcbnew,5.1.5+dfsg1-2*
G04 #@! TF.CreationDate,2020-03-29T15:27:08+02:00*
G04 #@! TF.ProjectId,lownoise-pwr,6c6f776e-6f69-4736-952d-7077722e6b69,rev?*
G04 #@! TF.SameCoordinates,Original*
G04 #@! TF.FileFunction,Legend,Top*
G04 #@! TF.FilePolarity,Positive*
%FSLAX46Y46*%
G04 Gerber Fmt 4.6, Leading zero omitted, Abs format (unit mm)*
G04 Created by KiCad (PCBNEW 5.1.5+dfsg1-2) date 2020-03-29 15:27:08*
%MOMM*%
%LPD*%
G04 APERTURE LIST*
%ADD10C,0.200000*%
%ADD11C,0.100000*%
%ADD12C,0.150000*%
%ADD13C,0.120000*%
G04 APERTURE END LIST*
D10*
X109101771Y-66186857D02*
X109601771Y-66186857D01*
X109816057Y-66972571D02*
X109101771Y-66972571D01*
X109101771Y-65472571D01*
X109816057Y-65472571D01*
X107093485Y-66829714D02*
X107022057Y-66901142D01*
X106807771Y-66972571D01*
X106664914Y-66972571D01*
X106450628Y-66901142D01*
X106307771Y-66758285D01*
X106236342Y-66615428D01*
X106164914Y-66329714D01*
X106164914Y-66115428D01*
X106236342Y-65829714D01*
X106307771Y-65686857D01*
X106450628Y-65544000D01*
X106664914Y-65472571D01*
X106807771Y-65472571D01*
X107022057Y-65544000D01*
X107093485Y-65615428D01*
X104196342Y-66186857D02*
X104410628Y-66258285D01*
X104482057Y-66329714D01*
X104553485Y-66472571D01*
X104553485Y-66686857D01*
X104482057Y-66829714D01*
X104410628Y-66901142D01*
X104267771Y-66972571D01*
X103696342Y-66972571D01*
X103696342Y-65472571D01*
X104196342Y-65472571D01*
X104339200Y-65544000D01*
X104410628Y-65615428D01*
X104482057Y-65758285D01*
X104482057Y-65901142D01*
X104410628Y-66044000D01*
X104339200Y-66115428D01*
X104196342Y-66186857D01*
X103696342Y-66186857D01*
D11*
X117913104Y-85936648D02*
X117532152Y-86155696D01*
X117913104Y-86393791D02*
X117113104Y-86293791D01*
X117113104Y-85989029D01*
X117151200Y-85917601D01*
X117189295Y-85884267D01*
X117265485Y-85855696D01*
X117379771Y-85869982D01*
X117455961Y-85917601D01*
X117494057Y-85960458D01*
X117532152Y-86041410D01*
X117532152Y-86346172D01*
X117875009Y-85284267D02*
X117913104Y-85365220D01*
X117913104Y-85517601D01*
X117875009Y-85589029D01*
X117798819Y-85617601D01*
X117494057Y-85579505D01*
X117417866Y-85531886D01*
X117379771Y-85450934D01*
X117379771Y-85298553D01*
X117417866Y-85227125D01*
X117494057Y-85198553D01*
X117570247Y-85208077D01*
X117646438Y-85598553D01*
X117379771Y-84955696D02*
X117379771Y-84650934D01*
X117913104Y-84908077D02*
X117227390Y-84822363D01*
X117151200Y-84774744D01*
X117113104Y-84693791D01*
X117113104Y-84617601D01*
X117836914Y-84441410D02*
X117875009Y-84408077D01*
X117913104Y-84450934D01*
X117875009Y-84484267D01*
X117836914Y-84441410D01*
X117913104Y-84450934D01*
D12*
X118892628Y-90836380D02*
X118892628Y-90074476D01*
X119273580Y-90455428D02*
X118511676Y-90455428D01*
X118606914Y-89169714D02*
X119273580Y-89169714D01*
X118225961Y-89407809D02*
X118940247Y-89645904D01*
X118940247Y-89026857D01*
X119178342Y-88645904D02*
X119225961Y-88598285D01*
X119273580Y-88645904D01*
X119225961Y-88693523D01*
X119178342Y-88645904D01*
X119273580Y-88645904D01*
X118273580Y-87979238D02*
X118273580Y-87884000D01*
X118321200Y-87788761D01*
X118368819Y-87741142D01*
X118464057Y-87693523D01*
X118654533Y-87645904D01*
X118892628Y-87645904D01*
X119083104Y-87693523D01*
X119178342Y-87741142D01*
X119225961Y-87788761D01*
X119273580Y-87884000D01*
X119273580Y-87979238D01*
X119225961Y-88074476D01*
X119178342Y-88122095D01*
X119083104Y-88169714D01*
X118892628Y-88217333D01*
X118654533Y-88217333D01*
X118464057Y-88169714D01*
X118368819Y-88122095D01*
X118321200Y-88074476D01*
X118273580Y-87979238D01*
X119273580Y-87169714D02*
X119273580Y-86979238D01*
X119225961Y-86884000D01*
X119178342Y-86836380D01*
X119035485Y-86741142D01*
X118845009Y-86693523D01*
X118464057Y-86693523D01*
X118368819Y-86741142D01*
X118321200Y-86788761D01*
X118273580Y-86884000D01*
X118273580Y-87074476D01*
X118321200Y-87169714D01*
X118368819Y-87217333D01*
X118464057Y-87264952D01*
X118702152Y-87264952D01*
X118797390Y-87217333D01*
X118845009Y-87169714D01*
X118892628Y-87074476D01*
X118892628Y-86884000D01*
X118845009Y-86788761D01*
X118797390Y-86741142D01*
X118702152Y-86693523D01*
X118273580Y-85836380D02*
X118273580Y-86026857D01*
X118321200Y-86122095D01*
X118368819Y-86169714D01*
X118511676Y-86264952D01*
X118702152Y-86312571D01*
X119083104Y-86312571D01*
X119178342Y-86264952D01*
X119225961Y-86217333D01*
X119273580Y-86122095D01*
X119273580Y-85931619D01*
X119225961Y-85836380D01*
X119178342Y-85788761D01*
X119083104Y-85741142D01*
X118845009Y-85741142D01*
X118749771Y-85788761D01*
X118702152Y-85836380D01*
X118654533Y-85931619D01*
X118654533Y-86122095D01*
X118702152Y-86217333D01*
X118749771Y-86264952D01*
X118845009Y-86312571D01*
X118273580Y-85455428D02*
X119273580Y-85122095D01*
X118273580Y-84788761D01*
D11*
X101654342Y-95794000D02*
X101597200Y-95765428D01*
X101482914Y-95679714D01*
X101425771Y-95622571D01*
X101368628Y-95536857D01*
X101311485Y-95394000D01*
X101311485Y-95279714D01*
X101368628Y-95136857D01*
X101425771Y-95051142D01*
X101482914Y-94994000D01*
X101597200Y-94908285D01*
X101654342Y-94879714D01*
X102625771Y-95536857D02*
X102511485Y-95565428D01*
X102282914Y-95565428D01*
X102168628Y-95536857D01*
X102111485Y-95508285D01*
X102054342Y-95451142D01*
X102054342Y-95279714D01*
X102111485Y-95222571D01*
X102168628Y-95194000D01*
X102282914Y-95165428D01*
X102511485Y-95165428D01*
X102625771Y-95194000D01*
X103025771Y-95794000D02*
X103082914Y-95765428D01*
X103197200Y-95679714D01*
X103254342Y-95622571D01*
X103311485Y-95536857D01*
X103368628Y-95394000D01*
X103368628Y-95279714D01*
X103311485Y-95136857D01*
X103254342Y-95051142D01*
X103197200Y-94994000D01*
X103082914Y-94908285D01*
X103025771Y-94879714D01*
X104797200Y-95022571D02*
X104854342Y-94994000D01*
X104968628Y-94965428D01*
X105254342Y-94965428D01*
X105368628Y-94994000D01*
X105425771Y-95022571D01*
X105482914Y-95079714D01*
X105482914Y-95136857D01*
X105425771Y-95222571D01*
X104740057Y-95565428D01*
X105482914Y-95565428D01*
X106225771Y-94965428D02*
X106340057Y-94965428D01*
X106454342Y-94994000D01*
X106511485Y-95022571D01*
X106568628Y-95079714D01*
X106625771Y-95194000D01*
X106625771Y-95336857D01*
X106568628Y-95451142D01*
X106511485Y-95508285D01*
X106454342Y-95536857D01*
X106340057Y-95565428D01*
X106225771Y-95565428D01*
X106111485Y-95536857D01*
X106054342Y-95508285D01*
X105997200Y-95451142D01*
X105940057Y-95336857D01*
X105940057Y-95194000D01*
X105997200Y-95079714D01*
X106054342Y-95022571D01*
X106111485Y-94994000D01*
X106225771Y-94965428D01*
X107082914Y-95022571D02*
X107140057Y-94994000D01*
X107254342Y-94965428D01*
X107540057Y-94965428D01*
X107654342Y-94994000D01*
X107711485Y-95022571D01*
X107768628Y-95079714D01*
X107768628Y-95136857D01*
X107711485Y-95222571D01*
X107025771Y-95565428D01*
X107768628Y-95565428D01*
X108511485Y-94965428D02*
X108625771Y-94965428D01*
X108740057Y-94994000D01*
X108797200Y-95022571D01*
X108854342Y-95079714D01*
X108911485Y-95194000D01*
X108911485Y-95336857D01*
X108854342Y-95451142D01*
X108797200Y-95508285D01*
X108740057Y-95536857D01*
X108625771Y-95565428D01*
X108511485Y-95565428D01*
X108397200Y-95536857D01*
X108340057Y-95508285D01*
X108282914Y-95451142D01*
X108225771Y-95336857D01*
X108225771Y-95194000D01*
X108282914Y-95079714D01*
X108340057Y-95022571D01*
X108397200Y-94994000D01*
X108511485Y-94965428D01*
X110682914Y-94965428D02*
X110682914Y-95394000D01*
X110625771Y-95479714D01*
X110511485Y-95536857D01*
X110340057Y-95565428D01*
X110225771Y-95565428D01*
X111254342Y-95565428D02*
X111254342Y-94965428D01*
X111254342Y-95251142D02*
X111940057Y-95251142D01*
X111940057Y-95565428D02*
X111940057Y-94965428D01*
X112568628Y-95536857D02*
X112568628Y-95565428D01*
X112511485Y-95622571D01*
X112454342Y-95651142D01*
X114682914Y-95508285D02*
X114625771Y-95536857D01*
X114454342Y-95565428D01*
X114340057Y-95565428D01*
X114168628Y-95536857D01*
X114054342Y-95479714D01*
X113997200Y-95422571D01*
X113940057Y-95308285D01*
X113940057Y-95222571D01*
X113997200Y-95108285D01*
X114054342Y-95051142D01*
X114168628Y-94994000D01*
X114340057Y-94965428D01*
X114454342Y-94965428D01*
X114625771Y-94994000D01*
X114682914Y-95022571D01*
X115882914Y-95508285D02*
X115825771Y-95536857D01*
X115654342Y-95565428D01*
X115540057Y-95565428D01*
X115368628Y-95536857D01*
X115254342Y-95479714D01*
X115197200Y-95422571D01*
X115140057Y-95308285D01*
X115140057Y-95222571D01*
X115197200Y-95108285D01*
X115254342Y-95051142D01*
X115368628Y-94994000D01*
X115540057Y-94965428D01*
X115654342Y-94965428D01*
X115825771Y-94994000D01*
X115882914Y-95022571D01*
X116340057Y-95394000D02*
X116911485Y-95394000D01*
X116225771Y-95565428D02*
X116625771Y-94965428D01*
X117025771Y-95565428D01*
X117368628Y-95394000D02*
X117940057Y-95394000D01*
X117254342Y-95565428D02*
X117654342Y-94965428D01*
X118054342Y-95565428D01*
D12*
X116241580Y-77708000D02*
X116241580Y-77517523D01*
X116289200Y-77422285D01*
X116384438Y-77327047D01*
X116574914Y-77279428D01*
X116908247Y-77279428D01*
X117098723Y-77327047D01*
X117193961Y-77422285D01*
X117241580Y-77517523D01*
X117241580Y-77708000D01*
X117193961Y-77803238D01*
X117098723Y-77898476D01*
X116908247Y-77946095D01*
X116574914Y-77946095D01*
X116384438Y-77898476D01*
X116289200Y-77803238D01*
X116241580Y-77708000D01*
X116241580Y-76850857D02*
X117051104Y-76850857D01*
X117146342Y-76803238D01*
X117193961Y-76755619D01*
X117241580Y-76660380D01*
X117241580Y-76469904D01*
X117193961Y-76374666D01*
X117146342Y-76327047D01*
X117051104Y-76279428D01*
X116241580Y-76279428D01*
X116241580Y-75946095D02*
X116241580Y-75374666D01*
X117241580Y-75660380D02*
X116241580Y-75660380D01*
X122347200Y-74929904D02*
X122299580Y-75025142D01*
X122299580Y-75168000D01*
X122347200Y-75310857D01*
X122442438Y-75406095D01*
X122537676Y-75453714D01*
X122728152Y-75501333D01*
X122871009Y-75501333D01*
X123061485Y-75453714D01*
X123156723Y-75406095D01*
X123251961Y-75310857D01*
X123299580Y-75168000D01*
X123299580Y-75072761D01*
X123251961Y-74929904D01*
X123204342Y-74882285D01*
X122871009Y-74882285D01*
X122871009Y-75072761D01*
X123299580Y-74453714D02*
X122299580Y-74453714D01*
X123299580Y-73882285D01*
X122299580Y-73882285D01*
X123299580Y-73406095D02*
X122299580Y-73406095D01*
X122299580Y-73168000D01*
X122347200Y-73025142D01*
X122442438Y-72929904D01*
X122537676Y-72882285D01*
X122728152Y-72834666D01*
X122871009Y-72834666D01*
X123061485Y-72882285D01*
X123156723Y-72929904D01*
X123251961Y-73025142D01*
X123299580Y-73168000D01*
X123299580Y-73406095D01*
D10*
X45978819Y-84947238D02*
X46978819Y-84947238D01*
X45978819Y-85423428D02*
X46978819Y-85423428D01*
X45978819Y-85994857D01*
X46978819Y-85994857D01*
D12*
X127339345Y-73721551D02*
X127341963Y-74340593D01*
X126959604Y-74008875D01*
X126960209Y-74151730D01*
X126912993Y-74247169D01*
X126865576Y-74294989D01*
X126770540Y-74343011D01*
X126532447Y-74344018D01*
X126437008Y-74296802D01*
X126389188Y-74249385D01*
X126341166Y-74154349D01*
X126339958Y-73868637D01*
X126387174Y-73773199D01*
X126434591Y-73725379D01*
X127344582Y-74959635D02*
X127344985Y-75054873D01*
X127297769Y-75150311D01*
X127250352Y-75198131D01*
X127155316Y-75246153D01*
X126965043Y-75294577D01*
X126726950Y-75295584D01*
X126536274Y-75248772D01*
X126440835Y-75201556D01*
X126393015Y-75154139D01*
X126344994Y-75059103D01*
X126344591Y-74963866D01*
X126391807Y-74868427D01*
X126439224Y-74820607D01*
X126534260Y-74772585D01*
X126724533Y-74724161D01*
X126962626Y-74723154D01*
X127153302Y-74769967D01*
X127248740Y-74817182D01*
X127296560Y-74864600D01*
X127344582Y-74959635D01*
X126443051Y-75725361D02*
X126395634Y-75773181D01*
X126347814Y-75725764D01*
X126395231Y-75677943D01*
X126443051Y-75725361D01*
X126347814Y-75725764D01*
X127350625Y-76388194D02*
X127351028Y-76483431D01*
X127303812Y-76578870D01*
X127256395Y-76626690D01*
X127161359Y-76674712D01*
X126971086Y-76723136D01*
X126732993Y-76724143D01*
X126542317Y-76677330D01*
X126446878Y-76630114D01*
X126399058Y-76582697D01*
X126351037Y-76487661D01*
X126350634Y-76392424D01*
X126397850Y-76296986D01*
X126445267Y-76249165D01*
X126540303Y-76201144D01*
X126730576Y-76152720D01*
X126968669Y-76151712D01*
X127159345Y-76198525D01*
X127254783Y-76245741D01*
X127302603Y-76293158D01*
X127350625Y-76388194D01*
X127258409Y-77102876D02*
X127306229Y-77150294D01*
X127354251Y-77245329D01*
X127355258Y-77483422D01*
X127308042Y-77578861D01*
X127260625Y-77626681D01*
X127165589Y-77674703D01*
X127070352Y-77675106D01*
X126927294Y-77628091D01*
X126353454Y-77059085D01*
X126356072Y-77678127D01*
X127357474Y-78007227D02*
X127360092Y-78626269D01*
X126977733Y-78294550D01*
X126978337Y-78437406D01*
X126931122Y-78532845D01*
X126883704Y-78580665D01*
X126788669Y-78628687D01*
X126550576Y-78629694D01*
X126455137Y-78582478D01*
X126407317Y-78535061D01*
X126359295Y-78440025D01*
X126358087Y-78154313D01*
X126405303Y-78058875D01*
X126452720Y-78011054D01*
X126365137Y-79820965D02*
X127031798Y-79818145D01*
X126936560Y-79818548D02*
X126984380Y-79865965D01*
X127032402Y-79961001D01*
X127033006Y-80103857D01*
X126985790Y-80199295D01*
X126890755Y-80247317D01*
X126366950Y-80249533D01*
X126890755Y-80247317D02*
X126986193Y-80294533D01*
X127034215Y-80389568D01*
X127034819Y-80532424D01*
X126987603Y-80627863D01*
X126892568Y-80675884D01*
X126368763Y-80678100D01*
X126370777Y-81154286D02*
X127037438Y-81151466D01*
X126942200Y-81151869D02*
X126990021Y-81199286D01*
X127038042Y-81294322D01*
X127038646Y-81437178D01*
X126991431Y-81532617D01*
X126896395Y-81580638D01*
X126372590Y-81582854D01*
X126896395Y-81580638D02*
X126991833Y-81627854D01*
X127039855Y-81722890D01*
X127040459Y-81865746D01*
X126993243Y-81961184D01*
X126898208Y-82009206D01*
X126374403Y-82011422D01*
D13*
X125475968Y-62908279D02*
X125602968Y-92931079D01*
X123698000Y-62915800D02*
X126062384Y-62905798D01*
X123825000Y-92938600D02*
X126189384Y-92928598D01*
X125602968Y-92931079D02*
X125011787Y-91807066D01*
X125602968Y-92931079D02*
X126184618Y-91802105D01*
X125475968Y-62908279D02*
X124894318Y-64037253D01*
X125475968Y-62908279D02*
X126067149Y-64032292D01*
D12*
X131758225Y-74099110D02*
X131759081Y-74718157D01*
X131377668Y-74385351D01*
X131377865Y-74528208D01*
X131330378Y-74623512D01*
X131282825Y-74671197D01*
X131187653Y-74718947D01*
X130949558Y-74719276D01*
X130854254Y-74671789D01*
X130806569Y-74624236D01*
X130758818Y-74529064D01*
X130758423Y-74243350D01*
X130805911Y-74148046D01*
X130853464Y-74100361D01*
X131760265Y-75575299D02*
X131760002Y-75384823D01*
X131712252Y-75289651D01*
X131664567Y-75242098D01*
X131521578Y-75147058D01*
X131331036Y-75099702D01*
X130950084Y-75100228D01*
X130854912Y-75147979D01*
X130807359Y-75195664D01*
X130759871Y-75290968D01*
X130760135Y-75481444D01*
X130807885Y-75576616D01*
X130855570Y-75624169D01*
X130950874Y-75671656D01*
X131188969Y-75671327D01*
X131284141Y-75623577D01*
X131331694Y-75575892D01*
X131379182Y-75480588D01*
X131378919Y-75290112D01*
X131331168Y-75194940D01*
X131283483Y-75147387D01*
X131188179Y-75099899D01*
X130856228Y-76100359D02*
X130808675Y-76148044D01*
X130760990Y-76100491D01*
X130808544Y-76052806D01*
X130856228Y-76100359D01*
X130760990Y-76100491D01*
X131761516Y-76480061D02*
X131762437Y-77146727D01*
X130761846Y-76719538D01*
X131763622Y-78003869D02*
X131762964Y-77527679D01*
X131286708Y-77480718D01*
X131334393Y-77528271D01*
X131382144Y-77623443D01*
X131382473Y-77861538D01*
X131334985Y-77956842D01*
X131287432Y-78004527D01*
X131192260Y-78052277D01*
X130954165Y-78052606D01*
X130858861Y-78005119D01*
X130811176Y-77957566D01*
X130763426Y-77862394D01*
X130763097Y-77624299D01*
X130810584Y-77528995D01*
X130858137Y-77481310D01*
X131431540Y-78909090D02*
X130764874Y-78910012D01*
X131812163Y-78670469D02*
X131097548Y-78433361D01*
X131098404Y-79052408D01*
X130766651Y-80195725D02*
X131433317Y-80194803D01*
X131338079Y-80194935D02*
X131385764Y-80242488D01*
X131433514Y-80337660D01*
X131433712Y-80480517D01*
X131386224Y-80575821D01*
X131291052Y-80623572D01*
X130767243Y-80624296D01*
X131291052Y-80623572D02*
X131386356Y-80671059D01*
X131434107Y-80766231D01*
X131434304Y-80909088D01*
X131386817Y-81004392D01*
X131291644Y-81052143D01*
X130767835Y-81052867D01*
X130768494Y-81529057D02*
X131435160Y-81528135D01*
X131339922Y-81528267D02*
X131387606Y-81575820D01*
X131435357Y-81670992D01*
X131435555Y-81813849D01*
X131388067Y-81909153D01*
X131292895Y-81956904D01*
X130769086Y-81957628D01*
X131292895Y-81956904D02*
X131388199Y-82004391D01*
X131435949Y-82099563D01*
X131436147Y-82242420D01*
X131388659Y-82337724D01*
X131293487Y-82385475D01*
X130769678Y-82386199D01*
D13*
X129971800Y-96668995D02*
X129921000Y-59915195D01*
X127508145Y-96672400D02*
X130558220Y-96668184D01*
X127457345Y-59918600D02*
X130507420Y-59914384D01*
X129921000Y-59915195D02*
X130508977Y-61040887D01*
X129921000Y-59915195D02*
X129336137Y-61042508D01*
X129971800Y-96668995D02*
X130556663Y-95541682D01*
X129971800Y-96668995D02*
X129383823Y-95543303D01*
X105645200Y-82958000D02*
X105645200Y-83288000D01*
X112185200Y-82958000D02*
X105645200Y-82958000D01*
X112185200Y-83288000D02*
X112185200Y-82958000D01*
X105645200Y-85698000D02*
X105645200Y-85368000D01*
X112185200Y-85698000D02*
X105645200Y-85698000D01*
X112185200Y-85368000D02*
X112185200Y-85698000D01*
X95369200Y-75946000D02*
X96219200Y-75946000D01*
X112809200Y-75946000D02*
X111959200Y-75946000D01*
X96219200Y-78566000D02*
X111959200Y-78566000D01*
X96219200Y-73326000D02*
X96219200Y-78566000D01*
X111959200Y-73326000D02*
X96219200Y-73326000D01*
X111959200Y-78566000D02*
X111959200Y-73326000D01*
X92852200Y-84814000D02*
X92852200Y-79744000D01*
X102622200Y-84814000D02*
X102622200Y-79744000D01*
X102622200Y-79744000D02*
X92852200Y-79744000D01*
X102622200Y-84814000D02*
X92852200Y-84814000D01*
X92852200Y-90654000D02*
X92852200Y-85584000D01*
X102622200Y-90654000D02*
X102622200Y-85584000D01*
X102622200Y-85584000D02*
X92852200Y-85584000D01*
X102622200Y-90654000D02*
X92852200Y-90654000D01*
X69677200Y-62324000D02*
X72837200Y-62324000D01*
X69677200Y-62324000D02*
X69677200Y-85044000D01*
X79497200Y-62324000D02*
X79497200Y-85044000D01*
X76337200Y-62324000D02*
X79497200Y-62324000D01*
X76337200Y-85044000D02*
X79497200Y-85044000D01*
X69677200Y-85044000D02*
X72837200Y-85044000D01*
X105947636Y-81544000D02*
X107151764Y-81544000D01*
X105947636Y-79724000D02*
X107151764Y-79724000D01*
X100847200Y-91584000D02*
X100847200Y-91914000D01*
X107387200Y-91584000D02*
X100847200Y-91584000D01*
X107387200Y-91914000D02*
X107387200Y-91584000D01*
X100847200Y-94324000D02*
X100847200Y-93994000D01*
X107387200Y-94324000D02*
X100847200Y-94324000D01*
X107387200Y-93994000D02*
X107387200Y-94324000D01*
X88217200Y-74774000D02*
X88217200Y-74444000D01*
X81677200Y-74774000D02*
X88217200Y-74774000D01*
X81677200Y-74444000D02*
X81677200Y-74774000D01*
X88217200Y-72034000D02*
X88217200Y-72364000D01*
X81677200Y-72034000D02*
X88217200Y-72034000D01*
X81677200Y-72364000D02*
X81677200Y-72034000D01*
X68197200Y-94534000D02*
X67447200Y-95284000D01*
X67147200Y-95584000D02*
X66397200Y-96334000D01*
X66397200Y-96334000D02*
X52797200Y-96334000D01*
X52797200Y-96334000D02*
X52797200Y-80934000D01*
X52797200Y-80934000D02*
X68197200Y-80934000D01*
X68197200Y-80934000D02*
X68197200Y-94534000D01*
X112655136Y-81464000D02*
X113859264Y-81464000D01*
X112655136Y-79644000D02*
X113859264Y-79644000D01*
X110127636Y-70702000D02*
X111331764Y-70702000D01*
X110127636Y-67982000D02*
X111331764Y-67982000D01*
X122913200Y-70104000D02*
G75*
G03X122913200Y-70104000I-4120000J0D01*
G01*
X86637200Y-64034000D02*
G75*
G03X86637200Y-64034000I-2620000J0D01*
G01*
X109567200Y-87764000D02*
X109567200Y-90504000D01*
X104327200Y-87764000D02*
X104327200Y-90504000D01*
X104327200Y-90504000D02*
X109567200Y-90504000D01*
X104327200Y-87764000D02*
X109567200Y-87764000D01*
X93347200Y-93319436D02*
X93347200Y-94523564D01*
X95167200Y-93319436D02*
X95167200Y-94523564D01*
X113993200Y-90734000D02*
X112533200Y-90734000D01*
X113993200Y-87574000D02*
X111833200Y-87574000D01*
X113993200Y-87574000D02*
X113993200Y-88504000D01*
X113993200Y-90734000D02*
X113993200Y-89804000D01*
X117677200Y-84194000D02*
X117677200Y-82864000D01*
X119007200Y-84194000D02*
X117677200Y-84194000D01*
X120277200Y-84194000D02*
X120277200Y-81534000D01*
X120277200Y-81534000D02*
X122877200Y-81534000D01*
X120277200Y-84194000D02*
X122877200Y-84194000D01*
X122877200Y-84194000D02*
X122877200Y-81534000D01*
X80777200Y-92154000D02*
G75*
G03X80777200Y-92154000I-4120000J0D01*
G01*
X108518200Y-60174000D02*
X108518200Y-61684000D01*
X104817200Y-60174000D02*
X104817200Y-61684000D01*
X101547200Y-61684000D02*
X111787200Y-61684000D01*
X111787200Y-60174000D02*
X111787200Y-64815000D01*
X101547200Y-60174000D02*
X101547200Y-64815000D01*
X101547200Y-64815000D02*
X111787200Y-64815000D01*
X101547200Y-60174000D02*
X111787200Y-60174000D01*
X117707200Y-78292000D02*
X117707200Y-76962000D01*
X119037200Y-78292000D02*
X117707200Y-78292000D01*
X120307200Y-78292000D02*
X120307200Y-75632000D01*
X120307200Y-75632000D02*
X122907200Y-75632000D01*
X120307200Y-78292000D02*
X122907200Y-78292000D01*
X122907200Y-78292000D02*
X122907200Y-75632000D01*
X47657200Y-83604000D02*
X48987200Y-83604000D01*
X47657200Y-84934000D02*
X47657200Y-83604000D01*
X47657200Y-86204000D02*
X50317200Y-86204000D01*
X50317200Y-86204000D02*
X50317200Y-88804000D01*
X47657200Y-86204000D02*
X47657200Y-88804000D01*
X47657200Y-88804000D02*
X50317200Y-88804000D01*
X68097200Y-70914000D02*
G75*
G03X68097200Y-70914000I-9120000J0D01*
G01*
X88959200Y-76190800D02*
X87309200Y-76190800D01*
X88959200Y-94090800D02*
X88959200Y-76190800D01*
X83659200Y-94090800D02*
X88959200Y-94090800D01*
X83659200Y-76190800D02*
X83659200Y-94090800D01*
X85309200Y-76190800D02*
X83659200Y-76190800D01*
X87309200Y-76190800D02*
G75*
G02X85309200Y-76190800I-1000000J0D01*
G01*
X95007200Y-63532000D02*
X94677200Y-63532000D01*
X95007200Y-70072000D02*
X95007200Y-63532000D01*
X94677200Y-70072000D02*
X95007200Y-70072000D01*
X92267200Y-63532000D02*
X92597200Y-63532000D01*
X92267200Y-70072000D02*
X92267200Y-63532000D01*
X92597200Y-70072000D02*
X92267200Y-70072000D01*
X96587200Y-70024000D02*
X96917200Y-70024000D01*
X96587200Y-63484000D02*
X96587200Y-70024000D01*
X96917200Y-63484000D02*
X96587200Y-63484000D01*
X99327200Y-70024000D02*
X98997200Y-70024000D01*
X99327200Y-63484000D02*
X99327200Y-70024000D01*
X98997200Y-63484000D02*
X99327200Y-63484000D01*
D12*
X114844533Y-85288380D02*
X114511200Y-84812190D01*
X114273104Y-85288380D02*
X114273104Y-84288380D01*
X114654057Y-84288380D01*
X114749295Y-84336000D01*
X114796914Y-84383619D01*
X114844533Y-84478857D01*
X114844533Y-84621714D01*
X114796914Y-84716952D01*
X114749295Y-84764571D01*
X114654057Y-84812190D01*
X114273104Y-84812190D01*
X115701676Y-84288380D02*
X115511200Y-84288380D01*
X115415961Y-84336000D01*
X115368342Y-84383619D01*
X115273104Y-84526476D01*
X115225485Y-84716952D01*
X115225485Y-85097904D01*
X115273104Y-85193142D01*
X115320723Y-85240761D01*
X115415961Y-85288380D01*
X115606438Y-85288380D01*
X115701676Y-85240761D01*
X115749295Y-85193142D01*
X115796914Y-85097904D01*
X115796914Y-84859809D01*
X115749295Y-84764571D01*
X115701676Y-84716952D01*
X115606438Y-84669333D01*
X115415961Y-84669333D01*
X115320723Y-84716952D01*
X115273104Y-84764571D01*
X115225485Y-84859809D01*
X95032533Y-74620380D02*
X94699200Y-74144190D01*
X94461104Y-74620380D02*
X94461104Y-73620380D01*
X94842057Y-73620380D01*
X94937295Y-73668000D01*
X94984914Y-73715619D01*
X95032533Y-73810857D01*
X95032533Y-73953714D01*
X94984914Y-74048952D01*
X94937295Y-74096571D01*
X94842057Y-74144190D01*
X94461104Y-74144190D01*
X95889676Y-73953714D02*
X95889676Y-74620380D01*
X95651580Y-73572761D02*
X95413485Y-74287047D01*
X96032533Y-74287047D01*
X95190533Y-79286380D02*
X94857200Y-78810190D01*
X94619104Y-79286380D02*
X94619104Y-78286380D01*
X95000057Y-78286380D01*
X95095295Y-78334000D01*
X95142914Y-78381619D01*
X95190533Y-78476857D01*
X95190533Y-78619714D01*
X95142914Y-78714952D01*
X95095295Y-78762571D01*
X95000057Y-78810190D01*
X94619104Y-78810190D01*
X95523866Y-78286380D02*
X96190533Y-78286380D01*
X95761961Y-79286380D01*
X96950533Y-91936380D02*
X96617200Y-91460190D01*
X96379104Y-91936380D02*
X96379104Y-90936380D01*
X96760057Y-90936380D01*
X96855295Y-90984000D01*
X96902914Y-91031619D01*
X96950533Y-91126857D01*
X96950533Y-91269714D01*
X96902914Y-91364952D01*
X96855295Y-91412571D01*
X96760057Y-91460190D01*
X96379104Y-91460190D01*
X97902914Y-91936380D02*
X97331485Y-91936380D01*
X97617200Y-91936380D02*
X97617200Y-90936380D01*
X97521961Y-91079238D01*
X97426723Y-91174476D01*
X97331485Y-91222095D01*
X68711771Y-77549333D02*
X68711771Y-77882666D01*
X69235580Y-77882666D02*
X68235580Y-77882666D01*
X68235580Y-77406476D01*
X69235580Y-76501714D02*
X69235580Y-77073142D01*
X69235580Y-76787428D02*
X68235580Y-76787428D01*
X68378438Y-76882666D01*
X68473676Y-76977904D01*
X68521295Y-77073142D01*
X107478533Y-79446380D02*
X107145200Y-78970190D01*
X106907104Y-79446380D02*
X106907104Y-78446380D01*
X107288057Y-78446380D01*
X107383295Y-78494000D01*
X107430914Y-78541619D01*
X107478533Y-78636857D01*
X107478533Y-78779714D01*
X107430914Y-78874952D01*
X107383295Y-78922571D01*
X107288057Y-78970190D01*
X106907104Y-78970190D01*
X107954723Y-79446380D02*
X108145200Y-79446380D01*
X108240438Y-79398761D01*
X108288057Y-79351142D01*
X108383295Y-79208285D01*
X108430914Y-79017809D01*
X108430914Y-78636857D01*
X108383295Y-78541619D01*
X108335676Y-78494000D01*
X108240438Y-78446380D01*
X108049961Y-78446380D01*
X107954723Y-78494000D01*
X107907104Y-78541619D01*
X107859485Y-78636857D01*
X107859485Y-78874952D01*
X107907104Y-78970190D01*
X107954723Y-79017809D01*
X108049961Y-79065428D01*
X108240438Y-79065428D01*
X108335676Y-79017809D01*
X108383295Y-78970190D01*
X108430914Y-78874952D01*
X109740533Y-93396380D02*
X109407200Y-92920190D01*
X109169104Y-93396380D02*
X109169104Y-92396380D01*
X109550057Y-92396380D01*
X109645295Y-92444000D01*
X109692914Y-92491619D01*
X109740533Y-92586857D01*
X109740533Y-92729714D01*
X109692914Y-92824952D01*
X109645295Y-92872571D01*
X109550057Y-92920190D01*
X109169104Y-92920190D01*
X110311961Y-92824952D02*
X110216723Y-92777333D01*
X110169104Y-92729714D01*
X110121485Y-92634476D01*
X110121485Y-92586857D01*
X110169104Y-92491619D01*
X110216723Y-92444000D01*
X110311961Y-92396380D01*
X110502438Y-92396380D01*
X110597676Y-92444000D01*
X110645295Y-92491619D01*
X110692914Y-92586857D01*
X110692914Y-92634476D01*
X110645295Y-92729714D01*
X110597676Y-92777333D01*
X110502438Y-92824952D01*
X110311961Y-92824952D01*
X110216723Y-92872571D01*
X110169104Y-92920190D01*
X110121485Y-93015428D01*
X110121485Y-93205904D01*
X110169104Y-93301142D01*
X110216723Y-93348761D01*
X110311961Y-93396380D01*
X110502438Y-93396380D01*
X110597676Y-93348761D01*
X110645295Y-93301142D01*
X110692914Y-93205904D01*
X110692914Y-93015428D01*
X110645295Y-92920190D01*
X110597676Y-92872571D01*
X110502438Y-92824952D01*
X87920533Y-71572380D02*
X87587200Y-71096190D01*
X87349104Y-71572380D02*
X87349104Y-70572380D01*
X87730057Y-70572380D01*
X87825295Y-70620000D01*
X87872914Y-70667619D01*
X87920533Y-70762857D01*
X87920533Y-70905714D01*
X87872914Y-71000952D01*
X87825295Y-71048571D01*
X87730057Y-71096190D01*
X87349104Y-71096190D01*
X88301485Y-70667619D02*
X88349104Y-70620000D01*
X88444342Y-70572380D01*
X88682438Y-70572380D01*
X88777676Y-70620000D01*
X88825295Y-70667619D01*
X88872914Y-70762857D01*
X88872914Y-70858095D01*
X88825295Y-71000952D01*
X88253866Y-71572380D01*
X88872914Y-71572380D01*
X68045104Y-95956380D02*
X68045104Y-94956380D01*
X68283200Y-94956380D01*
X68426057Y-95004000D01*
X68521295Y-95099238D01*
X68568914Y-95194476D01*
X68616533Y-95384952D01*
X68616533Y-95527809D01*
X68568914Y-95718285D01*
X68521295Y-95813523D01*
X68426057Y-95908761D01*
X68283200Y-95956380D01*
X68045104Y-95956380D01*
X69568914Y-95956380D02*
X68997485Y-95956380D01*
X69283200Y-95956380D02*
X69283200Y-94956380D01*
X69187961Y-95099238D01*
X69092723Y-95194476D01*
X68997485Y-95242095D01*
X115352533Y-79091142D02*
X115304914Y-79138761D01*
X115162057Y-79186380D01*
X115066819Y-79186380D01*
X114923961Y-79138761D01*
X114828723Y-79043523D01*
X114781104Y-78948285D01*
X114733485Y-78757809D01*
X114733485Y-78614952D01*
X114781104Y-78424476D01*
X114828723Y-78329238D01*
X114923961Y-78234000D01*
X115066819Y-78186380D01*
X115162057Y-78186380D01*
X115304914Y-78234000D01*
X115352533Y-78281619D01*
X115923961Y-78614952D02*
X115828723Y-78567333D01*
X115781104Y-78519714D01*
X115733485Y-78424476D01*
X115733485Y-78376857D01*
X115781104Y-78281619D01*
X115828723Y-78234000D01*
X115923961Y-78186380D01*
X116114438Y-78186380D01*
X116209676Y-78234000D01*
X116257295Y-78281619D01*
X116304914Y-78376857D01*
X116304914Y-78424476D01*
X116257295Y-78519714D01*
X116209676Y-78567333D01*
X116114438Y-78614952D01*
X115923961Y-78614952D01*
X115828723Y-78662571D01*
X115781104Y-78710190D01*
X115733485Y-78805428D01*
X115733485Y-78995904D01*
X115781104Y-79091142D01*
X115828723Y-79138761D01*
X115923961Y-79186380D01*
X116114438Y-79186380D01*
X116209676Y-79138761D01*
X116257295Y-79091142D01*
X116304914Y-78995904D01*
X116304914Y-78805428D01*
X116257295Y-78710190D01*
X116209676Y-78662571D01*
X116114438Y-78614952D01*
X111542533Y-67413142D02*
X111494914Y-67460761D01*
X111352057Y-67508380D01*
X111256819Y-67508380D01*
X111113961Y-67460761D01*
X111018723Y-67365523D01*
X110971104Y-67270285D01*
X110923485Y-67079809D01*
X110923485Y-66936952D01*
X110971104Y-66746476D01*
X111018723Y-66651238D01*
X111113961Y-66556000D01*
X111256819Y-66508380D01*
X111352057Y-66508380D01*
X111494914Y-66556000D01*
X111542533Y-66603619D01*
X111875866Y-66508380D02*
X112542533Y-66508380D01*
X112113961Y-67508380D01*
X115860533Y-65635142D02*
X115812914Y-65682761D01*
X115670057Y-65730380D01*
X115574819Y-65730380D01*
X115431961Y-65682761D01*
X115336723Y-65587523D01*
X115289104Y-65492285D01*
X115241485Y-65301809D01*
X115241485Y-65158952D01*
X115289104Y-64968476D01*
X115336723Y-64873238D01*
X115431961Y-64778000D01*
X115574819Y-64730380D01*
X115670057Y-64730380D01*
X115812914Y-64778000D01*
X115860533Y-64825619D01*
X116717676Y-64730380D02*
X116527200Y-64730380D01*
X116431961Y-64778000D01*
X116384342Y-64825619D01*
X116289104Y-64968476D01*
X116241485Y-65158952D01*
X116241485Y-65539904D01*
X116289104Y-65635142D01*
X116336723Y-65682761D01*
X116431961Y-65730380D01*
X116622438Y-65730380D01*
X116717676Y-65682761D01*
X116765295Y-65635142D01*
X116812914Y-65539904D01*
X116812914Y-65301809D01*
X116765295Y-65206571D01*
X116717676Y-65158952D01*
X116622438Y-65111333D01*
X116431961Y-65111333D01*
X116336723Y-65158952D01*
X116289104Y-65206571D01*
X116241485Y-65301809D01*
X87158533Y-62587142D02*
X87110914Y-62634761D01*
X86968057Y-62682380D01*
X86872819Y-62682380D01*
X86729961Y-62634761D01*
X86634723Y-62539523D01*
X86587104Y-62444285D01*
X86539485Y-62253809D01*
X86539485Y-62110952D01*
X86587104Y-61920476D01*
X86634723Y-61825238D01*
X86729961Y-61730000D01*
X86872819Y-61682380D01*
X86968057Y-61682380D01*
X87110914Y-61730000D01*
X87158533Y-61777619D01*
X88063295Y-61682380D02*
X87587104Y-61682380D01*
X87539485Y-62158571D01*
X87587104Y-62110952D01*
X87682342Y-62063333D01*
X87920438Y-62063333D01*
X88015676Y-62110952D01*
X88063295Y-62158571D01*
X88110914Y-62253809D01*
X88110914Y-62491904D01*
X88063295Y-62587142D01*
X88015676Y-62634761D01*
X87920438Y-62682380D01*
X87682342Y-62682380D01*
X87587104Y-62634761D01*
X87539485Y-62587142D01*
X110272533Y-88749142D02*
X110224914Y-88796761D01*
X110082057Y-88844380D01*
X109986819Y-88844380D01*
X109843961Y-88796761D01*
X109748723Y-88701523D01*
X109701104Y-88606285D01*
X109653485Y-88415809D01*
X109653485Y-88272952D01*
X109701104Y-88082476D01*
X109748723Y-87987238D01*
X109843961Y-87892000D01*
X109986819Y-87844380D01*
X110082057Y-87844380D01*
X110224914Y-87892000D01*
X110272533Y-87939619D01*
X111129676Y-88177714D02*
X111129676Y-88844380D01*
X110891580Y-87796761D02*
X110653485Y-88511047D01*
X111272533Y-88511047D01*
X96434342Y-93638666D02*
X96481961Y-93686285D01*
X96529580Y-93829142D01*
X96529580Y-93924380D01*
X96481961Y-94067238D01*
X96386723Y-94162476D01*
X96291485Y-94210095D01*
X96101009Y-94257714D01*
X95958152Y-94257714D01*
X95767676Y-94210095D01*
X95672438Y-94162476D01*
X95577200Y-94067238D01*
X95529580Y-93924380D01*
X95529580Y-93829142D01*
X95577200Y-93686285D01*
X95624819Y-93638666D01*
X95529580Y-93305333D02*
X95529580Y-92686285D01*
X95910533Y-93019619D01*
X95910533Y-92876761D01*
X95958152Y-92781523D01*
X96005771Y-92733904D01*
X96101009Y-92686285D01*
X96339104Y-92686285D01*
X96434342Y-92733904D01*
X96481961Y-92781523D01*
X96529580Y-92876761D01*
X96529580Y-93162476D01*
X96481961Y-93257714D01*
X96434342Y-93305333D01*
X115011295Y-88606380D02*
X115011295Y-89415904D01*
X115058914Y-89511142D01*
X115106533Y-89558761D01*
X115201771Y-89606380D01*
X115392247Y-89606380D01*
X115487485Y-89558761D01*
X115535104Y-89511142D01*
X115582723Y-89415904D01*
X115582723Y-88606380D01*
X116011295Y-88701619D02*
X116058914Y-88654000D01*
X116154152Y-88606380D01*
X116392247Y-88606380D01*
X116487485Y-88654000D01*
X116535104Y-88701619D01*
X116582723Y-88796857D01*
X116582723Y-88892095D01*
X116535104Y-89034952D01*
X115963676Y-89606380D01*
X116582723Y-89606380D01*
X120265866Y-85050380D02*
X120265866Y-85764666D01*
X120218247Y-85907523D01*
X120123009Y-86002761D01*
X119980152Y-86050380D01*
X119884914Y-86050380D01*
X120646819Y-85050380D02*
X121265866Y-85050380D01*
X120932533Y-85431333D01*
X121075390Y-85431333D01*
X121170628Y-85478952D01*
X121218247Y-85526571D01*
X121265866Y-85621809D01*
X121265866Y-85859904D01*
X121218247Y-85955142D01*
X121170628Y-86002761D01*
X121075390Y-86050380D01*
X120789676Y-86050380D01*
X120694438Y-86002761D01*
X120646819Y-85955142D01*
X71286533Y-91797142D02*
X71238914Y-91844761D01*
X71096057Y-91892380D01*
X71000819Y-91892380D01*
X70857961Y-91844761D01*
X70762723Y-91749523D01*
X70715104Y-91654285D01*
X70667485Y-91463809D01*
X70667485Y-91320952D01*
X70715104Y-91130476D01*
X70762723Y-91035238D01*
X70857961Y-90940000D01*
X71000819Y-90892380D01*
X71096057Y-90892380D01*
X71238914Y-90940000D01*
X71286533Y-90987619D01*
X71667485Y-90987619D02*
X71715104Y-90940000D01*
X71810342Y-90892380D01*
X72048438Y-90892380D01*
X72143676Y-90940000D01*
X72191295Y-90987619D01*
X72238914Y-91082857D01*
X72238914Y-91178095D01*
X72191295Y-91320952D01*
X71619866Y-91892380D01*
X72238914Y-91892380D01*
X113125161Y-64042419D02*
X113029923Y-63994800D01*
X112934685Y-63899561D01*
X112791828Y-63756704D01*
X112696590Y-63709085D01*
X112601352Y-63709085D01*
X112648971Y-63947180D02*
X112553733Y-63899561D01*
X112458495Y-63804323D01*
X112410876Y-63613847D01*
X112410876Y-63280514D01*
X112458495Y-63090038D01*
X112553733Y-62994800D01*
X112648971Y-62947180D01*
X112839447Y-62947180D01*
X112934685Y-62994800D01*
X113029923Y-63090038D01*
X113077542Y-63280514D01*
X113077542Y-63613847D01*
X113029923Y-63804323D01*
X112934685Y-63899561D01*
X112839447Y-63947180D01*
X112648971Y-63947180D01*
X114029923Y-63947180D02*
X113458495Y-63947180D01*
X113744209Y-63947180D02*
X113744209Y-62947180D01*
X113648971Y-63090038D01*
X113553733Y-63185276D01*
X113458495Y-63232895D01*
X120265866Y-78446380D02*
X120265866Y-79160666D01*
X120218247Y-79303523D01*
X120123009Y-79398761D01*
X119980152Y-79446380D01*
X119884914Y-79446380D01*
X120694438Y-78541619D02*
X120742057Y-78494000D01*
X120837295Y-78446380D01*
X121075390Y-78446380D01*
X121170628Y-78494000D01*
X121218247Y-78541619D01*
X121265866Y-78636857D01*
X121265866Y-78732095D01*
X121218247Y-78874952D01*
X120646819Y-79446380D01*
X121265866Y-79446380D01*
X48653866Y-82056380D02*
X48653866Y-82770666D01*
X48606247Y-82913523D01*
X48511009Y-83008761D01*
X48368152Y-83056380D01*
X48272914Y-83056380D01*
X49653866Y-83056380D02*
X49082438Y-83056380D01*
X49368152Y-83056380D02*
X49368152Y-82056380D01*
X49272914Y-82199238D01*
X49177676Y-82294476D01*
X49082438Y-82342095D01*
X66584533Y-64619142D02*
X66536914Y-64666761D01*
X66394057Y-64714380D01*
X66298819Y-64714380D01*
X66155961Y-64666761D01*
X66060723Y-64571523D01*
X66013104Y-64476285D01*
X65965485Y-64285809D01*
X65965485Y-64142952D01*
X66013104Y-63952476D01*
X66060723Y-63857238D01*
X66155961Y-63762000D01*
X66298819Y-63714380D01*
X66394057Y-63714380D01*
X66536914Y-63762000D01*
X66584533Y-63809619D01*
X67536914Y-64714380D02*
X66965485Y-64714380D01*
X67251200Y-64714380D02*
X67251200Y-63714380D01*
X67155961Y-63857238D01*
X67060723Y-63952476D01*
X66965485Y-64000095D01*
X81737295Y-94702380D02*
X81737295Y-95511904D01*
X81784914Y-95607142D01*
X81832533Y-95654761D01*
X81927771Y-95702380D01*
X82118247Y-95702380D01*
X82213485Y-95654761D01*
X82261104Y-95607142D01*
X82308723Y-95511904D01*
X82308723Y-94702380D01*
X83308723Y-95702380D02*
X82737295Y-95702380D01*
X83023009Y-95702380D02*
X83023009Y-94702380D01*
X82927771Y-94845238D01*
X82832533Y-94940476D01*
X82737295Y-94988095D01*
X90968533Y-64130380D02*
X90635200Y-63654190D01*
X90397104Y-64130380D02*
X90397104Y-63130380D01*
X90778057Y-63130380D01*
X90873295Y-63178000D01*
X90920914Y-63225619D01*
X90968533Y-63320857D01*
X90968533Y-63463714D01*
X90920914Y-63558952D01*
X90873295Y-63606571D01*
X90778057Y-63654190D01*
X90397104Y-63654190D01*
X91873295Y-63130380D02*
X91397104Y-63130380D01*
X91349485Y-63606571D01*
X91397104Y-63558952D01*
X91492342Y-63511333D01*
X91730438Y-63511333D01*
X91825676Y-63558952D01*
X91873295Y-63606571D01*
X91920914Y-63701809D01*
X91920914Y-63939904D01*
X91873295Y-64035142D01*
X91825676Y-64082761D01*
X91730438Y-64130380D01*
X91492342Y-64130380D01*
X91397104Y-64082761D01*
X91349485Y-64035142D01*
X100366533Y-67508380D02*
X100033200Y-67032190D01*
X99795104Y-67508380D02*
X99795104Y-66508380D01*
X100176057Y-66508380D01*
X100271295Y-66556000D01*
X100318914Y-66603619D01*
X100366533Y-66698857D01*
X100366533Y-66841714D01*
X100318914Y-66936952D01*
X100271295Y-66984571D01*
X100176057Y-67032190D01*
X99795104Y-67032190D01*
X100699866Y-66508380D02*
X101318914Y-66508380D01*
X100985580Y-66889333D01*
X101128438Y-66889333D01*
X101223676Y-66936952D01*
X101271295Y-66984571D01*
X101318914Y-67079809D01*
X101318914Y-67317904D01*
X101271295Y-67413142D01*
X101223676Y-67460761D01*
X101128438Y-67508380D01*
X100842723Y-67508380D01*
X100747485Y-67460761D01*
X100699866Y-67413142D01*
M02*
