G04 #@! TF.GenerationSoftware,KiCad,Pcbnew,5.1.6+dfsg1-1*
G04 #@! TF.CreationDate,2020-07-23T09:40:13+02:00*
G04 #@! TF.ProjectId,lownoise-pwr,6c6f776e-6f69-4736-952d-7077722e6b69,rev?*
G04 #@! TF.SameCoordinates,Original*
G04 #@! TF.FileFunction,Copper,L1,Top*
G04 #@! TF.FilePolarity,Positive*
%FSLAX46Y46*%
G04 Gerber Fmt 4.6, Leading zero omitted, Abs format (unit mm)*
G04 Created by KiCad (PCBNEW 5.1.6+dfsg1-1) date 2020-07-23 09:40:13*
%MOMM*%
%LPD*%
G01*
G04 APERTURE LIST*
G04 #@! TA.AperFunction,NonConductor*
%ADD10C,0.300000*%
G04 #@! TD*
G04 #@! TA.AperFunction,ComponentPad*
%ADD11C,2.400000*%
G04 #@! TD*
G04 #@! TA.AperFunction,ComponentPad*
%ADD12R,2.400000X2.400000*%
G04 #@! TD*
G04 #@! TA.AperFunction,ComponentPad*
%ADD13O,2.500000X4.500000*%
G04 #@! TD*
G04 #@! TA.AperFunction,ComponentPad*
%ADD14R,2.500000X4.500000*%
G04 #@! TD*
G04 #@! TA.AperFunction,ComponentPad*
%ADD15O,2.400000X2.400000*%
G04 #@! TD*
G04 #@! TA.AperFunction,ComponentPad*
%ADD16C,2.600000*%
G04 #@! TD*
G04 #@! TA.AperFunction,ComponentPad*
%ADD17R,2.600000X2.600000*%
G04 #@! TD*
G04 #@! TA.AperFunction,ComponentPad*
%ADD18C,3.000000*%
G04 #@! TD*
G04 #@! TA.AperFunction,ComponentPad*
%ADD19C,2.000000*%
G04 #@! TD*
G04 #@! TA.AperFunction,ComponentPad*
%ADD20O,1.600000X1.600000*%
G04 #@! TD*
G04 #@! TA.AperFunction,ComponentPad*
%ADD21C,1.600000*%
G04 #@! TD*
G04 #@! TA.AperFunction,ComponentPad*
%ADD22C,1.440000*%
G04 #@! TD*
G04 #@! TA.AperFunction,ComponentPad*
%ADD23C,1.200000*%
G04 #@! TD*
G04 #@! TA.AperFunction,SMDPad,CuDef*
%ADD24R,0.900000X0.800000*%
G04 #@! TD*
G04 #@! TA.AperFunction,ComponentPad*
%ADD25O,1.700000X1.700000*%
G04 #@! TD*
G04 #@! TA.AperFunction,ComponentPad*
%ADD26R,1.700000X1.700000*%
G04 #@! TD*
G04 #@! TA.AperFunction,ComponentPad*
%ADD27R,1.600000X1.600000*%
G04 #@! TD*
G04 #@! TA.AperFunction,ViaPad*
%ADD28C,4.000000*%
G04 #@! TD*
G04 #@! TA.AperFunction,ViaPad*
%ADD29C,0.800000*%
G04 #@! TD*
G04 #@! TA.AperFunction,ViaPad*
%ADD30C,1.500000*%
G04 #@! TD*
G04 #@! TA.AperFunction,Conductor*
%ADD31C,0.250000*%
G04 #@! TD*
G04 #@! TA.AperFunction,Conductor*
%ADD32C,2.000000*%
G04 #@! TD*
G04 #@! TA.AperFunction,Conductor*
%ADD33C,1.000000*%
G04 #@! TD*
G04 #@! TA.AperFunction,Conductor*
%ADD34C,0.500000*%
G04 #@! TD*
G04 APERTURE END LIST*
D10*
X107963200Y-96182571D02*
X107963200Y-94682571D01*
X108320342Y-94682571D01*
X108534628Y-94754000D01*
X108677485Y-94896857D01*
X108748914Y-95039714D01*
X108820342Y-95325428D01*
X108820342Y-95539714D01*
X108748914Y-95825428D01*
X108677485Y-95968285D01*
X108534628Y-96111142D01*
X108320342Y-96182571D01*
X107963200Y-96182571D01*
X109748914Y-94682571D02*
X110034628Y-94682571D01*
X110177485Y-94754000D01*
X110320342Y-94896857D01*
X110391771Y-95182571D01*
X110391771Y-95682571D01*
X110320342Y-95968285D01*
X110177485Y-96111142D01*
X110034628Y-96182571D01*
X109748914Y-96182571D01*
X109606057Y-96111142D01*
X109463200Y-95968285D01*
X109391771Y-95682571D01*
X109391771Y-95182571D01*
X109463200Y-94896857D01*
X109606057Y-94754000D01*
X109748914Y-94682571D01*
X111820342Y-96182571D02*
X110963200Y-96182571D01*
X111391771Y-96182571D02*
X111391771Y-94682571D01*
X111248914Y-94896857D01*
X111106057Y-95039714D01*
X110963200Y-95111142D01*
X112391771Y-96111142D02*
X112606057Y-96182571D01*
X112963200Y-96182571D01*
X113106057Y-96111142D01*
X113177485Y-96039714D01*
X113248914Y-95896857D01*
X113248914Y-95754000D01*
X113177485Y-95611142D01*
X113106057Y-95539714D01*
X112963200Y-95468285D01*
X112677485Y-95396857D01*
X112534628Y-95325428D01*
X112463200Y-95254000D01*
X112391771Y-95111142D01*
X112391771Y-94968285D01*
X112463200Y-94825428D01*
X112534628Y-94754000D01*
X112677485Y-94682571D01*
X113034628Y-94682571D01*
X113248914Y-94754000D01*
X114606057Y-96182571D02*
X113891771Y-96182571D01*
X113891771Y-94682571D01*
X115391771Y-94682571D02*
X115677485Y-94682571D01*
X115820342Y-94754000D01*
X115963200Y-94896857D01*
X116034628Y-95182571D01*
X116034628Y-95682571D01*
X115963200Y-95968285D01*
X115820342Y-96111142D01*
X115677485Y-96182571D01*
X115391771Y-96182571D01*
X115248914Y-96111142D01*
X115106057Y-95968285D01*
X115034628Y-95682571D01*
X115034628Y-95182571D01*
X115106057Y-94896857D01*
X115248914Y-94754000D01*
X115391771Y-94682571D01*
D11*
X67999200Y-93958000D03*
X67999200Y-83058000D03*
D12*
X57099200Y-83058000D03*
D11*
X57199200Y-93958000D03*
D13*
X113211200Y-62738000D03*
X107761200Y-62738000D03*
D14*
X102311200Y-62738000D03*
D15*
X96469200Y-69850000D03*
D11*
X96469200Y-74930000D03*
D16*
X117297200Y-70358000D03*
D17*
X117297200Y-75438000D03*
D18*
X75895200Y-85492000D03*
X75895200Y-62992000D03*
D16*
X48209200Y-86254000D03*
D17*
X48209200Y-81174000D03*
D19*
X63583200Y-69850000D03*
X56083200Y-69850000D03*
D11*
X57199200Y-93958000D03*
D12*
X57099200Y-83058000D03*
D11*
X67999200Y-83058000D03*
X67999200Y-93958000D03*
D20*
X105105200Y-84328000D03*
D21*
X112725200Y-84328000D03*
D22*
X100277200Y-82284000D03*
X97737200Y-82284000D03*
X95197200Y-82284000D03*
X100277200Y-88124000D03*
X97737200Y-88124000D03*
X95197200Y-88124000D03*
G04 #@! TA.AperFunction,SMDPad,CuDef*
G36*
G01*
X107324700Y-81259000D02*
X107324700Y-80009000D01*
G75*
G02*
X107574700Y-79759000I250000J0D01*
G01*
X108499700Y-79759000D01*
G75*
G02*
X108749700Y-80009000I0J-250000D01*
G01*
X108749700Y-81259000D01*
G75*
G02*
X108499700Y-81509000I-250000J0D01*
G01*
X107574700Y-81509000D01*
G75*
G02*
X107324700Y-81259000I0J250000D01*
G01*
G37*
G04 #@! TD.AperFunction*
G04 #@! TA.AperFunction,SMDPad,CuDef*
G36*
G01*
X104349700Y-81259000D02*
X104349700Y-80009000D01*
G75*
G02*
X104599700Y-79759000I250000J0D01*
G01*
X105524700Y-79759000D01*
G75*
G02*
X105774700Y-80009000I0J-250000D01*
G01*
X105774700Y-81259000D01*
G75*
G02*
X105524700Y-81509000I-250000J0D01*
G01*
X104599700Y-81509000D01*
G75*
G02*
X104349700Y-81259000I0J250000D01*
G01*
G37*
G04 #@! TD.AperFunction*
D20*
X100307200Y-92954000D03*
D21*
X107927200Y-92954000D03*
D20*
X90119200Y-73404000D03*
D21*
X82499200Y-73404000D03*
G04 #@! TA.AperFunction,SMDPad,CuDef*
G36*
G01*
X114032200Y-81179000D02*
X114032200Y-79929000D01*
G75*
G02*
X114282200Y-79679000I250000J0D01*
G01*
X115207200Y-79679000D01*
G75*
G02*
X115457200Y-79929000I0J-250000D01*
G01*
X115457200Y-81179000D01*
G75*
G02*
X115207200Y-81429000I-250000J0D01*
G01*
X114282200Y-81429000D01*
G75*
G02*
X114032200Y-81179000I0J250000D01*
G01*
G37*
G04 #@! TD.AperFunction*
G04 #@! TA.AperFunction,SMDPad,CuDef*
G36*
G01*
X111057200Y-81179000D02*
X111057200Y-79929000D01*
G75*
G02*
X111307200Y-79679000I250000J0D01*
G01*
X112232200Y-79679000D01*
G75*
G02*
X112482200Y-79929000I0J-250000D01*
G01*
X112482200Y-81179000D01*
G75*
G02*
X112232200Y-81429000I-250000J0D01*
G01*
X111307200Y-81429000D01*
G75*
G02*
X111057200Y-81179000I0J250000D01*
G01*
G37*
G04 #@! TD.AperFunction*
G04 #@! TA.AperFunction,SMDPad,CuDef*
G36*
G01*
X116476200Y-90400500D02*
X118626200Y-90400500D01*
G75*
G02*
X118876200Y-90650500I0J-250000D01*
G01*
X118876200Y-91575500D01*
G75*
G02*
X118626200Y-91825500I-250000J0D01*
G01*
X116476200Y-91825500D01*
G75*
G02*
X116226200Y-91575500I0J250000D01*
G01*
X116226200Y-90650500D01*
G75*
G02*
X116476200Y-90400500I250000J0D01*
G01*
G37*
G04 #@! TD.AperFunction*
G04 #@! TA.AperFunction,SMDPad,CuDef*
G36*
G01*
X116476200Y-87425500D02*
X118626200Y-87425500D01*
G75*
G02*
X118876200Y-87675500I0J-250000D01*
G01*
X118876200Y-88600500D01*
G75*
G02*
X118626200Y-88850500I-250000J0D01*
G01*
X116476200Y-88850500D01*
G75*
G02*
X116226200Y-88600500I0J250000D01*
G01*
X116226200Y-87675500D01*
G75*
G02*
X116476200Y-87425500I250000J0D01*
G01*
G37*
G04 #@! TD.AperFunction*
X105105200Y-70668000D03*
X105105200Y-74168000D03*
D23*
X87293200Y-64516000D03*
X85293200Y-64516000D03*
D21*
X108197200Y-89134000D03*
X105697200Y-89134000D03*
G04 #@! TA.AperFunction,SMDPad,CuDef*
G36*
G01*
X93632200Y-94696500D02*
X94882200Y-94696500D01*
G75*
G02*
X95132200Y-94946500I0J-250000D01*
G01*
X95132200Y-95871500D01*
G75*
G02*
X94882200Y-96121500I-250000J0D01*
G01*
X93632200Y-96121500D01*
G75*
G02*
X93382200Y-95871500I0J250000D01*
G01*
X93382200Y-94946500D01*
G75*
G02*
X93632200Y-94696500I250000J0D01*
G01*
G37*
G04 #@! TD.AperFunction*
G04 #@! TA.AperFunction,SMDPad,CuDef*
G36*
G01*
X93632200Y-91721500D02*
X94882200Y-91721500D01*
G75*
G02*
X95132200Y-91971500I0J-250000D01*
G01*
X95132200Y-92896500D01*
G75*
G02*
X94882200Y-93146500I-250000J0D01*
G01*
X93632200Y-93146500D01*
G75*
G02*
X93382200Y-92896500I0J250000D01*
G01*
X93382200Y-91971500D01*
G75*
G02*
X93632200Y-91721500I250000J0D01*
G01*
G37*
G04 #@! TD.AperFunction*
D24*
X114233200Y-89154000D03*
X112233200Y-90104000D03*
X112233200Y-88204000D03*
D25*
X118313200Y-81788000D03*
D26*
X118313200Y-84328000D03*
D21*
X76657200Y-93904000D03*
X76657200Y-90404000D03*
D20*
X90119200Y-77520800D03*
X82499200Y-92760800D03*
X90119200Y-80060800D03*
X82499200Y-90220800D03*
X90119200Y-82600800D03*
X82499200Y-87680800D03*
X90119200Y-85140800D03*
X82499200Y-85140800D03*
X90119200Y-87680800D03*
X82499200Y-82600800D03*
X90119200Y-90220800D03*
X82499200Y-80060800D03*
X90119200Y-92760800D03*
D27*
X82499200Y-77520800D03*
D20*
X82499200Y-69596000D03*
D21*
X90119200Y-69596000D03*
D20*
X90881200Y-62992000D03*
D21*
X98501200Y-62992000D03*
D28*
X120853200Y-92989400D03*
X48857200Y-62874000D03*
X48857200Y-92964000D03*
X120853200Y-62966600D03*
D29*
X91977200Y-86724000D03*
X105062200Y-80634000D03*
D30*
X75895200Y-70104000D03*
D31*
X100265200Y-88124000D02*
X100279200Y-88138000D01*
X82383000Y-92644600D02*
X82499200Y-92760800D01*
X82499200Y-92760800D02*
X82499200Y-93040200D01*
D32*
X118440200Y-95402400D02*
X120853200Y-92989400D01*
D33*
X81356000Y-93904000D02*
X82499200Y-92760800D01*
D32*
X76527200Y-93904000D02*
X81356000Y-93904000D01*
D31*
X48857200Y-62874000D02*
X48857200Y-63164000D01*
X76527200Y-93904000D02*
X76177200Y-93904000D01*
D32*
X84861400Y-95402400D02*
X109838800Y-95402400D01*
D33*
X100277200Y-93224000D02*
X100277200Y-95064000D01*
D31*
X122517200Y-68224000D02*
X122627200Y-68114000D01*
X120853200Y-92248000D02*
X120853200Y-92989400D01*
D33*
X122627200Y-90474000D02*
X120853200Y-92248000D01*
D31*
X122507200Y-87384000D02*
X122607200Y-87484000D01*
X121577200Y-87384000D02*
X122507200Y-87384000D01*
D33*
X122607200Y-87484000D02*
X122627200Y-90474000D01*
D31*
X122437200Y-82864000D02*
X122737200Y-82564000D01*
X121547200Y-82864000D02*
X122437200Y-82864000D01*
D33*
X122737200Y-82564000D02*
X122607200Y-87484000D01*
X110797200Y-89134000D02*
X112037200Y-90374000D01*
X108197200Y-89134000D02*
X110797200Y-89134000D01*
D31*
X112037200Y-95294000D02*
X112147200Y-95404000D01*
D33*
X112037200Y-90374000D02*
X112037200Y-95294000D01*
D32*
X109838800Y-95402400D02*
X112147200Y-95404000D01*
D34*
X100307200Y-90694000D02*
X97737200Y-88124000D01*
X100307200Y-92954000D02*
X100307200Y-90694000D01*
D31*
X122595200Y-80554000D02*
X122631200Y-80518000D01*
X83185200Y-93904000D02*
X83261200Y-93980000D01*
D32*
X81356000Y-93904000D02*
X83185200Y-93904000D01*
X83261200Y-93980000D02*
X84861400Y-95402400D01*
D33*
X82499200Y-93040200D02*
X83261200Y-93980000D01*
D31*
X121547200Y-87354000D02*
X121577200Y-87384000D01*
D33*
X121869200Y-82864000D02*
X121869200Y-87354000D01*
D31*
X116281200Y-94996000D02*
X116281200Y-95504000D01*
D33*
X122085200Y-89662000D02*
X116789200Y-94958000D01*
D32*
X110000000Y-95400000D02*
X118440200Y-95400000D01*
D31*
X121709200Y-82702000D02*
X121547200Y-82864000D01*
D32*
X116281200Y-93726000D02*
X121361200Y-88646000D01*
D33*
X121361200Y-88646000D02*
X121577200Y-89700000D01*
X121577200Y-87384000D02*
X121361200Y-88646000D01*
D32*
X116281200Y-93726000D02*
X114757200Y-95250000D01*
X114757200Y-95300000D02*
X116281200Y-95300000D01*
X112147200Y-95404000D02*
X114757200Y-95250000D01*
D34*
X97737200Y-88124000D02*
X100277200Y-88124000D01*
D31*
X48857200Y-92964000D02*
X49225200Y-92964000D01*
D32*
X68507200Y-93958000D02*
X76889200Y-93958000D01*
D31*
X48857200Y-92964000D02*
X48857200Y-92824000D01*
D32*
X48857200Y-92824000D02*
X51765200Y-89916000D01*
X51765200Y-89916000D02*
X64465200Y-89916000D01*
X64465200Y-89916000D02*
X68783200Y-94234000D01*
X122377200Y-64850600D02*
X120493200Y-62966600D01*
D31*
X121869200Y-75438000D02*
X122377200Y-75946000D01*
D32*
X117297200Y-75438000D02*
X121869200Y-75438000D01*
X122377200Y-75946000D02*
X122377200Y-64850600D01*
X122377200Y-82564000D02*
X122377200Y-75946000D01*
D33*
X114744700Y-80554000D02*
X114744700Y-77990500D01*
X114744700Y-77990500D02*
X117297200Y-75438000D01*
D31*
X122109200Y-82296000D02*
X122377200Y-82564000D01*
X118313200Y-82296000D02*
X122109200Y-82296000D01*
D32*
X117297200Y-75438000D02*
X109931200Y-75438000D01*
X109931200Y-75438000D02*
X105105200Y-70612000D01*
D31*
X82499200Y-90220800D02*
X81534000Y-90220800D01*
X81534000Y-90220800D02*
X79197200Y-87884000D01*
X79197200Y-87884000D02*
X79197200Y-76708000D01*
X79197200Y-76708000D02*
X82499200Y-73406000D01*
X90119200Y-82600800D02*
X89458800Y-82600800D01*
X90119200Y-82600800D02*
X90043000Y-82600800D01*
D34*
X91977200Y-86724000D02*
X91977200Y-90464000D01*
D31*
X93947200Y-92434000D02*
X94257200Y-92434000D01*
D34*
X91977200Y-90464000D02*
X93947200Y-92434000D01*
D31*
X80987200Y-60960000D02*
X80975200Y-60960000D01*
D32*
X80987200Y-60960000D02*
X80987200Y-62980000D01*
X80987200Y-62980000D02*
X77165200Y-66802000D01*
X77165200Y-66802000D02*
X59131200Y-66802000D01*
D31*
X57099200Y-69088000D02*
X56972200Y-68961000D01*
D32*
X57099200Y-83058000D02*
X57099200Y-69088000D01*
X56972200Y-68961000D02*
X56083200Y-69850000D01*
X59131200Y-66802000D02*
X56972200Y-68961000D01*
D31*
X90119200Y-82600800D02*
X89916000Y-82600800D01*
X86309200Y-78994000D02*
X86309200Y-60960000D01*
X89916000Y-82600800D02*
X86309200Y-78994000D01*
D32*
X86309200Y-60960000D02*
X80987200Y-60960000D01*
D31*
X113487200Y-63754000D02*
X113487200Y-64516000D01*
D32*
X86309200Y-60960000D02*
X89103200Y-60960000D01*
X89103200Y-60960000D02*
X90881200Y-62738000D01*
D31*
X113211200Y-62738000D02*
X113211200Y-63014000D01*
D32*
X113211200Y-63014000D02*
X109423200Y-66802000D01*
X109423200Y-66802000D02*
X94945200Y-66802000D01*
X94945200Y-66802000D02*
X91135200Y-62992000D01*
D33*
X98501200Y-62992000D02*
X101803200Y-62992000D01*
D31*
X95197200Y-88124000D02*
X95197200Y-87644000D01*
X76527200Y-90404000D02*
X76527200Y-90300000D01*
X95197200Y-88124000D02*
X95213200Y-88124000D01*
D34*
X95213200Y-88124000D02*
X96723200Y-86614000D01*
X103177200Y-86614000D02*
X105697200Y-89134000D01*
X96723200Y-86614000D02*
X103177200Y-86614000D01*
D31*
X90119200Y-73404000D02*
X90371200Y-73404000D01*
X95197200Y-88124000D02*
X95197200Y-85342000D01*
X95197200Y-85342000D02*
X91897200Y-82042000D01*
X91897200Y-82042000D02*
X91897200Y-75184000D01*
X91897200Y-75184000D02*
X90119200Y-73406000D01*
X105062200Y-80634000D02*
X105062200Y-80634000D01*
X105062200Y-80634000D02*
X105062200Y-81499000D01*
X96469200Y-69850000D02*
X98755200Y-72136000D01*
X98755200Y-72136000D02*
X99009200Y-72390000D01*
X99009200Y-72390000D02*
X99009200Y-78486000D01*
X99009200Y-78486000D02*
X99771200Y-79248000D01*
X99771200Y-79248000D02*
X103581200Y-79248000D01*
X103581200Y-79248000D02*
X105105200Y-80772000D01*
X90119200Y-80060800D02*
X90140400Y-80060800D01*
X90119200Y-80060800D02*
X90220400Y-80060800D01*
X87293200Y-64516000D02*
X87293200Y-77184000D01*
X87293200Y-77184000D02*
X90119200Y-80010000D01*
X82499200Y-85140800D02*
X81824000Y-85140800D01*
X97737200Y-82284000D02*
X97737200Y-82134000D01*
X82499200Y-85140800D02*
X82702400Y-85140800D01*
X82702400Y-85140800D02*
X85293200Y-82550000D01*
X85293200Y-82550000D02*
X85293200Y-64516000D01*
X111689700Y-80634000D02*
X111769700Y-80554000D01*
X105105200Y-74168000D02*
X105613200Y-74168000D01*
X105613200Y-74168000D02*
X111963200Y-80518000D01*
X108037200Y-80634000D02*
X108037200Y-81418000D01*
X112037200Y-88474000D02*
X112087200Y-88474000D01*
X112233200Y-88474000D02*
X112233200Y-88376000D01*
X108037200Y-80380000D02*
X108037200Y-80634000D01*
X108037200Y-80634000D02*
X108269200Y-80634000D01*
D34*
X108269200Y-80634000D02*
X109931200Y-82296000D01*
X109931200Y-86172000D02*
X112233200Y-88474000D01*
X109931200Y-82296000D02*
X109931200Y-86172000D01*
D31*
X108037200Y-80634000D02*
X108037200Y-80604000D01*
X112233200Y-88204000D02*
X112233200Y-87868000D01*
X112233200Y-88204000D02*
X112233200Y-88122000D01*
X112233200Y-88122000D02*
X113741200Y-86614000D01*
X113741200Y-86614000D02*
X116027200Y-86614000D01*
X116027200Y-86614000D02*
X117551200Y-88138000D01*
X117551200Y-88138000D02*
X118313200Y-87376000D01*
X118313200Y-87376000D02*
X118313200Y-84328000D01*
D32*
X73355200Y-83058000D02*
X75641200Y-85344000D01*
X71831200Y-74168000D02*
X75895200Y-70104000D01*
X71831200Y-83058000D02*
X71831200Y-74168000D01*
X67999200Y-83058000D02*
X71831200Y-83058000D01*
X71831200Y-83058000D02*
X73355200Y-83058000D01*
X47955200Y-81174000D02*
X47955200Y-71120000D01*
X47955200Y-71120000D02*
X55829200Y-63246000D01*
X55829200Y-63246000D02*
X76149200Y-63246000D01*
D31*
X90119200Y-87680800D02*
X90119200Y-87630000D01*
X90119200Y-87680800D02*
X90119200Y-87622000D01*
X100267200Y-82284000D02*
X100279200Y-82296000D01*
X100277200Y-82284000D02*
X100277200Y-82548000D01*
D34*
X102057200Y-84328000D02*
X105105200Y-84328000D01*
X100277200Y-82548000D02*
X102057200Y-84328000D01*
D31*
X95197200Y-82284000D02*
X95197200Y-82344000D01*
M02*
