%FSLAX45Y45*%
G04 Gerber Fmt 4.5, Leading zero omitted, Abs format (unit mm)*
G04 Created by KiCad (PCBNEW 5.1.5+dfsg1-2) date 2020-03-29 15:26:55*
%MOMM*%
%LPD*%
G04 APERTURE LIST*
%TA.AperFunction,Profile*%
%ADD10C,0.050000*%
%TD*%
%ADD11C,0.200000*%
%ADD12C,0.300000*%
G04 APERTURE END LIST*
D10*
X4563720Y-9668400D02*
X4565720Y-5983400D01*
X12364720Y-9672320D02*
X4563720Y-9668400D01*
X12364720Y-5994400D02*
X12364720Y-9672320D01*
X4565720Y-5983400D02*
X12364720Y-5994400D01*
D11*
X9177720Y-8652400D02*
X9217720Y-8692400D01*
X9217720Y-8652400D02*
X9177720Y-8692400D01*
X10486220Y-8043400D02*
X10526220Y-8083400D01*
X10526220Y-8043400D02*
X10486220Y-8083400D01*
X8331720Y-6403400D02*
G75*
G03X8331720Y-6403400I-30000J0D01*
G01*
X8531720Y-6403400D02*
G75*
G03X8531720Y-6403400I-30000J0D01*
G01*
X9519720Y-8772400D02*
X9519720Y-8852400D01*
X9479720Y-8812400D02*
X9559720Y-8812400D01*
X9773720Y-8772400D02*
X9773720Y-8852400D01*
X9733720Y-8812400D02*
X9813720Y-8812400D01*
X10027720Y-8772400D02*
X10027720Y-8852400D01*
X9987720Y-8812400D02*
X10067720Y-8812400D01*
X8249920Y-7712080D02*
X8249920Y-7792080D01*
X8209920Y-7752080D02*
X8289920Y-7752080D01*
X8249920Y-7966080D02*
X8249920Y-8046080D01*
X8209920Y-8006080D02*
X8289920Y-8006080D01*
X8249920Y-8220080D02*
X8249920Y-8300080D01*
X8209920Y-8260080D02*
X8289920Y-8260080D01*
X8249920Y-8474080D02*
X8249920Y-8554080D01*
X8209920Y-8514080D02*
X8289920Y-8514080D01*
X8249920Y-8728080D02*
X8249920Y-8808080D01*
X8209920Y-8768080D02*
X8289920Y-8768080D01*
X8249920Y-8982080D02*
X8249920Y-9062080D01*
X8209920Y-9022080D02*
X8289920Y-9022080D01*
X8249920Y-9236080D02*
X8249920Y-9316080D01*
X8209920Y-9276080D02*
X8289920Y-9276080D01*
X9011920Y-7712080D02*
X9011920Y-7792080D01*
X8971920Y-7752080D02*
X9051920Y-7752080D01*
X9011920Y-7966080D02*
X9011920Y-8046080D01*
X8971920Y-8006080D02*
X9051920Y-8006080D01*
X9011920Y-8220080D02*
X9011920Y-8300080D01*
X8971920Y-8260080D02*
X9051920Y-8260080D01*
X9011920Y-8474080D02*
X9011920Y-8554080D01*
X8971920Y-8514080D02*
X9051920Y-8514080D01*
X9011920Y-8728080D02*
X9011920Y-8808080D01*
X8971920Y-8768080D02*
X9051920Y-8768080D01*
X9011920Y-8982080D02*
X9011920Y-9062080D01*
X8971920Y-9022080D02*
X9051920Y-9022080D01*
X9011920Y-9236080D02*
X9011920Y-9316080D01*
X8971920Y-9276080D02*
X9051920Y-9276080D01*
X10510520Y-8392800D02*
X10510520Y-8472800D01*
X10470520Y-8432800D02*
X10550520Y-8432800D01*
X11272520Y-8392800D02*
X11272520Y-8472800D01*
X11232520Y-8432800D02*
X11312520Y-8432800D01*
X9363720Y-6259200D02*
X9363720Y-6339200D01*
X9323720Y-6299200D02*
X9403720Y-6299200D01*
X9363720Y-7021200D02*
X9363720Y-7101200D01*
X9323720Y-7061200D02*
X9403720Y-7061200D01*
X9795720Y-6254400D02*
X9795720Y-6334400D01*
X9755720Y-6294400D02*
X9835720Y-6294400D01*
X9795720Y-7016400D02*
X9795720Y-7096400D01*
X9755720Y-7056400D02*
X9835720Y-7056400D01*
X9519720Y-8188400D02*
X9519720Y-8268400D01*
X9479720Y-8228400D02*
X9559720Y-8228400D01*
X9773720Y-8188400D02*
X9773720Y-8268400D01*
X9733720Y-8228400D02*
X9813720Y-8228400D01*
X10027720Y-8188400D02*
X10027720Y-8268400D01*
X9987720Y-8228400D02*
X10067720Y-8228400D01*
X8113720Y-7300400D02*
X8113720Y-7380400D01*
X8073720Y-7340400D02*
X8153720Y-7340400D01*
X8875720Y-7300400D02*
X8875720Y-7380400D01*
X8835720Y-7340400D02*
X8915720Y-7340400D01*
X10569720Y-8873400D02*
X10569720Y-8953400D01*
X10529720Y-8913400D02*
X10609720Y-8913400D01*
X10819720Y-8873400D02*
X10819720Y-8953400D01*
X10779720Y-8913400D02*
X10859720Y-8913400D01*
X10030720Y-9255400D02*
X10030720Y-9335400D01*
X9990720Y-9295400D02*
X10070720Y-9295400D01*
X10792720Y-9255400D02*
X10792720Y-9335400D01*
X10752720Y-9295400D02*
X10832720Y-9295400D01*
X11936076Y-8321756D02*
X11936076Y-8251044D01*
X11865364Y-8251044D01*
X11865364Y-8321756D01*
X11936076Y-8321756D01*
X12190076Y-8321756D02*
X12190076Y-8251044D01*
X12119364Y-8251044D01*
X12119364Y-8321756D01*
X12190076Y-8321756D01*
X7701076Y-9075756D02*
X7701076Y-9005044D01*
X7630364Y-9005044D01*
X7630364Y-9075756D01*
X7701076Y-9075756D01*
X7701076Y-9425756D02*
X7701076Y-9355044D01*
X7630364Y-9355044D01*
X7630364Y-9425756D01*
X7701076Y-9425756D01*
X11739676Y-7045756D02*
X11739676Y-6975044D01*
X11668964Y-6975044D01*
X11668964Y-7045756D01*
X11739676Y-7045756D01*
X12089676Y-7045756D02*
X12089676Y-6975044D01*
X12018964Y-6975044D01*
X12018964Y-7045756D01*
X12089676Y-7045756D01*
X10412720Y-6399400D02*
X10467720Y-6344400D01*
X10412720Y-6289400D01*
X10357720Y-6344400D01*
X10412720Y-6399400D01*
X10666720Y-6399400D02*
X10721720Y-6344400D01*
X10666720Y-6289400D01*
X10611720Y-6344400D01*
X10666720Y-6399400D01*
X10920720Y-6399400D02*
X10975720Y-6344400D01*
X10920720Y-6289400D01*
X10865720Y-6344400D01*
X10920720Y-6399400D01*
X5837720Y-6656400D02*
X5957720Y-6776400D01*
X5957720Y-6656400D02*
X5837720Y-6776400D01*
X5957720Y-6716400D02*
G75*
G03X5957720Y-6716400I-60000J0D01*
G01*
X5837720Y-7406400D02*
X5957720Y-7526400D01*
X5957720Y-7406400D02*
X5837720Y-7526400D01*
X5957720Y-7466400D02*
G75*
G03X5957720Y-7466400I-60000J0D01*
G01*
X9332920Y-7534600D02*
X9452920Y-7654600D01*
X9452920Y-7534600D02*
X9332920Y-7654600D01*
X9452920Y-7594600D02*
G75*
G03X9452920Y-7594600I-60000J0D01*
G01*
X11364920Y-7534600D02*
X11484920Y-7654600D01*
X11484920Y-7534600D02*
X11364920Y-7654600D01*
X11484920Y-7594600D02*
G75*
G03X11484920Y-7594600I-60000J0D01*
G01*
X7393720Y-6178400D02*
X7523720Y-6308400D01*
X7523720Y-6178400D02*
X7393720Y-6308400D01*
X7458720Y-6178400D02*
X7458720Y-6308400D01*
X7393720Y-6243400D02*
X7523720Y-6243400D01*
X7393720Y-8428400D02*
X7523720Y-8558400D01*
X7523720Y-8428400D02*
X7393720Y-8558400D01*
X7458720Y-8428400D02*
X7458720Y-8558400D01*
X7393720Y-8493400D02*
X7523720Y-8493400D01*
X5434720Y-8248400D02*
X5574720Y-8388400D01*
X5574720Y-8248400D02*
X5434720Y-8388400D01*
X5554218Y-8367898D02*
X5554218Y-8268902D01*
X5455222Y-8268902D01*
X5455222Y-8367898D01*
X5554218Y-8367898D01*
X5434720Y-9338400D02*
X5574720Y-9478400D01*
X5574720Y-9338400D02*
X5434720Y-9478400D01*
X5554218Y-9457898D02*
X5554218Y-9358902D01*
X5455222Y-9358902D01*
X5455222Y-9457898D01*
X5554218Y-9457898D01*
X6514720Y-8248400D02*
X6654720Y-8388400D01*
X6654720Y-8248400D02*
X6514720Y-8388400D01*
X6634218Y-8367898D02*
X6634218Y-8268902D01*
X6535222Y-8268902D01*
X6535222Y-8367898D01*
X6634218Y-8367898D01*
X6524720Y-9338400D02*
X6664720Y-9478400D01*
X6664720Y-9338400D02*
X6524720Y-9478400D01*
X6644218Y-9457898D02*
X6644218Y-9358902D01*
X6545222Y-9358902D01*
X6545222Y-9457898D01*
X6644218Y-9457898D01*
X4823720Y-8418400D02*
X4973720Y-8568400D01*
X4973720Y-8418400D02*
X4823720Y-8568400D01*
X4898720Y-8568400D02*
X4973720Y-8493400D01*
X4898720Y-8418400D01*
X4823720Y-8493400D01*
X4898720Y-8568400D01*
X4823720Y-8672400D02*
X4973720Y-8822400D01*
X4973720Y-8672400D02*
X4823720Y-8822400D01*
X4898720Y-8822400D02*
X4973720Y-8747400D01*
X4898720Y-8672400D01*
X4823720Y-8747400D01*
X4898720Y-8822400D01*
X11828720Y-7621200D02*
X11978720Y-7771200D01*
X11978720Y-7621200D02*
X11828720Y-7771200D01*
X11903720Y-7771200D02*
X11978720Y-7696200D01*
X11903720Y-7621200D01*
X11828720Y-7696200D01*
X11903720Y-7771200D01*
X12082720Y-7621200D02*
X12232720Y-7771200D01*
X12232720Y-7621200D02*
X12082720Y-7771200D01*
X12157720Y-7771200D02*
X12232720Y-7696200D01*
X12157720Y-7621200D01*
X12082720Y-7696200D01*
X12157720Y-7771200D01*
X4885720Y-6132400D02*
X4885720Y-6442400D01*
X4730720Y-6287400D02*
X5040720Y-6287400D01*
X5040720Y-6287400D02*
G75*
G03X5040720Y-6287400I-155000J0D01*
G01*
X4885720Y-9141400D02*
X4885720Y-9451400D01*
X4730720Y-9296400D02*
X5040720Y-9296400D01*
X5040720Y-9296400D02*
G75*
G03X5040720Y-9296400I-155000J0D01*
G01*
X12085320Y-6141660D02*
X12085320Y-6451660D01*
X11930320Y-6296660D02*
X12240320Y-6296660D01*
X12240320Y-6296660D02*
G75*
G03X12240320Y-6296660I-155000J0D01*
G01*
X12085320Y-9143940D02*
X12085320Y-9453940D01*
X11930320Y-9298940D02*
X12240320Y-9298940D01*
X12240320Y-9298940D02*
G75*
G03X12240320Y-9298940I-155000J0D01*
G01*
D12*
X4847648Y-10140534D02*
X4847648Y-9840534D01*
X4919077Y-9840534D01*
X4961934Y-9854820D01*
X4990506Y-9883392D01*
X5004791Y-9911963D01*
X5019077Y-9969106D01*
X5019077Y-10011963D01*
X5004791Y-10069106D01*
X4990506Y-10097677D01*
X4961934Y-10126249D01*
X4919077Y-10140534D01*
X4847648Y-10140534D01*
X5147648Y-10140534D02*
X5147648Y-9940534D01*
X5147648Y-9997677D02*
X5161934Y-9969106D01*
X5176220Y-9954820D01*
X5204791Y-9940534D01*
X5233363Y-9940534D01*
X5333363Y-10140534D02*
X5333363Y-9940534D01*
X5333363Y-9840534D02*
X5319077Y-9854820D01*
X5333363Y-9869106D01*
X5347648Y-9854820D01*
X5333363Y-9840534D01*
X5333363Y-9869106D01*
X5519077Y-10140534D02*
X5490506Y-10126249D01*
X5476220Y-10097677D01*
X5476220Y-9840534D01*
X5676220Y-10140534D02*
X5647648Y-10126249D01*
X5633363Y-10097677D01*
X5633363Y-9840534D01*
X6019077Y-10140534D02*
X6019077Y-9840534D01*
X6119077Y-10054820D01*
X6219077Y-9840534D01*
X6219077Y-10140534D01*
X6490506Y-10140534D02*
X6490506Y-9983392D01*
X6476220Y-9954820D01*
X6447648Y-9940534D01*
X6390506Y-9940534D01*
X6361934Y-9954820D01*
X6490506Y-10126249D02*
X6461934Y-10140534D01*
X6390506Y-10140534D01*
X6361934Y-10126249D01*
X6347648Y-10097677D01*
X6347648Y-10069106D01*
X6361934Y-10040534D01*
X6390506Y-10026249D01*
X6461934Y-10026249D01*
X6490506Y-10011963D01*
X6633363Y-9940534D02*
X6633363Y-10240534D01*
X6633363Y-9954820D02*
X6661934Y-9940534D01*
X6719077Y-9940534D01*
X6747648Y-9954820D01*
X6761934Y-9969106D01*
X6776220Y-9997677D01*
X6776220Y-10083392D01*
X6761934Y-10111963D01*
X6747648Y-10126249D01*
X6719077Y-10140534D01*
X6661934Y-10140534D01*
X6633363Y-10126249D01*
X6904791Y-10111963D02*
X6919077Y-10126249D01*
X6904791Y-10140534D01*
X6890506Y-10126249D01*
X6904791Y-10111963D01*
X6904791Y-10140534D01*
X6904791Y-9954820D02*
X6919077Y-9969106D01*
X6904791Y-9983392D01*
X6890506Y-9969106D01*
X6904791Y-9954820D01*
X6904791Y-9983392D01*
X4521220Y-10614820D02*
X4561220Y-10654820D01*
X4561220Y-10614820D02*
X4521220Y-10654820D01*
X4904791Y-10470534D02*
X4933363Y-10470534D01*
X4961934Y-10484820D01*
X4976220Y-10499106D01*
X4990506Y-10527677D01*
X5004791Y-10584820D01*
X5004791Y-10656249D01*
X4990506Y-10713392D01*
X4976220Y-10741963D01*
X4961934Y-10756249D01*
X4933363Y-10770534D01*
X4904791Y-10770534D01*
X4876220Y-10756249D01*
X4861934Y-10741963D01*
X4847648Y-10713392D01*
X4833363Y-10656249D01*
X4833363Y-10584820D01*
X4847648Y-10527677D01*
X4861934Y-10499106D01*
X4876220Y-10484820D01*
X4904791Y-10470534D01*
X5133363Y-10741963D02*
X5147648Y-10756249D01*
X5133363Y-10770534D01*
X5119077Y-10756249D01*
X5133363Y-10741963D01*
X5133363Y-10770534D01*
X5404791Y-10570534D02*
X5404791Y-10770534D01*
X5333363Y-10456249D02*
X5261934Y-10670534D01*
X5447648Y-10670534D01*
X5619077Y-10470534D02*
X5647648Y-10470534D01*
X5676220Y-10484820D01*
X5690506Y-10499106D01*
X5704791Y-10527677D01*
X5719077Y-10584820D01*
X5719077Y-10656249D01*
X5704791Y-10713392D01*
X5690506Y-10741963D01*
X5676220Y-10756249D01*
X5647648Y-10770534D01*
X5619077Y-10770534D01*
X5590506Y-10756249D01*
X5576220Y-10741963D01*
X5561934Y-10713392D01*
X5547648Y-10656249D01*
X5547648Y-10584820D01*
X5561934Y-10527677D01*
X5576220Y-10499106D01*
X5590506Y-10484820D01*
X5619077Y-10470534D01*
X5847648Y-10770534D02*
X5847648Y-10570534D01*
X5847648Y-10599106D02*
X5861934Y-10584820D01*
X5890506Y-10570534D01*
X5933363Y-10570534D01*
X5961934Y-10584820D01*
X5976220Y-10613392D01*
X5976220Y-10770534D01*
X5976220Y-10613392D02*
X5990506Y-10584820D01*
X6019077Y-10570534D01*
X6061934Y-10570534D01*
X6090506Y-10584820D01*
X6104791Y-10613392D01*
X6104791Y-10770534D01*
X6247648Y-10770534D02*
X6247648Y-10570534D01*
X6247648Y-10599106D02*
X6261934Y-10584820D01*
X6290506Y-10570534D01*
X6333363Y-10570534D01*
X6361934Y-10584820D01*
X6376220Y-10613392D01*
X6376220Y-10770534D01*
X6376220Y-10613392D02*
X6390506Y-10584820D01*
X6419077Y-10570534D01*
X6461934Y-10570534D01*
X6490506Y-10584820D01*
X6504791Y-10613392D01*
X6504791Y-10770534D01*
X7090506Y-10456249D02*
X6833363Y-10841963D01*
X7476220Y-10470534D02*
X7504791Y-10470534D01*
X7533363Y-10484820D01*
X7547648Y-10499106D01*
X7561934Y-10527677D01*
X7576220Y-10584820D01*
X7576220Y-10656249D01*
X7561934Y-10713392D01*
X7547648Y-10741963D01*
X7533363Y-10756249D01*
X7504791Y-10770534D01*
X7476220Y-10770534D01*
X7447648Y-10756249D01*
X7433363Y-10741963D01*
X7419077Y-10713392D01*
X7404791Y-10656249D01*
X7404791Y-10584820D01*
X7419077Y-10527677D01*
X7433363Y-10499106D01*
X7447648Y-10484820D01*
X7476220Y-10470534D01*
X7704791Y-10741963D02*
X7719077Y-10756249D01*
X7704791Y-10770534D01*
X7690506Y-10756249D01*
X7704791Y-10741963D01*
X7704791Y-10770534D01*
X7904791Y-10470534D02*
X7933363Y-10470534D01*
X7961934Y-10484820D01*
X7976220Y-10499106D01*
X7990506Y-10527677D01*
X8004791Y-10584820D01*
X8004791Y-10656249D01*
X7990506Y-10713392D01*
X7976220Y-10741963D01*
X7961934Y-10756249D01*
X7933363Y-10770534D01*
X7904791Y-10770534D01*
X7876220Y-10756249D01*
X7861934Y-10741963D01*
X7847648Y-10713392D01*
X7833363Y-10656249D01*
X7833363Y-10584820D01*
X7847648Y-10527677D01*
X7861934Y-10499106D01*
X7876220Y-10484820D01*
X7904791Y-10470534D01*
X8290506Y-10770534D02*
X8119077Y-10770534D01*
X8204791Y-10770534D02*
X8204791Y-10470534D01*
X8176220Y-10513392D01*
X8147648Y-10541963D01*
X8119077Y-10556249D01*
X8547648Y-10470534D02*
X8490506Y-10470534D01*
X8461934Y-10484820D01*
X8447648Y-10499106D01*
X8419077Y-10541963D01*
X8404791Y-10599106D01*
X8404791Y-10713392D01*
X8419077Y-10741963D01*
X8433363Y-10756249D01*
X8461934Y-10770534D01*
X8519077Y-10770534D01*
X8547648Y-10756249D01*
X8561934Y-10741963D01*
X8576220Y-10713392D01*
X8576220Y-10641963D01*
X8561934Y-10613392D01*
X8547648Y-10599106D01*
X8519077Y-10584820D01*
X8461934Y-10584820D01*
X8433363Y-10599106D01*
X8419077Y-10613392D01*
X8404791Y-10641963D01*
X8690506Y-10470534D02*
X8690506Y-10527677D01*
X8804791Y-10470534D02*
X8804791Y-10527677D01*
X9247648Y-10884820D02*
X9233363Y-10870534D01*
X9204791Y-10827677D01*
X9190506Y-10799106D01*
X9176220Y-10756249D01*
X9161934Y-10684820D01*
X9161934Y-10627677D01*
X9176220Y-10556249D01*
X9190506Y-10513392D01*
X9204791Y-10484820D01*
X9233363Y-10441963D01*
X9247648Y-10427677D01*
X9347648Y-10499106D02*
X9361934Y-10484820D01*
X9390506Y-10470534D01*
X9461934Y-10470534D01*
X9490506Y-10484820D01*
X9504791Y-10499106D01*
X9519077Y-10527677D01*
X9519077Y-10556249D01*
X9504791Y-10599106D01*
X9333363Y-10770534D01*
X9519077Y-10770534D01*
X9876220Y-10770534D02*
X9876220Y-10470534D01*
X10004791Y-10770534D02*
X10004791Y-10613392D01*
X9990506Y-10584820D01*
X9961934Y-10570534D01*
X9919077Y-10570534D01*
X9890506Y-10584820D01*
X9876220Y-10599106D01*
X10190506Y-10770534D02*
X10161934Y-10756249D01*
X10147648Y-10741963D01*
X10133363Y-10713392D01*
X10133363Y-10627677D01*
X10147648Y-10599106D01*
X10161934Y-10584820D01*
X10190506Y-10570534D01*
X10233363Y-10570534D01*
X10261934Y-10584820D01*
X10276220Y-10599106D01*
X10290506Y-10627677D01*
X10290506Y-10713392D01*
X10276220Y-10741963D01*
X10261934Y-10756249D01*
X10233363Y-10770534D01*
X10190506Y-10770534D01*
X10461934Y-10770534D02*
X10433363Y-10756249D01*
X10419077Y-10727677D01*
X10419077Y-10470534D01*
X10690506Y-10756249D02*
X10661934Y-10770534D01*
X10604791Y-10770534D01*
X10576220Y-10756249D01*
X10561934Y-10727677D01*
X10561934Y-10613392D01*
X10576220Y-10584820D01*
X10604791Y-10570534D01*
X10661934Y-10570534D01*
X10690506Y-10584820D01*
X10704791Y-10613392D01*
X10704791Y-10641963D01*
X10561934Y-10670534D01*
X10819077Y-10756249D02*
X10847648Y-10770534D01*
X10904791Y-10770534D01*
X10933363Y-10756249D01*
X10947648Y-10727677D01*
X10947648Y-10713392D01*
X10933363Y-10684820D01*
X10904791Y-10670534D01*
X10861934Y-10670534D01*
X10833363Y-10656249D01*
X10819077Y-10627677D01*
X10819077Y-10613392D01*
X10833363Y-10584820D01*
X10861934Y-10570534D01*
X10904791Y-10570534D01*
X10933363Y-10584820D01*
X11047648Y-10884820D02*
X11061934Y-10870534D01*
X11090506Y-10827677D01*
X11104791Y-10799106D01*
X11119077Y-10756249D01*
X11133363Y-10684820D01*
X11133363Y-10627677D01*
X11119077Y-10556249D01*
X11104791Y-10513392D01*
X11090506Y-10484820D01*
X11061934Y-10441963D01*
X11047648Y-10427677D01*
X4561220Y-11030820D02*
G75*
G03X4561220Y-11030820I-30000J0D01*
G01*
X4904791Y-10866534D02*
X4933363Y-10866534D01*
X4961934Y-10880820D01*
X4976220Y-10895106D01*
X4990506Y-10923677D01*
X5004791Y-10980820D01*
X5004791Y-11052249D01*
X4990506Y-11109392D01*
X4976220Y-11137963D01*
X4961934Y-11152249D01*
X4933363Y-11166534D01*
X4904791Y-11166534D01*
X4876220Y-11152249D01*
X4861934Y-11137963D01*
X4847648Y-11109392D01*
X4833363Y-11052249D01*
X4833363Y-10980820D01*
X4847648Y-10923677D01*
X4861934Y-10895106D01*
X4876220Y-10880820D01*
X4904791Y-10866534D01*
X5133363Y-11137963D02*
X5147648Y-11152249D01*
X5133363Y-11166534D01*
X5119077Y-11152249D01*
X5133363Y-11137963D01*
X5133363Y-11166534D01*
X5404791Y-10866534D02*
X5347648Y-10866534D01*
X5319077Y-10880820D01*
X5304791Y-10895106D01*
X5276220Y-10937963D01*
X5261934Y-10995106D01*
X5261934Y-11109392D01*
X5276220Y-11137963D01*
X5290506Y-11152249D01*
X5319077Y-11166534D01*
X5376220Y-11166534D01*
X5404791Y-11152249D01*
X5419077Y-11137963D01*
X5433363Y-11109392D01*
X5433363Y-11037963D01*
X5419077Y-11009392D01*
X5404791Y-10995106D01*
X5376220Y-10980820D01*
X5319077Y-10980820D01*
X5290506Y-10995106D01*
X5276220Y-11009392D01*
X5261934Y-11037963D01*
X5619077Y-10866534D02*
X5647648Y-10866534D01*
X5676220Y-10880820D01*
X5690506Y-10895106D01*
X5704791Y-10923677D01*
X5719077Y-10980820D01*
X5719077Y-11052249D01*
X5704791Y-11109392D01*
X5690506Y-11137963D01*
X5676220Y-11152249D01*
X5647648Y-11166534D01*
X5619077Y-11166534D01*
X5590506Y-11152249D01*
X5576220Y-11137963D01*
X5561934Y-11109392D01*
X5547648Y-11052249D01*
X5547648Y-10980820D01*
X5561934Y-10923677D01*
X5576220Y-10895106D01*
X5590506Y-10880820D01*
X5619077Y-10866534D01*
X5847648Y-11166534D02*
X5847648Y-10966534D01*
X5847648Y-10995106D02*
X5861934Y-10980820D01*
X5890506Y-10966534D01*
X5933363Y-10966534D01*
X5961934Y-10980820D01*
X5976220Y-11009392D01*
X5976220Y-11166534D01*
X5976220Y-11009392D02*
X5990506Y-10980820D01*
X6019077Y-10966534D01*
X6061934Y-10966534D01*
X6090506Y-10980820D01*
X6104791Y-11009392D01*
X6104791Y-11166534D01*
X6247648Y-11166534D02*
X6247648Y-10966534D01*
X6247648Y-10995106D02*
X6261934Y-10980820D01*
X6290506Y-10966534D01*
X6333363Y-10966534D01*
X6361934Y-10980820D01*
X6376220Y-11009392D01*
X6376220Y-11166534D01*
X6376220Y-11009392D02*
X6390506Y-10980820D01*
X6419077Y-10966534D01*
X6461934Y-10966534D01*
X6490506Y-10980820D01*
X6504791Y-11009392D01*
X6504791Y-11166534D01*
X7090506Y-10852249D02*
X6833363Y-11237963D01*
X7476220Y-10866534D02*
X7504791Y-10866534D01*
X7533363Y-10880820D01*
X7547648Y-10895106D01*
X7561934Y-10923677D01*
X7576220Y-10980820D01*
X7576220Y-11052249D01*
X7561934Y-11109392D01*
X7547648Y-11137963D01*
X7533363Y-11152249D01*
X7504791Y-11166534D01*
X7476220Y-11166534D01*
X7447648Y-11152249D01*
X7433363Y-11137963D01*
X7419077Y-11109392D01*
X7404791Y-11052249D01*
X7404791Y-10980820D01*
X7419077Y-10923677D01*
X7433363Y-10895106D01*
X7447648Y-10880820D01*
X7476220Y-10866534D01*
X7704791Y-11137963D02*
X7719077Y-11152249D01*
X7704791Y-11166534D01*
X7690506Y-11152249D01*
X7704791Y-11137963D01*
X7704791Y-11166534D01*
X7904791Y-10866534D02*
X7933363Y-10866534D01*
X7961934Y-10880820D01*
X7976220Y-10895106D01*
X7990506Y-10923677D01*
X8004791Y-10980820D01*
X8004791Y-11052249D01*
X7990506Y-11109392D01*
X7976220Y-11137963D01*
X7961934Y-11152249D01*
X7933363Y-11166534D01*
X7904791Y-11166534D01*
X7876220Y-11152249D01*
X7861934Y-11137963D01*
X7847648Y-11109392D01*
X7833363Y-11052249D01*
X7833363Y-10980820D01*
X7847648Y-10923677D01*
X7861934Y-10895106D01*
X7876220Y-10880820D01*
X7904791Y-10866534D01*
X8119077Y-10895106D02*
X8133363Y-10880820D01*
X8161934Y-10866534D01*
X8233363Y-10866534D01*
X8261934Y-10880820D01*
X8276220Y-10895106D01*
X8290506Y-10923677D01*
X8290506Y-10952249D01*
X8276220Y-10995106D01*
X8104791Y-11166534D01*
X8290506Y-11166534D01*
X8547648Y-10966534D02*
X8547648Y-11166534D01*
X8476220Y-10852249D02*
X8404791Y-11066534D01*
X8590506Y-11066534D01*
X8690506Y-10866534D02*
X8690506Y-10923677D01*
X8804791Y-10866534D02*
X8804791Y-10923677D01*
X9247648Y-11280820D02*
X9233363Y-11266534D01*
X9204791Y-11223677D01*
X9190506Y-11195106D01*
X9176220Y-11152249D01*
X9161934Y-11080820D01*
X9161934Y-11023677D01*
X9176220Y-10952249D01*
X9190506Y-10909392D01*
X9204791Y-10880820D01*
X9233363Y-10837963D01*
X9247648Y-10823677D01*
X9347648Y-10895106D02*
X9361934Y-10880820D01*
X9390506Y-10866534D01*
X9461934Y-10866534D01*
X9490506Y-10880820D01*
X9504791Y-10895106D01*
X9519077Y-10923677D01*
X9519077Y-10952249D01*
X9504791Y-10995106D01*
X9333363Y-11166534D01*
X9519077Y-11166534D01*
X9876220Y-11166534D02*
X9876220Y-10866534D01*
X10004791Y-11166534D02*
X10004791Y-11009392D01*
X9990506Y-10980820D01*
X9961934Y-10966534D01*
X9919077Y-10966534D01*
X9890506Y-10980820D01*
X9876220Y-10995106D01*
X10190506Y-11166534D02*
X10161934Y-11152249D01*
X10147648Y-11137963D01*
X10133363Y-11109392D01*
X10133363Y-11023677D01*
X10147648Y-10995106D01*
X10161934Y-10980820D01*
X10190506Y-10966534D01*
X10233363Y-10966534D01*
X10261934Y-10980820D01*
X10276220Y-10995106D01*
X10290506Y-11023677D01*
X10290506Y-11109392D01*
X10276220Y-11137963D01*
X10261934Y-11152249D01*
X10233363Y-11166534D01*
X10190506Y-11166534D01*
X10461934Y-11166534D02*
X10433363Y-11152249D01*
X10419077Y-11123677D01*
X10419077Y-10866534D01*
X10690506Y-11152249D02*
X10661934Y-11166534D01*
X10604791Y-11166534D01*
X10576220Y-11152249D01*
X10561934Y-11123677D01*
X10561934Y-11009392D01*
X10576220Y-10980820D01*
X10604791Y-10966534D01*
X10661934Y-10966534D01*
X10690506Y-10980820D01*
X10704791Y-11009392D01*
X10704791Y-11037963D01*
X10561934Y-11066534D01*
X10819077Y-11152249D02*
X10847648Y-11166534D01*
X10904791Y-11166534D01*
X10933363Y-11152249D01*
X10947648Y-11123677D01*
X10947648Y-11109392D01*
X10933363Y-11080820D01*
X10904791Y-11066534D01*
X10861934Y-11066534D01*
X10833363Y-11052249D01*
X10819077Y-11023677D01*
X10819077Y-11009392D01*
X10833363Y-10980820D01*
X10861934Y-10966534D01*
X10904791Y-10966534D01*
X10933363Y-10980820D01*
X11047648Y-11280820D02*
X11061934Y-11266534D01*
X11090506Y-11223677D01*
X11104791Y-11195106D01*
X11119077Y-11152249D01*
X11133363Y-11080820D01*
X11133363Y-11023677D01*
X11119077Y-10952249D01*
X11104791Y-10909392D01*
X11090506Y-10880820D01*
X11061934Y-10837963D01*
X11047648Y-10823677D01*
X4521220Y-11386820D02*
X4521220Y-11466820D01*
X4481220Y-11426820D02*
X4561220Y-11426820D01*
X4904791Y-11262534D02*
X4933363Y-11262534D01*
X4961934Y-11276820D01*
X4976220Y-11291106D01*
X4990506Y-11319677D01*
X5004791Y-11376820D01*
X5004791Y-11448249D01*
X4990506Y-11505391D01*
X4976220Y-11533963D01*
X4961934Y-11548249D01*
X4933363Y-11562534D01*
X4904791Y-11562534D01*
X4876220Y-11548249D01*
X4861934Y-11533963D01*
X4847648Y-11505391D01*
X4833363Y-11448249D01*
X4833363Y-11376820D01*
X4847648Y-11319677D01*
X4861934Y-11291106D01*
X4876220Y-11276820D01*
X4904791Y-11262534D01*
X5133363Y-11533963D02*
X5147648Y-11548249D01*
X5133363Y-11562534D01*
X5119077Y-11548249D01*
X5133363Y-11533963D01*
X5133363Y-11562534D01*
X5319077Y-11391106D02*
X5290506Y-11376820D01*
X5276220Y-11362534D01*
X5261934Y-11333963D01*
X5261934Y-11319677D01*
X5276220Y-11291106D01*
X5290506Y-11276820D01*
X5319077Y-11262534D01*
X5376220Y-11262534D01*
X5404791Y-11276820D01*
X5419077Y-11291106D01*
X5433363Y-11319677D01*
X5433363Y-11333963D01*
X5419077Y-11362534D01*
X5404791Y-11376820D01*
X5376220Y-11391106D01*
X5319077Y-11391106D01*
X5290506Y-11405391D01*
X5276220Y-11419677D01*
X5261934Y-11448249D01*
X5261934Y-11505391D01*
X5276220Y-11533963D01*
X5290506Y-11548249D01*
X5319077Y-11562534D01*
X5376220Y-11562534D01*
X5404791Y-11548249D01*
X5419077Y-11533963D01*
X5433363Y-11505391D01*
X5433363Y-11448249D01*
X5419077Y-11419677D01*
X5404791Y-11405391D01*
X5376220Y-11391106D01*
X5619077Y-11262534D02*
X5647648Y-11262534D01*
X5676220Y-11276820D01*
X5690506Y-11291106D01*
X5704791Y-11319677D01*
X5719077Y-11376820D01*
X5719077Y-11448249D01*
X5704791Y-11505391D01*
X5690506Y-11533963D01*
X5676220Y-11548249D01*
X5647648Y-11562534D01*
X5619077Y-11562534D01*
X5590506Y-11548249D01*
X5576220Y-11533963D01*
X5561934Y-11505391D01*
X5547648Y-11448249D01*
X5547648Y-11376820D01*
X5561934Y-11319677D01*
X5576220Y-11291106D01*
X5590506Y-11276820D01*
X5619077Y-11262534D01*
X5847648Y-11562534D02*
X5847648Y-11362534D01*
X5847648Y-11391106D02*
X5861934Y-11376820D01*
X5890506Y-11362534D01*
X5933363Y-11362534D01*
X5961934Y-11376820D01*
X5976220Y-11405391D01*
X5976220Y-11562534D01*
X5976220Y-11405391D02*
X5990506Y-11376820D01*
X6019077Y-11362534D01*
X6061934Y-11362534D01*
X6090506Y-11376820D01*
X6104791Y-11405391D01*
X6104791Y-11562534D01*
X6247648Y-11562534D02*
X6247648Y-11362534D01*
X6247648Y-11391106D02*
X6261934Y-11376820D01*
X6290506Y-11362534D01*
X6333363Y-11362534D01*
X6361934Y-11376820D01*
X6376220Y-11405391D01*
X6376220Y-11562534D01*
X6376220Y-11405391D02*
X6390506Y-11376820D01*
X6419077Y-11362534D01*
X6461934Y-11362534D01*
X6490506Y-11376820D01*
X6504791Y-11405391D01*
X6504791Y-11562534D01*
X7090506Y-11248249D02*
X6833363Y-11633963D01*
X7476220Y-11262534D02*
X7504791Y-11262534D01*
X7533363Y-11276820D01*
X7547648Y-11291106D01*
X7561934Y-11319677D01*
X7576220Y-11376820D01*
X7576220Y-11448249D01*
X7561934Y-11505391D01*
X7547648Y-11533963D01*
X7533363Y-11548249D01*
X7504791Y-11562534D01*
X7476220Y-11562534D01*
X7447648Y-11548249D01*
X7433363Y-11533963D01*
X7419077Y-11505391D01*
X7404791Y-11448249D01*
X7404791Y-11376820D01*
X7419077Y-11319677D01*
X7433363Y-11291106D01*
X7447648Y-11276820D01*
X7476220Y-11262534D01*
X7704791Y-11533963D02*
X7719077Y-11548249D01*
X7704791Y-11562534D01*
X7690506Y-11548249D01*
X7704791Y-11533963D01*
X7704791Y-11562534D01*
X7904791Y-11262534D02*
X7933363Y-11262534D01*
X7961934Y-11276820D01*
X7976220Y-11291106D01*
X7990506Y-11319677D01*
X8004791Y-11376820D01*
X8004791Y-11448249D01*
X7990506Y-11505391D01*
X7976220Y-11533963D01*
X7961934Y-11548249D01*
X7933363Y-11562534D01*
X7904791Y-11562534D01*
X7876220Y-11548249D01*
X7861934Y-11533963D01*
X7847648Y-11505391D01*
X7833363Y-11448249D01*
X7833363Y-11376820D01*
X7847648Y-11319677D01*
X7861934Y-11291106D01*
X7876220Y-11276820D01*
X7904791Y-11262534D01*
X8104791Y-11262534D02*
X8290506Y-11262534D01*
X8190506Y-11376820D01*
X8233363Y-11376820D01*
X8261934Y-11391106D01*
X8276220Y-11405391D01*
X8290506Y-11433963D01*
X8290506Y-11505391D01*
X8276220Y-11533963D01*
X8261934Y-11548249D01*
X8233363Y-11562534D01*
X8147648Y-11562534D01*
X8119077Y-11548249D01*
X8104791Y-11533963D01*
X8576220Y-11562534D02*
X8404791Y-11562534D01*
X8490506Y-11562534D02*
X8490506Y-11262534D01*
X8461934Y-11305391D01*
X8433363Y-11333963D01*
X8404791Y-11348249D01*
X8690506Y-11262534D02*
X8690506Y-11319677D01*
X8804791Y-11262534D02*
X8804791Y-11319677D01*
X9247648Y-11676820D02*
X9233363Y-11662534D01*
X9204791Y-11619677D01*
X9190506Y-11591106D01*
X9176220Y-11548249D01*
X9161934Y-11476820D01*
X9161934Y-11419677D01*
X9176220Y-11348249D01*
X9190506Y-11305391D01*
X9204791Y-11276820D01*
X9233363Y-11233963D01*
X9247648Y-11219677D01*
X9333363Y-11262534D02*
X9519077Y-11262534D01*
X9419077Y-11376820D01*
X9461934Y-11376820D01*
X9490506Y-11391106D01*
X9504791Y-11405391D01*
X9519077Y-11433963D01*
X9519077Y-11505391D01*
X9504791Y-11533963D01*
X9490506Y-11548249D01*
X9461934Y-11562534D01*
X9376220Y-11562534D01*
X9347648Y-11548249D01*
X9333363Y-11533963D01*
X9633363Y-11291106D02*
X9647648Y-11276820D01*
X9676220Y-11262534D01*
X9747648Y-11262534D01*
X9776220Y-11276820D01*
X9790506Y-11291106D01*
X9804791Y-11319677D01*
X9804791Y-11348249D01*
X9790506Y-11391106D01*
X9619077Y-11562534D01*
X9804791Y-11562534D01*
X10161934Y-11562534D02*
X10161934Y-11262534D01*
X10290506Y-11562534D02*
X10290506Y-11405391D01*
X10276220Y-11376820D01*
X10247648Y-11362534D01*
X10204791Y-11362534D01*
X10176220Y-11376820D01*
X10161934Y-11391106D01*
X10476220Y-11562534D02*
X10447648Y-11548249D01*
X10433363Y-11533963D01*
X10419077Y-11505391D01*
X10419077Y-11419677D01*
X10433363Y-11391106D01*
X10447648Y-11376820D01*
X10476220Y-11362534D01*
X10519077Y-11362534D01*
X10547648Y-11376820D01*
X10561934Y-11391106D01*
X10576220Y-11419677D01*
X10576220Y-11505391D01*
X10561934Y-11533963D01*
X10547648Y-11548249D01*
X10519077Y-11562534D01*
X10476220Y-11562534D01*
X10747648Y-11562534D02*
X10719077Y-11548249D01*
X10704791Y-11519677D01*
X10704791Y-11262534D01*
X10976220Y-11548249D02*
X10947648Y-11562534D01*
X10890506Y-11562534D01*
X10861934Y-11548249D01*
X10847648Y-11519677D01*
X10847648Y-11405391D01*
X10861934Y-11376820D01*
X10890506Y-11362534D01*
X10947648Y-11362534D01*
X10976220Y-11376820D01*
X10990506Y-11405391D01*
X10990506Y-11433963D01*
X10847648Y-11462534D01*
X11104791Y-11548249D02*
X11133363Y-11562534D01*
X11190506Y-11562534D01*
X11219077Y-11548249D01*
X11233363Y-11519677D01*
X11233363Y-11505391D01*
X11219077Y-11476820D01*
X11190506Y-11462534D01*
X11147648Y-11462534D01*
X11119077Y-11448249D01*
X11104791Y-11419677D01*
X11104791Y-11405391D01*
X11119077Y-11376820D01*
X11147648Y-11362534D01*
X11190506Y-11362534D01*
X11219077Y-11376820D01*
X11333363Y-11676820D02*
X11347648Y-11662534D01*
X11376220Y-11619677D01*
X11390506Y-11591106D01*
X11404791Y-11548249D01*
X11419077Y-11476820D01*
X11419077Y-11419677D01*
X11404791Y-11348249D01*
X11390506Y-11305391D01*
X11376220Y-11276820D01*
X11347648Y-11233963D01*
X11333363Y-11219677D01*
X4546576Y-11858176D02*
X4546576Y-11787464D01*
X4475864Y-11787464D01*
X4475864Y-11858176D01*
X4546576Y-11858176D01*
X5004791Y-11958534D02*
X4833363Y-11958534D01*
X4919077Y-11958534D02*
X4919077Y-11658534D01*
X4890506Y-11701391D01*
X4861934Y-11729963D01*
X4833363Y-11744249D01*
X5133363Y-11929963D02*
X5147648Y-11944249D01*
X5133363Y-11958534D01*
X5119077Y-11944249D01*
X5133363Y-11929963D01*
X5133363Y-11958534D01*
X5333363Y-11658534D02*
X5361934Y-11658534D01*
X5390506Y-11672820D01*
X5404791Y-11687106D01*
X5419077Y-11715677D01*
X5433363Y-11772820D01*
X5433363Y-11844249D01*
X5419077Y-11901391D01*
X5404791Y-11929963D01*
X5390506Y-11944249D01*
X5361934Y-11958534D01*
X5333363Y-11958534D01*
X5304791Y-11944249D01*
X5290506Y-11929963D01*
X5276220Y-11901391D01*
X5261934Y-11844249D01*
X5261934Y-11772820D01*
X5276220Y-11715677D01*
X5290506Y-11687106D01*
X5304791Y-11672820D01*
X5333363Y-11658534D01*
X5619077Y-11658534D02*
X5647648Y-11658534D01*
X5676220Y-11672820D01*
X5690506Y-11687106D01*
X5704791Y-11715677D01*
X5719077Y-11772820D01*
X5719077Y-11844249D01*
X5704791Y-11901391D01*
X5690506Y-11929963D01*
X5676220Y-11944249D01*
X5647648Y-11958534D01*
X5619077Y-11958534D01*
X5590506Y-11944249D01*
X5576220Y-11929963D01*
X5561934Y-11901391D01*
X5547648Y-11844249D01*
X5547648Y-11772820D01*
X5561934Y-11715677D01*
X5576220Y-11687106D01*
X5590506Y-11672820D01*
X5619077Y-11658534D01*
X5847648Y-11958534D02*
X5847648Y-11758534D01*
X5847648Y-11787106D02*
X5861934Y-11772820D01*
X5890506Y-11758534D01*
X5933363Y-11758534D01*
X5961934Y-11772820D01*
X5976220Y-11801391D01*
X5976220Y-11958534D01*
X5976220Y-11801391D02*
X5990506Y-11772820D01*
X6019077Y-11758534D01*
X6061934Y-11758534D01*
X6090506Y-11772820D01*
X6104791Y-11801391D01*
X6104791Y-11958534D01*
X6247648Y-11958534D02*
X6247648Y-11758534D01*
X6247648Y-11787106D02*
X6261934Y-11772820D01*
X6290506Y-11758534D01*
X6333363Y-11758534D01*
X6361934Y-11772820D01*
X6376220Y-11801391D01*
X6376220Y-11958534D01*
X6376220Y-11801391D02*
X6390506Y-11772820D01*
X6419077Y-11758534D01*
X6461934Y-11758534D01*
X6490506Y-11772820D01*
X6504791Y-11801391D01*
X6504791Y-11958534D01*
X7090506Y-11644249D02*
X6833363Y-12029963D01*
X7476220Y-11658534D02*
X7504791Y-11658534D01*
X7533363Y-11672820D01*
X7547648Y-11687106D01*
X7561934Y-11715677D01*
X7576220Y-11772820D01*
X7576220Y-11844249D01*
X7561934Y-11901391D01*
X7547648Y-11929963D01*
X7533363Y-11944249D01*
X7504791Y-11958534D01*
X7476220Y-11958534D01*
X7447648Y-11944249D01*
X7433363Y-11929963D01*
X7419077Y-11901391D01*
X7404791Y-11844249D01*
X7404791Y-11772820D01*
X7419077Y-11715677D01*
X7433363Y-11687106D01*
X7447648Y-11672820D01*
X7476220Y-11658534D01*
X7704791Y-11929963D02*
X7719077Y-11944249D01*
X7704791Y-11958534D01*
X7690506Y-11944249D01*
X7704791Y-11929963D01*
X7704791Y-11958534D01*
X7904791Y-11658534D02*
X7933363Y-11658534D01*
X7961934Y-11672820D01*
X7976220Y-11687106D01*
X7990506Y-11715677D01*
X8004791Y-11772820D01*
X8004791Y-11844249D01*
X7990506Y-11901391D01*
X7976220Y-11929963D01*
X7961934Y-11944249D01*
X7933363Y-11958534D01*
X7904791Y-11958534D01*
X7876220Y-11944249D01*
X7861934Y-11929963D01*
X7847648Y-11901391D01*
X7833363Y-11844249D01*
X7833363Y-11772820D01*
X7847648Y-11715677D01*
X7861934Y-11687106D01*
X7876220Y-11672820D01*
X7904791Y-11658534D01*
X8104791Y-11658534D02*
X8290506Y-11658534D01*
X8190506Y-11772820D01*
X8233363Y-11772820D01*
X8261934Y-11787106D01*
X8276220Y-11801391D01*
X8290506Y-11829963D01*
X8290506Y-11901391D01*
X8276220Y-11929963D01*
X8261934Y-11944249D01*
X8233363Y-11958534D01*
X8147648Y-11958534D01*
X8119077Y-11944249D01*
X8104791Y-11929963D01*
X8433363Y-11958534D02*
X8490506Y-11958534D01*
X8519077Y-11944249D01*
X8533363Y-11929963D01*
X8561934Y-11887106D01*
X8576220Y-11829963D01*
X8576220Y-11715677D01*
X8561934Y-11687106D01*
X8547648Y-11672820D01*
X8519077Y-11658534D01*
X8461934Y-11658534D01*
X8433363Y-11672820D01*
X8419077Y-11687106D01*
X8404791Y-11715677D01*
X8404791Y-11787106D01*
X8419077Y-11815677D01*
X8433363Y-11829963D01*
X8461934Y-11844249D01*
X8519077Y-11844249D01*
X8547648Y-11829963D01*
X8561934Y-11815677D01*
X8576220Y-11787106D01*
X8690506Y-11658534D02*
X8690506Y-11715677D01*
X8804791Y-11658534D02*
X8804791Y-11715677D01*
X9247648Y-12072820D02*
X9233363Y-12058534D01*
X9204791Y-12015677D01*
X9190506Y-11987106D01*
X9176220Y-11944249D01*
X9161934Y-11872820D01*
X9161934Y-11815677D01*
X9176220Y-11744249D01*
X9190506Y-11701391D01*
X9204791Y-11672820D01*
X9233363Y-11629963D01*
X9247648Y-11615677D01*
X9490506Y-11658534D02*
X9433363Y-11658534D01*
X9404791Y-11672820D01*
X9390506Y-11687106D01*
X9361934Y-11729963D01*
X9347648Y-11787106D01*
X9347648Y-11901391D01*
X9361934Y-11929963D01*
X9376220Y-11944249D01*
X9404791Y-11958534D01*
X9461934Y-11958534D01*
X9490506Y-11944249D01*
X9504791Y-11929963D01*
X9519077Y-11901391D01*
X9519077Y-11829963D01*
X9504791Y-11801391D01*
X9490506Y-11787106D01*
X9461934Y-11772820D01*
X9404791Y-11772820D01*
X9376220Y-11787106D01*
X9361934Y-11801391D01*
X9347648Y-11829963D01*
X9876220Y-11958534D02*
X9876220Y-11658534D01*
X10004791Y-11958534D02*
X10004791Y-11801391D01*
X9990506Y-11772820D01*
X9961934Y-11758534D01*
X9919077Y-11758534D01*
X9890506Y-11772820D01*
X9876220Y-11787106D01*
X10190506Y-11958534D02*
X10161934Y-11944249D01*
X10147648Y-11929963D01*
X10133363Y-11901391D01*
X10133363Y-11815677D01*
X10147648Y-11787106D01*
X10161934Y-11772820D01*
X10190506Y-11758534D01*
X10233363Y-11758534D01*
X10261934Y-11772820D01*
X10276220Y-11787106D01*
X10290506Y-11815677D01*
X10290506Y-11901391D01*
X10276220Y-11929963D01*
X10261934Y-11944249D01*
X10233363Y-11958534D01*
X10190506Y-11958534D01*
X10461934Y-11958534D02*
X10433363Y-11944249D01*
X10419077Y-11915677D01*
X10419077Y-11658534D01*
X10690506Y-11944249D02*
X10661934Y-11958534D01*
X10604791Y-11958534D01*
X10576220Y-11944249D01*
X10561934Y-11915677D01*
X10561934Y-11801391D01*
X10576220Y-11772820D01*
X10604791Y-11758534D01*
X10661934Y-11758534D01*
X10690506Y-11772820D01*
X10704791Y-11801391D01*
X10704791Y-11829963D01*
X10561934Y-11858534D01*
X10819077Y-11944249D02*
X10847648Y-11958534D01*
X10904791Y-11958534D01*
X10933363Y-11944249D01*
X10947648Y-11915677D01*
X10947648Y-11901391D01*
X10933363Y-11872820D01*
X10904791Y-11858534D01*
X10861934Y-11858534D01*
X10833363Y-11844249D01*
X10819077Y-11815677D01*
X10819077Y-11801391D01*
X10833363Y-11772820D01*
X10861934Y-11758534D01*
X10904791Y-11758534D01*
X10933363Y-11772820D01*
X11047648Y-12072820D02*
X11061934Y-12058534D01*
X11090506Y-12015677D01*
X11104791Y-11987106D01*
X11119077Y-11944249D01*
X11133363Y-11872820D01*
X11133363Y-11815677D01*
X11119077Y-11744249D01*
X11104791Y-11701391D01*
X11090506Y-11672820D01*
X11061934Y-11629963D01*
X11047648Y-11615677D01*
X4506220Y-12273820D02*
X4561220Y-12218820D01*
X4506220Y-12163820D01*
X4451220Y-12218820D01*
X4506220Y-12273820D01*
X5004791Y-12354534D02*
X4833363Y-12354534D01*
X4919077Y-12354534D02*
X4919077Y-12054534D01*
X4890506Y-12097391D01*
X4861934Y-12125963D01*
X4833363Y-12140249D01*
X5133363Y-12325963D02*
X5147648Y-12340249D01*
X5133363Y-12354534D01*
X5119077Y-12340249D01*
X5133363Y-12325963D01*
X5133363Y-12354534D01*
X5433363Y-12354534D02*
X5261934Y-12354534D01*
X5347648Y-12354534D02*
X5347648Y-12054534D01*
X5319077Y-12097391D01*
X5290506Y-12125963D01*
X5261934Y-12140249D01*
X5619077Y-12054534D02*
X5647648Y-12054534D01*
X5676220Y-12068820D01*
X5690506Y-12083106D01*
X5704791Y-12111677D01*
X5719077Y-12168820D01*
X5719077Y-12240249D01*
X5704791Y-12297391D01*
X5690506Y-12325963D01*
X5676220Y-12340249D01*
X5647648Y-12354534D01*
X5619077Y-12354534D01*
X5590506Y-12340249D01*
X5576220Y-12325963D01*
X5561934Y-12297391D01*
X5547648Y-12240249D01*
X5547648Y-12168820D01*
X5561934Y-12111677D01*
X5576220Y-12083106D01*
X5590506Y-12068820D01*
X5619077Y-12054534D01*
X5847648Y-12354534D02*
X5847648Y-12154534D01*
X5847648Y-12183106D02*
X5861934Y-12168820D01*
X5890506Y-12154534D01*
X5933363Y-12154534D01*
X5961934Y-12168820D01*
X5976220Y-12197391D01*
X5976220Y-12354534D01*
X5976220Y-12197391D02*
X5990506Y-12168820D01*
X6019077Y-12154534D01*
X6061934Y-12154534D01*
X6090506Y-12168820D01*
X6104791Y-12197391D01*
X6104791Y-12354534D01*
X6247648Y-12354534D02*
X6247648Y-12154534D01*
X6247648Y-12183106D02*
X6261934Y-12168820D01*
X6290506Y-12154534D01*
X6333363Y-12154534D01*
X6361934Y-12168820D01*
X6376220Y-12197391D01*
X6376220Y-12354534D01*
X6376220Y-12197391D02*
X6390506Y-12168820D01*
X6419077Y-12154534D01*
X6461934Y-12154534D01*
X6490506Y-12168820D01*
X6504791Y-12197391D01*
X6504791Y-12354534D01*
X7090506Y-12040249D02*
X6833363Y-12425963D01*
X7476220Y-12054534D02*
X7504791Y-12054534D01*
X7533363Y-12068820D01*
X7547648Y-12083106D01*
X7561934Y-12111677D01*
X7576220Y-12168820D01*
X7576220Y-12240249D01*
X7561934Y-12297391D01*
X7547648Y-12325963D01*
X7533363Y-12340249D01*
X7504791Y-12354534D01*
X7476220Y-12354534D01*
X7447648Y-12340249D01*
X7433363Y-12325963D01*
X7419077Y-12297391D01*
X7404791Y-12240249D01*
X7404791Y-12168820D01*
X7419077Y-12111677D01*
X7433363Y-12083106D01*
X7447648Y-12068820D01*
X7476220Y-12054534D01*
X7704791Y-12325963D02*
X7719077Y-12340249D01*
X7704791Y-12354534D01*
X7690506Y-12340249D01*
X7704791Y-12325963D01*
X7704791Y-12354534D01*
X7904791Y-12054534D02*
X7933363Y-12054534D01*
X7961934Y-12068820D01*
X7976220Y-12083106D01*
X7990506Y-12111677D01*
X8004791Y-12168820D01*
X8004791Y-12240249D01*
X7990506Y-12297391D01*
X7976220Y-12325963D01*
X7961934Y-12340249D01*
X7933363Y-12354534D01*
X7904791Y-12354534D01*
X7876220Y-12340249D01*
X7861934Y-12325963D01*
X7847648Y-12297391D01*
X7833363Y-12240249D01*
X7833363Y-12168820D01*
X7847648Y-12111677D01*
X7861934Y-12083106D01*
X7876220Y-12068820D01*
X7904791Y-12054534D01*
X8261934Y-12154534D02*
X8261934Y-12354534D01*
X8190506Y-12040249D02*
X8119077Y-12254534D01*
X8304791Y-12254534D01*
X8390506Y-12054534D02*
X8576220Y-12054534D01*
X8476220Y-12168820D01*
X8519077Y-12168820D01*
X8547648Y-12183106D01*
X8561934Y-12197391D01*
X8576220Y-12225963D01*
X8576220Y-12297391D01*
X8561934Y-12325963D01*
X8547648Y-12340249D01*
X8519077Y-12354534D01*
X8433363Y-12354534D01*
X8404791Y-12340249D01*
X8390506Y-12325963D01*
X8690506Y-12054534D02*
X8690506Y-12111677D01*
X8804791Y-12054534D02*
X8804791Y-12111677D01*
X9247648Y-12468820D02*
X9233363Y-12454534D01*
X9204791Y-12411677D01*
X9190506Y-12383106D01*
X9176220Y-12340249D01*
X9161934Y-12268820D01*
X9161934Y-12211677D01*
X9176220Y-12140249D01*
X9190506Y-12097391D01*
X9204791Y-12068820D01*
X9233363Y-12025963D01*
X9247648Y-12011677D01*
X9333363Y-12054534D02*
X9519077Y-12054534D01*
X9419077Y-12168820D01*
X9461934Y-12168820D01*
X9490506Y-12183106D01*
X9504791Y-12197391D01*
X9519077Y-12225963D01*
X9519077Y-12297391D01*
X9504791Y-12325963D01*
X9490506Y-12340249D01*
X9461934Y-12354534D01*
X9376220Y-12354534D01*
X9347648Y-12340249D01*
X9333363Y-12325963D01*
X9876220Y-12354534D02*
X9876220Y-12054534D01*
X10004791Y-12354534D02*
X10004791Y-12197391D01*
X9990506Y-12168820D01*
X9961934Y-12154534D01*
X9919077Y-12154534D01*
X9890506Y-12168820D01*
X9876220Y-12183106D01*
X10190506Y-12354534D02*
X10161934Y-12340249D01*
X10147648Y-12325963D01*
X10133363Y-12297391D01*
X10133363Y-12211677D01*
X10147648Y-12183106D01*
X10161934Y-12168820D01*
X10190506Y-12154534D01*
X10233363Y-12154534D01*
X10261934Y-12168820D01*
X10276220Y-12183106D01*
X10290506Y-12211677D01*
X10290506Y-12297391D01*
X10276220Y-12325963D01*
X10261934Y-12340249D01*
X10233363Y-12354534D01*
X10190506Y-12354534D01*
X10461934Y-12354534D02*
X10433363Y-12340249D01*
X10419077Y-12311677D01*
X10419077Y-12054534D01*
X10690506Y-12340249D02*
X10661934Y-12354534D01*
X10604791Y-12354534D01*
X10576220Y-12340249D01*
X10561934Y-12311677D01*
X10561934Y-12197391D01*
X10576220Y-12168820D01*
X10604791Y-12154534D01*
X10661934Y-12154534D01*
X10690506Y-12168820D01*
X10704791Y-12197391D01*
X10704791Y-12225963D01*
X10561934Y-12254534D01*
X10819077Y-12340249D02*
X10847648Y-12354534D01*
X10904791Y-12354534D01*
X10933363Y-12340249D01*
X10947648Y-12311677D01*
X10947648Y-12297391D01*
X10933363Y-12268820D01*
X10904791Y-12254534D01*
X10861934Y-12254534D01*
X10833363Y-12240249D01*
X10819077Y-12211677D01*
X10819077Y-12197391D01*
X10833363Y-12168820D01*
X10861934Y-12154534D01*
X10904791Y-12154534D01*
X10933363Y-12168820D01*
X11047648Y-12468820D02*
X11061934Y-12454534D01*
X11090506Y-12411677D01*
X11104791Y-12383106D01*
X11119077Y-12340249D01*
X11133363Y-12268820D01*
X11133363Y-12211677D01*
X11119077Y-12140249D01*
X11104791Y-12097391D01*
X11090506Y-12068820D01*
X11061934Y-12025963D01*
X11047648Y-12011677D01*
X4441220Y-12554820D02*
X4561220Y-12674820D01*
X4561220Y-12554820D02*
X4441220Y-12674820D01*
X4561220Y-12614820D02*
G75*
G03X4561220Y-12614820I-60000J0D01*
G01*
X5004791Y-12750534D02*
X4833363Y-12750534D01*
X4919077Y-12750534D02*
X4919077Y-12450534D01*
X4890506Y-12493391D01*
X4861934Y-12521963D01*
X4833363Y-12536249D01*
X5133363Y-12721963D02*
X5147648Y-12736249D01*
X5133363Y-12750534D01*
X5119077Y-12736249D01*
X5133363Y-12721963D01*
X5133363Y-12750534D01*
X5261934Y-12479106D02*
X5276220Y-12464820D01*
X5304791Y-12450534D01*
X5376220Y-12450534D01*
X5404791Y-12464820D01*
X5419077Y-12479106D01*
X5433363Y-12507677D01*
X5433363Y-12536249D01*
X5419077Y-12579106D01*
X5247648Y-12750534D01*
X5433363Y-12750534D01*
X5619077Y-12450534D02*
X5647648Y-12450534D01*
X5676220Y-12464820D01*
X5690506Y-12479106D01*
X5704791Y-12507677D01*
X5719077Y-12564820D01*
X5719077Y-12636249D01*
X5704791Y-12693391D01*
X5690506Y-12721963D01*
X5676220Y-12736249D01*
X5647648Y-12750534D01*
X5619077Y-12750534D01*
X5590506Y-12736249D01*
X5576220Y-12721963D01*
X5561934Y-12693391D01*
X5547648Y-12636249D01*
X5547648Y-12564820D01*
X5561934Y-12507677D01*
X5576220Y-12479106D01*
X5590506Y-12464820D01*
X5619077Y-12450534D01*
X5847648Y-12750534D02*
X5847648Y-12550534D01*
X5847648Y-12579106D02*
X5861934Y-12564820D01*
X5890506Y-12550534D01*
X5933363Y-12550534D01*
X5961934Y-12564820D01*
X5976220Y-12593391D01*
X5976220Y-12750534D01*
X5976220Y-12593391D02*
X5990506Y-12564820D01*
X6019077Y-12550534D01*
X6061934Y-12550534D01*
X6090506Y-12564820D01*
X6104791Y-12593391D01*
X6104791Y-12750534D01*
X6247648Y-12750534D02*
X6247648Y-12550534D01*
X6247648Y-12579106D02*
X6261934Y-12564820D01*
X6290506Y-12550534D01*
X6333363Y-12550534D01*
X6361934Y-12564820D01*
X6376220Y-12593391D01*
X6376220Y-12750534D01*
X6376220Y-12593391D02*
X6390506Y-12564820D01*
X6419077Y-12550534D01*
X6461934Y-12550534D01*
X6490506Y-12564820D01*
X6504791Y-12593391D01*
X6504791Y-12750534D01*
X7090506Y-12436249D02*
X6833363Y-12821963D01*
X7476220Y-12450534D02*
X7504791Y-12450534D01*
X7533363Y-12464820D01*
X7547648Y-12479106D01*
X7561934Y-12507677D01*
X7576220Y-12564820D01*
X7576220Y-12636249D01*
X7561934Y-12693391D01*
X7547648Y-12721963D01*
X7533363Y-12736249D01*
X7504791Y-12750534D01*
X7476220Y-12750534D01*
X7447648Y-12736249D01*
X7433363Y-12721963D01*
X7419077Y-12693391D01*
X7404791Y-12636249D01*
X7404791Y-12564820D01*
X7419077Y-12507677D01*
X7433363Y-12479106D01*
X7447648Y-12464820D01*
X7476220Y-12450534D01*
X7704791Y-12721963D02*
X7719077Y-12736249D01*
X7704791Y-12750534D01*
X7690506Y-12736249D01*
X7704791Y-12721963D01*
X7704791Y-12750534D01*
X7904791Y-12450534D02*
X7933363Y-12450534D01*
X7961934Y-12464820D01*
X7976220Y-12479106D01*
X7990506Y-12507677D01*
X8004791Y-12564820D01*
X8004791Y-12636249D01*
X7990506Y-12693391D01*
X7976220Y-12721963D01*
X7961934Y-12736249D01*
X7933363Y-12750534D01*
X7904791Y-12750534D01*
X7876220Y-12736249D01*
X7861934Y-12721963D01*
X7847648Y-12693391D01*
X7833363Y-12636249D01*
X7833363Y-12564820D01*
X7847648Y-12507677D01*
X7861934Y-12479106D01*
X7876220Y-12464820D01*
X7904791Y-12450534D01*
X8261934Y-12550534D02*
X8261934Y-12750534D01*
X8190506Y-12436249D02*
X8119077Y-12650534D01*
X8304791Y-12650534D01*
X8390506Y-12450534D02*
X8590506Y-12450534D01*
X8461934Y-12750534D01*
X8690506Y-12450534D02*
X8690506Y-12507677D01*
X8804791Y-12450534D02*
X8804791Y-12507677D01*
X9247648Y-12864820D02*
X9233363Y-12850534D01*
X9204791Y-12807677D01*
X9190506Y-12779106D01*
X9176220Y-12736249D01*
X9161934Y-12664820D01*
X9161934Y-12607677D01*
X9176220Y-12536249D01*
X9190506Y-12493391D01*
X9204791Y-12464820D01*
X9233363Y-12421963D01*
X9247648Y-12407677D01*
X9490506Y-12550534D02*
X9490506Y-12750534D01*
X9419077Y-12436249D02*
X9347648Y-12650534D01*
X9533363Y-12650534D01*
X9876220Y-12750534D02*
X9876220Y-12450534D01*
X10004791Y-12750534D02*
X10004791Y-12593391D01*
X9990506Y-12564820D01*
X9961934Y-12550534D01*
X9919077Y-12550534D01*
X9890506Y-12564820D01*
X9876220Y-12579106D01*
X10190506Y-12750534D02*
X10161934Y-12736249D01*
X10147648Y-12721963D01*
X10133363Y-12693391D01*
X10133363Y-12607677D01*
X10147648Y-12579106D01*
X10161934Y-12564820D01*
X10190506Y-12550534D01*
X10233363Y-12550534D01*
X10261934Y-12564820D01*
X10276220Y-12579106D01*
X10290506Y-12607677D01*
X10290506Y-12693391D01*
X10276220Y-12721963D01*
X10261934Y-12736249D01*
X10233363Y-12750534D01*
X10190506Y-12750534D01*
X10461934Y-12750534D02*
X10433363Y-12736249D01*
X10419077Y-12707677D01*
X10419077Y-12450534D01*
X10690506Y-12736249D02*
X10661934Y-12750534D01*
X10604791Y-12750534D01*
X10576220Y-12736249D01*
X10561934Y-12707677D01*
X10561934Y-12593391D01*
X10576220Y-12564820D01*
X10604791Y-12550534D01*
X10661934Y-12550534D01*
X10690506Y-12564820D01*
X10704791Y-12593391D01*
X10704791Y-12621963D01*
X10561934Y-12650534D01*
X10819077Y-12736249D02*
X10847648Y-12750534D01*
X10904791Y-12750534D01*
X10933363Y-12736249D01*
X10947648Y-12707677D01*
X10947648Y-12693391D01*
X10933363Y-12664820D01*
X10904791Y-12650534D01*
X10861934Y-12650534D01*
X10833363Y-12636249D01*
X10819077Y-12607677D01*
X10819077Y-12593391D01*
X10833363Y-12564820D01*
X10861934Y-12550534D01*
X10904791Y-12550534D01*
X10933363Y-12564820D01*
X11047648Y-12864820D02*
X11061934Y-12850534D01*
X11090506Y-12807677D01*
X11104791Y-12779106D01*
X11119077Y-12736249D01*
X11133363Y-12664820D01*
X11133363Y-12607677D01*
X11119077Y-12536249D01*
X11104791Y-12493391D01*
X11090506Y-12464820D01*
X11061934Y-12421963D01*
X11047648Y-12407677D01*
X4431220Y-12945820D02*
X4561220Y-13075820D01*
X4561220Y-12945820D02*
X4431220Y-13075820D01*
X4496220Y-12945820D02*
X4496220Y-13075820D01*
X4431220Y-13010820D02*
X4561220Y-13010820D01*
X5004791Y-13146534D02*
X4833363Y-13146534D01*
X4919077Y-13146534D02*
X4919077Y-12846534D01*
X4890506Y-12889391D01*
X4861934Y-12917963D01*
X4833363Y-12932249D01*
X5133363Y-13117963D02*
X5147648Y-13132249D01*
X5133363Y-13146534D01*
X5119077Y-13132249D01*
X5133363Y-13117963D01*
X5133363Y-13146534D01*
X5247648Y-12846534D02*
X5433363Y-12846534D01*
X5333363Y-12960820D01*
X5376220Y-12960820D01*
X5404791Y-12975106D01*
X5419077Y-12989391D01*
X5433363Y-13017963D01*
X5433363Y-13089391D01*
X5419077Y-13117963D01*
X5404791Y-13132249D01*
X5376220Y-13146534D01*
X5290506Y-13146534D01*
X5261934Y-13132249D01*
X5247648Y-13117963D01*
X5619077Y-12846534D02*
X5647648Y-12846534D01*
X5676220Y-12860820D01*
X5690506Y-12875106D01*
X5704791Y-12903677D01*
X5719077Y-12960820D01*
X5719077Y-13032249D01*
X5704791Y-13089391D01*
X5690506Y-13117963D01*
X5676220Y-13132249D01*
X5647648Y-13146534D01*
X5619077Y-13146534D01*
X5590506Y-13132249D01*
X5576220Y-13117963D01*
X5561934Y-13089391D01*
X5547648Y-13032249D01*
X5547648Y-12960820D01*
X5561934Y-12903677D01*
X5576220Y-12875106D01*
X5590506Y-12860820D01*
X5619077Y-12846534D01*
X5847648Y-13146534D02*
X5847648Y-12946534D01*
X5847648Y-12975106D02*
X5861934Y-12960820D01*
X5890506Y-12946534D01*
X5933363Y-12946534D01*
X5961934Y-12960820D01*
X5976220Y-12989391D01*
X5976220Y-13146534D01*
X5976220Y-12989391D02*
X5990506Y-12960820D01*
X6019077Y-12946534D01*
X6061934Y-12946534D01*
X6090506Y-12960820D01*
X6104791Y-12989391D01*
X6104791Y-13146534D01*
X6247648Y-13146534D02*
X6247648Y-12946534D01*
X6247648Y-12975106D02*
X6261934Y-12960820D01*
X6290506Y-12946534D01*
X6333363Y-12946534D01*
X6361934Y-12960820D01*
X6376220Y-12989391D01*
X6376220Y-13146534D01*
X6376220Y-12989391D02*
X6390506Y-12960820D01*
X6419077Y-12946534D01*
X6461934Y-12946534D01*
X6490506Y-12960820D01*
X6504791Y-12989391D01*
X6504791Y-13146534D01*
X7090506Y-12832249D02*
X6833363Y-13217963D01*
X7476220Y-12846534D02*
X7504791Y-12846534D01*
X7533363Y-12860820D01*
X7547648Y-12875106D01*
X7561934Y-12903677D01*
X7576220Y-12960820D01*
X7576220Y-13032249D01*
X7561934Y-13089391D01*
X7547648Y-13117963D01*
X7533363Y-13132249D01*
X7504791Y-13146534D01*
X7476220Y-13146534D01*
X7447648Y-13132249D01*
X7433363Y-13117963D01*
X7419077Y-13089391D01*
X7404791Y-13032249D01*
X7404791Y-12960820D01*
X7419077Y-12903677D01*
X7433363Y-12875106D01*
X7447648Y-12860820D01*
X7476220Y-12846534D01*
X7704791Y-13117963D02*
X7719077Y-13132249D01*
X7704791Y-13146534D01*
X7690506Y-13132249D01*
X7704791Y-13117963D01*
X7704791Y-13146534D01*
X7904791Y-12846534D02*
X7933363Y-12846534D01*
X7961934Y-12860820D01*
X7976220Y-12875106D01*
X7990506Y-12903677D01*
X8004791Y-12960820D01*
X8004791Y-13032249D01*
X7990506Y-13089391D01*
X7976220Y-13117963D01*
X7961934Y-13132249D01*
X7933363Y-13146534D01*
X7904791Y-13146534D01*
X7876220Y-13132249D01*
X7861934Y-13117963D01*
X7847648Y-13089391D01*
X7833363Y-13032249D01*
X7833363Y-12960820D01*
X7847648Y-12903677D01*
X7861934Y-12875106D01*
X7876220Y-12860820D01*
X7904791Y-12846534D01*
X8276220Y-12846534D02*
X8133363Y-12846534D01*
X8119077Y-12989391D01*
X8133363Y-12975106D01*
X8161934Y-12960820D01*
X8233363Y-12960820D01*
X8261934Y-12975106D01*
X8276220Y-12989391D01*
X8290506Y-13017963D01*
X8290506Y-13089391D01*
X8276220Y-13117963D01*
X8261934Y-13132249D01*
X8233363Y-13146534D01*
X8161934Y-13146534D01*
X8133363Y-13132249D01*
X8119077Y-13117963D01*
X8576220Y-13146534D02*
X8404791Y-13146534D01*
X8490506Y-13146534D02*
X8490506Y-12846534D01*
X8461934Y-12889391D01*
X8433363Y-12917963D01*
X8404791Y-12932249D01*
X8690506Y-12846534D02*
X8690506Y-12903677D01*
X8804791Y-12846534D02*
X8804791Y-12903677D01*
X9247648Y-13260820D02*
X9233363Y-13246534D01*
X9204791Y-13203677D01*
X9190506Y-13175106D01*
X9176220Y-13132249D01*
X9161934Y-13060820D01*
X9161934Y-13003677D01*
X9176220Y-12932249D01*
X9190506Y-12889391D01*
X9204791Y-12860820D01*
X9233363Y-12817963D01*
X9247648Y-12803677D01*
X9347648Y-12875106D02*
X9361934Y-12860820D01*
X9390506Y-12846534D01*
X9461934Y-12846534D01*
X9490506Y-12860820D01*
X9504791Y-12875106D01*
X9519077Y-12903677D01*
X9519077Y-12932249D01*
X9504791Y-12975106D01*
X9333363Y-13146534D01*
X9519077Y-13146534D01*
X9876220Y-13146534D02*
X9876220Y-12846534D01*
X10004791Y-13146534D02*
X10004791Y-12989391D01*
X9990506Y-12960820D01*
X9961934Y-12946534D01*
X9919077Y-12946534D01*
X9890506Y-12960820D01*
X9876220Y-12975106D01*
X10190506Y-13146534D02*
X10161934Y-13132249D01*
X10147648Y-13117963D01*
X10133363Y-13089391D01*
X10133363Y-13003677D01*
X10147648Y-12975106D01*
X10161934Y-12960820D01*
X10190506Y-12946534D01*
X10233363Y-12946534D01*
X10261934Y-12960820D01*
X10276220Y-12975106D01*
X10290506Y-13003677D01*
X10290506Y-13089391D01*
X10276220Y-13117963D01*
X10261934Y-13132249D01*
X10233363Y-13146534D01*
X10190506Y-13146534D01*
X10461934Y-13146534D02*
X10433363Y-13132249D01*
X10419077Y-13103677D01*
X10419077Y-12846534D01*
X10690506Y-13132249D02*
X10661934Y-13146534D01*
X10604791Y-13146534D01*
X10576220Y-13132249D01*
X10561934Y-13103677D01*
X10561934Y-12989391D01*
X10576220Y-12960820D01*
X10604791Y-12946534D01*
X10661934Y-12946534D01*
X10690506Y-12960820D01*
X10704791Y-12989391D01*
X10704791Y-13017963D01*
X10561934Y-13046534D01*
X10819077Y-13132249D02*
X10847648Y-13146534D01*
X10904791Y-13146534D01*
X10933363Y-13132249D01*
X10947648Y-13103677D01*
X10947648Y-13089391D01*
X10933363Y-13060820D01*
X10904791Y-13046534D01*
X10861934Y-13046534D01*
X10833363Y-13032249D01*
X10819077Y-13003677D01*
X10819077Y-12989391D01*
X10833363Y-12960820D01*
X10861934Y-12946534D01*
X10904791Y-12946534D01*
X10933363Y-12960820D01*
X11047648Y-13260820D02*
X11061934Y-13246534D01*
X11090506Y-13203677D01*
X11104791Y-13175106D01*
X11119077Y-13132249D01*
X11133363Y-13060820D01*
X11133363Y-13003677D01*
X11119077Y-12932249D01*
X11104791Y-12889391D01*
X11090506Y-12860820D01*
X11061934Y-12817963D01*
X11047648Y-12803677D01*
X4421220Y-13336820D02*
X4561220Y-13476820D01*
X4561220Y-13336820D02*
X4421220Y-13476820D01*
X4540718Y-13456318D02*
X4540718Y-13357322D01*
X4441722Y-13357322D01*
X4441722Y-13456318D01*
X4540718Y-13456318D01*
X5004791Y-13542534D02*
X4833363Y-13542534D01*
X4919077Y-13542534D02*
X4919077Y-13242534D01*
X4890506Y-13285391D01*
X4861934Y-13313963D01*
X4833363Y-13328249D01*
X5133363Y-13513963D02*
X5147648Y-13528249D01*
X5133363Y-13542534D01*
X5119077Y-13528249D01*
X5133363Y-13513963D01*
X5133363Y-13542534D01*
X5404791Y-13342534D02*
X5404791Y-13542534D01*
X5333363Y-13228249D02*
X5261934Y-13442534D01*
X5447648Y-13442534D01*
X5619077Y-13242534D02*
X5647648Y-13242534D01*
X5676220Y-13256820D01*
X5690506Y-13271106D01*
X5704791Y-13299677D01*
X5719077Y-13356820D01*
X5719077Y-13428249D01*
X5704791Y-13485391D01*
X5690506Y-13513963D01*
X5676220Y-13528249D01*
X5647648Y-13542534D01*
X5619077Y-13542534D01*
X5590506Y-13528249D01*
X5576220Y-13513963D01*
X5561934Y-13485391D01*
X5547648Y-13428249D01*
X5547648Y-13356820D01*
X5561934Y-13299677D01*
X5576220Y-13271106D01*
X5590506Y-13256820D01*
X5619077Y-13242534D01*
X5847648Y-13542534D02*
X5847648Y-13342534D01*
X5847648Y-13371106D02*
X5861934Y-13356820D01*
X5890506Y-13342534D01*
X5933363Y-13342534D01*
X5961934Y-13356820D01*
X5976220Y-13385391D01*
X5976220Y-13542534D01*
X5976220Y-13385391D02*
X5990506Y-13356820D01*
X6019077Y-13342534D01*
X6061934Y-13342534D01*
X6090506Y-13356820D01*
X6104791Y-13385391D01*
X6104791Y-13542534D01*
X6247648Y-13542534D02*
X6247648Y-13342534D01*
X6247648Y-13371106D02*
X6261934Y-13356820D01*
X6290506Y-13342534D01*
X6333363Y-13342534D01*
X6361934Y-13356820D01*
X6376220Y-13385391D01*
X6376220Y-13542534D01*
X6376220Y-13385391D02*
X6390506Y-13356820D01*
X6419077Y-13342534D01*
X6461934Y-13342534D01*
X6490506Y-13356820D01*
X6504791Y-13385391D01*
X6504791Y-13542534D01*
X7090506Y-13228249D02*
X6833363Y-13613963D01*
X7476220Y-13242534D02*
X7504791Y-13242534D01*
X7533363Y-13256820D01*
X7547648Y-13271106D01*
X7561934Y-13299677D01*
X7576220Y-13356820D01*
X7576220Y-13428249D01*
X7561934Y-13485391D01*
X7547648Y-13513963D01*
X7533363Y-13528249D01*
X7504791Y-13542534D01*
X7476220Y-13542534D01*
X7447648Y-13528249D01*
X7433363Y-13513963D01*
X7419077Y-13485391D01*
X7404791Y-13428249D01*
X7404791Y-13356820D01*
X7419077Y-13299677D01*
X7433363Y-13271106D01*
X7447648Y-13256820D01*
X7476220Y-13242534D01*
X7704791Y-13513963D02*
X7719077Y-13528249D01*
X7704791Y-13542534D01*
X7690506Y-13528249D01*
X7704791Y-13513963D01*
X7704791Y-13542534D01*
X7904791Y-13242534D02*
X7933363Y-13242534D01*
X7961934Y-13256820D01*
X7976220Y-13271106D01*
X7990506Y-13299677D01*
X8004791Y-13356820D01*
X8004791Y-13428249D01*
X7990506Y-13485391D01*
X7976220Y-13513963D01*
X7961934Y-13528249D01*
X7933363Y-13542534D01*
X7904791Y-13542534D01*
X7876220Y-13528249D01*
X7861934Y-13513963D01*
X7847648Y-13485391D01*
X7833363Y-13428249D01*
X7833363Y-13356820D01*
X7847648Y-13299677D01*
X7861934Y-13271106D01*
X7876220Y-13256820D01*
X7904791Y-13242534D01*
X8276220Y-13242534D02*
X8133363Y-13242534D01*
X8119077Y-13385391D01*
X8133363Y-13371106D01*
X8161934Y-13356820D01*
X8233363Y-13356820D01*
X8261934Y-13371106D01*
X8276220Y-13385391D01*
X8290506Y-13413963D01*
X8290506Y-13485391D01*
X8276220Y-13513963D01*
X8261934Y-13528249D01*
X8233363Y-13542534D01*
X8161934Y-13542534D01*
X8133363Y-13528249D01*
X8119077Y-13513963D01*
X8561934Y-13242534D02*
X8419077Y-13242534D01*
X8404791Y-13385391D01*
X8419077Y-13371106D01*
X8447648Y-13356820D01*
X8519077Y-13356820D01*
X8547648Y-13371106D01*
X8561934Y-13385391D01*
X8576220Y-13413963D01*
X8576220Y-13485391D01*
X8561934Y-13513963D01*
X8547648Y-13528249D01*
X8519077Y-13542534D01*
X8447648Y-13542534D01*
X8419077Y-13528249D01*
X8404791Y-13513963D01*
X8690506Y-13242534D02*
X8690506Y-13299677D01*
X8804791Y-13242534D02*
X8804791Y-13299677D01*
X9247648Y-13656820D02*
X9233363Y-13642534D01*
X9204791Y-13599677D01*
X9190506Y-13571106D01*
X9176220Y-13528249D01*
X9161934Y-13456820D01*
X9161934Y-13399677D01*
X9176220Y-13328249D01*
X9190506Y-13285391D01*
X9204791Y-13256820D01*
X9233363Y-13213963D01*
X9247648Y-13199677D01*
X9490506Y-13342534D02*
X9490506Y-13542534D01*
X9419077Y-13228249D02*
X9347648Y-13442534D01*
X9533363Y-13442534D01*
X9876220Y-13542534D02*
X9876220Y-13242534D01*
X10004791Y-13542534D02*
X10004791Y-13385391D01*
X9990506Y-13356820D01*
X9961934Y-13342534D01*
X9919077Y-13342534D01*
X9890506Y-13356820D01*
X9876220Y-13371106D01*
X10190506Y-13542534D02*
X10161934Y-13528249D01*
X10147648Y-13513963D01*
X10133363Y-13485391D01*
X10133363Y-13399677D01*
X10147648Y-13371106D01*
X10161934Y-13356820D01*
X10190506Y-13342534D01*
X10233363Y-13342534D01*
X10261934Y-13356820D01*
X10276220Y-13371106D01*
X10290506Y-13399677D01*
X10290506Y-13485391D01*
X10276220Y-13513963D01*
X10261934Y-13528249D01*
X10233363Y-13542534D01*
X10190506Y-13542534D01*
X10461934Y-13542534D02*
X10433363Y-13528249D01*
X10419077Y-13499677D01*
X10419077Y-13242534D01*
X10690506Y-13528249D02*
X10661934Y-13542534D01*
X10604791Y-13542534D01*
X10576220Y-13528249D01*
X10561934Y-13499677D01*
X10561934Y-13385391D01*
X10576220Y-13356820D01*
X10604791Y-13342534D01*
X10661934Y-13342534D01*
X10690506Y-13356820D01*
X10704791Y-13385391D01*
X10704791Y-13413963D01*
X10561934Y-13442534D01*
X10819077Y-13528249D02*
X10847648Y-13542534D01*
X10904791Y-13542534D01*
X10933363Y-13528249D01*
X10947648Y-13499677D01*
X10947648Y-13485391D01*
X10933363Y-13456820D01*
X10904791Y-13442534D01*
X10861934Y-13442534D01*
X10833363Y-13428249D01*
X10819077Y-13399677D01*
X10819077Y-13385391D01*
X10833363Y-13356820D01*
X10861934Y-13342534D01*
X10904791Y-13342534D01*
X10933363Y-13356820D01*
X11047648Y-13656820D02*
X11061934Y-13642534D01*
X11090506Y-13599677D01*
X11104791Y-13571106D01*
X11119077Y-13528249D01*
X11133363Y-13456820D01*
X11133363Y-13399677D01*
X11119077Y-13328249D01*
X11104791Y-13285391D01*
X11090506Y-13256820D01*
X11061934Y-13213963D01*
X11047648Y-13199677D01*
X4411220Y-13727820D02*
X4561220Y-13877820D01*
X4561220Y-13727820D02*
X4411220Y-13877820D01*
X4486220Y-13877820D02*
X4561220Y-13802820D01*
X4486220Y-13727820D01*
X4411220Y-13802820D01*
X4486220Y-13877820D01*
X5004791Y-13938534D02*
X4833363Y-13938534D01*
X4919077Y-13938534D02*
X4919077Y-13638534D01*
X4890506Y-13681391D01*
X4861934Y-13709963D01*
X4833363Y-13724249D01*
X5133363Y-13909963D02*
X5147648Y-13924249D01*
X5133363Y-13938534D01*
X5119077Y-13924249D01*
X5133363Y-13909963D01*
X5133363Y-13938534D01*
X5419077Y-13638534D02*
X5276220Y-13638534D01*
X5261934Y-13781391D01*
X5276220Y-13767106D01*
X5304791Y-13752820D01*
X5376220Y-13752820D01*
X5404791Y-13767106D01*
X5419077Y-13781391D01*
X5433363Y-13809963D01*
X5433363Y-13881391D01*
X5419077Y-13909963D01*
X5404791Y-13924249D01*
X5376220Y-13938534D01*
X5304791Y-13938534D01*
X5276220Y-13924249D01*
X5261934Y-13909963D01*
X5619077Y-13638534D02*
X5647648Y-13638534D01*
X5676220Y-13652820D01*
X5690506Y-13667106D01*
X5704791Y-13695677D01*
X5719077Y-13752820D01*
X5719077Y-13824249D01*
X5704791Y-13881391D01*
X5690506Y-13909963D01*
X5676220Y-13924249D01*
X5647648Y-13938534D01*
X5619077Y-13938534D01*
X5590506Y-13924249D01*
X5576220Y-13909963D01*
X5561934Y-13881391D01*
X5547648Y-13824249D01*
X5547648Y-13752820D01*
X5561934Y-13695677D01*
X5576220Y-13667106D01*
X5590506Y-13652820D01*
X5619077Y-13638534D01*
X5847648Y-13938534D02*
X5847648Y-13738534D01*
X5847648Y-13767106D02*
X5861934Y-13752820D01*
X5890506Y-13738534D01*
X5933363Y-13738534D01*
X5961934Y-13752820D01*
X5976220Y-13781391D01*
X5976220Y-13938534D01*
X5976220Y-13781391D02*
X5990506Y-13752820D01*
X6019077Y-13738534D01*
X6061934Y-13738534D01*
X6090506Y-13752820D01*
X6104791Y-13781391D01*
X6104791Y-13938534D01*
X6247648Y-13938534D02*
X6247648Y-13738534D01*
X6247648Y-13767106D02*
X6261934Y-13752820D01*
X6290506Y-13738534D01*
X6333363Y-13738534D01*
X6361934Y-13752820D01*
X6376220Y-13781391D01*
X6376220Y-13938534D01*
X6376220Y-13781391D02*
X6390506Y-13752820D01*
X6419077Y-13738534D01*
X6461934Y-13738534D01*
X6490506Y-13752820D01*
X6504791Y-13781391D01*
X6504791Y-13938534D01*
X7090506Y-13624249D02*
X6833363Y-14009963D01*
X7476220Y-13638534D02*
X7504791Y-13638534D01*
X7533363Y-13652820D01*
X7547648Y-13667106D01*
X7561934Y-13695677D01*
X7576220Y-13752820D01*
X7576220Y-13824249D01*
X7561934Y-13881391D01*
X7547648Y-13909963D01*
X7533363Y-13924249D01*
X7504791Y-13938534D01*
X7476220Y-13938534D01*
X7447648Y-13924249D01*
X7433363Y-13909963D01*
X7419077Y-13881391D01*
X7404791Y-13824249D01*
X7404791Y-13752820D01*
X7419077Y-13695677D01*
X7433363Y-13667106D01*
X7447648Y-13652820D01*
X7476220Y-13638534D01*
X7704791Y-13909963D02*
X7719077Y-13924249D01*
X7704791Y-13938534D01*
X7690506Y-13924249D01*
X7704791Y-13909963D01*
X7704791Y-13938534D01*
X7904791Y-13638534D02*
X7933363Y-13638534D01*
X7961934Y-13652820D01*
X7976220Y-13667106D01*
X7990506Y-13695677D01*
X8004791Y-13752820D01*
X8004791Y-13824249D01*
X7990506Y-13881391D01*
X7976220Y-13909963D01*
X7961934Y-13924249D01*
X7933363Y-13938534D01*
X7904791Y-13938534D01*
X7876220Y-13924249D01*
X7861934Y-13909963D01*
X7847648Y-13881391D01*
X7833363Y-13824249D01*
X7833363Y-13752820D01*
X7847648Y-13695677D01*
X7861934Y-13667106D01*
X7876220Y-13652820D01*
X7904791Y-13638534D01*
X8276220Y-13638534D02*
X8133363Y-13638534D01*
X8119077Y-13781391D01*
X8133363Y-13767106D01*
X8161934Y-13752820D01*
X8233363Y-13752820D01*
X8261934Y-13767106D01*
X8276220Y-13781391D01*
X8290506Y-13809963D01*
X8290506Y-13881391D01*
X8276220Y-13909963D01*
X8261934Y-13924249D01*
X8233363Y-13938534D01*
X8161934Y-13938534D01*
X8133363Y-13924249D01*
X8119077Y-13909963D01*
X8433363Y-13938534D02*
X8490506Y-13938534D01*
X8519077Y-13924249D01*
X8533363Y-13909963D01*
X8561934Y-13867106D01*
X8576220Y-13809963D01*
X8576220Y-13695677D01*
X8561934Y-13667106D01*
X8547648Y-13652820D01*
X8519077Y-13638534D01*
X8461934Y-13638534D01*
X8433363Y-13652820D01*
X8419077Y-13667106D01*
X8404791Y-13695677D01*
X8404791Y-13767106D01*
X8419077Y-13795677D01*
X8433363Y-13809963D01*
X8461934Y-13824249D01*
X8519077Y-13824249D01*
X8547648Y-13809963D01*
X8561934Y-13795677D01*
X8576220Y-13767106D01*
X8690506Y-13638534D02*
X8690506Y-13695677D01*
X8804791Y-13638534D02*
X8804791Y-13695677D01*
X9247648Y-14052820D02*
X9233363Y-14038534D01*
X9204791Y-13995677D01*
X9190506Y-13967106D01*
X9176220Y-13924249D01*
X9161934Y-13852820D01*
X9161934Y-13795677D01*
X9176220Y-13724249D01*
X9190506Y-13681391D01*
X9204791Y-13652820D01*
X9233363Y-13609963D01*
X9247648Y-13595677D01*
X9490506Y-13738534D02*
X9490506Y-13938534D01*
X9419077Y-13624249D02*
X9347648Y-13838534D01*
X9533363Y-13838534D01*
X9876220Y-13938534D02*
X9876220Y-13638534D01*
X10004791Y-13938534D02*
X10004791Y-13781391D01*
X9990506Y-13752820D01*
X9961934Y-13738534D01*
X9919077Y-13738534D01*
X9890506Y-13752820D01*
X9876220Y-13767106D01*
X10190506Y-13938534D02*
X10161934Y-13924249D01*
X10147648Y-13909963D01*
X10133363Y-13881391D01*
X10133363Y-13795677D01*
X10147648Y-13767106D01*
X10161934Y-13752820D01*
X10190506Y-13738534D01*
X10233363Y-13738534D01*
X10261934Y-13752820D01*
X10276220Y-13767106D01*
X10290506Y-13795677D01*
X10290506Y-13881391D01*
X10276220Y-13909963D01*
X10261934Y-13924249D01*
X10233363Y-13938534D01*
X10190506Y-13938534D01*
X10461934Y-13938534D02*
X10433363Y-13924249D01*
X10419077Y-13895677D01*
X10419077Y-13638534D01*
X10690506Y-13924249D02*
X10661934Y-13938534D01*
X10604791Y-13938534D01*
X10576220Y-13924249D01*
X10561934Y-13895677D01*
X10561934Y-13781391D01*
X10576220Y-13752820D01*
X10604791Y-13738534D01*
X10661934Y-13738534D01*
X10690506Y-13752820D01*
X10704791Y-13781391D01*
X10704791Y-13809963D01*
X10561934Y-13838534D01*
X10819077Y-13924249D02*
X10847648Y-13938534D01*
X10904791Y-13938534D01*
X10933363Y-13924249D01*
X10947648Y-13895677D01*
X10947648Y-13881391D01*
X10933363Y-13852820D01*
X10904791Y-13838534D01*
X10861934Y-13838534D01*
X10833363Y-13824249D01*
X10819077Y-13795677D01*
X10819077Y-13781391D01*
X10833363Y-13752820D01*
X10861934Y-13738534D01*
X10904791Y-13738534D01*
X10933363Y-13752820D01*
X11047648Y-14052820D02*
X11061934Y-14038534D01*
X11090506Y-13995677D01*
X11104791Y-13967106D01*
X11119077Y-13924249D01*
X11133363Y-13852820D01*
X11133363Y-13795677D01*
X11119077Y-13724249D01*
X11104791Y-13681391D01*
X11090506Y-13652820D01*
X11061934Y-13609963D01*
X11047648Y-13595677D01*
X4406220Y-14043820D02*
X4406220Y-14353820D01*
X4251220Y-14198820D02*
X4561220Y-14198820D01*
X4561220Y-14198820D02*
G75*
G03X4561220Y-14198820I-155000J0D01*
G01*
X4819077Y-14034534D02*
X5004791Y-14034534D01*
X4904791Y-14148820D01*
X4947648Y-14148820D01*
X4976220Y-14163106D01*
X4990506Y-14177391D01*
X5004791Y-14205963D01*
X5004791Y-14277391D01*
X4990506Y-14305963D01*
X4976220Y-14320249D01*
X4947648Y-14334534D01*
X4861934Y-14334534D01*
X4833363Y-14320249D01*
X4819077Y-14305963D01*
X5133363Y-14305963D02*
X5147648Y-14320249D01*
X5133363Y-14334534D01*
X5119077Y-14320249D01*
X5133363Y-14305963D01*
X5133363Y-14334534D01*
X5433363Y-14334534D02*
X5261934Y-14334534D01*
X5347648Y-14334534D02*
X5347648Y-14034534D01*
X5319077Y-14077391D01*
X5290506Y-14105963D01*
X5261934Y-14120249D01*
X5619077Y-14034534D02*
X5647648Y-14034534D01*
X5676220Y-14048820D01*
X5690506Y-14063106D01*
X5704791Y-14091677D01*
X5719077Y-14148820D01*
X5719077Y-14220249D01*
X5704791Y-14277391D01*
X5690506Y-14305963D01*
X5676220Y-14320249D01*
X5647648Y-14334534D01*
X5619077Y-14334534D01*
X5590506Y-14320249D01*
X5576220Y-14305963D01*
X5561934Y-14277391D01*
X5547648Y-14220249D01*
X5547648Y-14148820D01*
X5561934Y-14091677D01*
X5576220Y-14063106D01*
X5590506Y-14048820D01*
X5619077Y-14034534D01*
X5847648Y-14334534D02*
X5847648Y-14134534D01*
X5847648Y-14163106D02*
X5861934Y-14148820D01*
X5890506Y-14134534D01*
X5933363Y-14134534D01*
X5961934Y-14148820D01*
X5976220Y-14177391D01*
X5976220Y-14334534D01*
X5976220Y-14177391D02*
X5990506Y-14148820D01*
X6019077Y-14134534D01*
X6061934Y-14134534D01*
X6090506Y-14148820D01*
X6104791Y-14177391D01*
X6104791Y-14334534D01*
X6247648Y-14334534D02*
X6247648Y-14134534D01*
X6247648Y-14163106D02*
X6261934Y-14148820D01*
X6290506Y-14134534D01*
X6333363Y-14134534D01*
X6361934Y-14148820D01*
X6376220Y-14177391D01*
X6376220Y-14334534D01*
X6376220Y-14177391D02*
X6390506Y-14148820D01*
X6419077Y-14134534D01*
X6461934Y-14134534D01*
X6490506Y-14148820D01*
X6504791Y-14177391D01*
X6504791Y-14334534D01*
X7090506Y-14020249D02*
X6833363Y-14405963D01*
X7476220Y-14034534D02*
X7504791Y-14034534D01*
X7533363Y-14048820D01*
X7547648Y-14063106D01*
X7561934Y-14091677D01*
X7576220Y-14148820D01*
X7576220Y-14220249D01*
X7561934Y-14277391D01*
X7547648Y-14305963D01*
X7533363Y-14320249D01*
X7504791Y-14334534D01*
X7476220Y-14334534D01*
X7447648Y-14320249D01*
X7433363Y-14305963D01*
X7419077Y-14277391D01*
X7404791Y-14220249D01*
X7404791Y-14148820D01*
X7419077Y-14091677D01*
X7433363Y-14063106D01*
X7447648Y-14048820D01*
X7476220Y-14034534D01*
X7704791Y-14305963D02*
X7719077Y-14320249D01*
X7704791Y-14334534D01*
X7690506Y-14320249D01*
X7704791Y-14305963D01*
X7704791Y-14334534D01*
X8004791Y-14334534D02*
X7833363Y-14334534D01*
X7919077Y-14334534D02*
X7919077Y-14034534D01*
X7890506Y-14077391D01*
X7861934Y-14105963D01*
X7833363Y-14120249D01*
X8119077Y-14063106D02*
X8133363Y-14048820D01*
X8161934Y-14034534D01*
X8233363Y-14034534D01*
X8261934Y-14048820D01*
X8276220Y-14063106D01*
X8290506Y-14091677D01*
X8290506Y-14120249D01*
X8276220Y-14163106D01*
X8104791Y-14334534D01*
X8290506Y-14334534D01*
X8404791Y-14063106D02*
X8419077Y-14048820D01*
X8447648Y-14034534D01*
X8519077Y-14034534D01*
X8547648Y-14048820D01*
X8561934Y-14063106D01*
X8576220Y-14091677D01*
X8576220Y-14120249D01*
X8561934Y-14163106D01*
X8390506Y-14334534D01*
X8576220Y-14334534D01*
X8690506Y-14034534D02*
X8690506Y-14091677D01*
X8804791Y-14034534D02*
X8804791Y-14091677D01*
X9247648Y-14448820D02*
X9233363Y-14434534D01*
X9204791Y-14391677D01*
X9190506Y-14363106D01*
X9176220Y-14320249D01*
X9161934Y-14248820D01*
X9161934Y-14191677D01*
X9176220Y-14120249D01*
X9190506Y-14077391D01*
X9204791Y-14048820D01*
X9233363Y-14005963D01*
X9247648Y-13991677D01*
X9490506Y-14134534D02*
X9490506Y-14334534D01*
X9419077Y-14020249D02*
X9347648Y-14234534D01*
X9533363Y-14234534D01*
X9876220Y-14334534D02*
X9876220Y-14034534D01*
X10004791Y-14334534D02*
X10004791Y-14177391D01*
X9990506Y-14148820D01*
X9961934Y-14134534D01*
X9919077Y-14134534D01*
X9890506Y-14148820D01*
X9876220Y-14163106D01*
X10190506Y-14334534D02*
X10161934Y-14320249D01*
X10147648Y-14305963D01*
X10133363Y-14277391D01*
X10133363Y-14191677D01*
X10147648Y-14163106D01*
X10161934Y-14148820D01*
X10190506Y-14134534D01*
X10233363Y-14134534D01*
X10261934Y-14148820D01*
X10276220Y-14163106D01*
X10290506Y-14191677D01*
X10290506Y-14277391D01*
X10276220Y-14305963D01*
X10261934Y-14320249D01*
X10233363Y-14334534D01*
X10190506Y-14334534D01*
X10461934Y-14334534D02*
X10433363Y-14320249D01*
X10419077Y-14291677D01*
X10419077Y-14034534D01*
X10690506Y-14320249D02*
X10661934Y-14334534D01*
X10604791Y-14334534D01*
X10576220Y-14320249D01*
X10561934Y-14291677D01*
X10561934Y-14177391D01*
X10576220Y-14148820D01*
X10604791Y-14134534D01*
X10661934Y-14134534D01*
X10690506Y-14148820D01*
X10704791Y-14177391D01*
X10704791Y-14205963D01*
X10561934Y-14234534D01*
X10819077Y-14320249D02*
X10847648Y-14334534D01*
X10904791Y-14334534D01*
X10933363Y-14320249D01*
X10947648Y-14291677D01*
X10947648Y-14277391D01*
X10933363Y-14248820D01*
X10904791Y-14234534D01*
X10861934Y-14234534D01*
X10833363Y-14220249D01*
X10819077Y-14191677D01*
X10819077Y-14177391D01*
X10833363Y-14148820D01*
X10861934Y-14134534D01*
X10904791Y-14134534D01*
X10933363Y-14148820D01*
X11047648Y-14448820D02*
X11061934Y-14434534D01*
X11090506Y-14391677D01*
X11104791Y-14363106D01*
X11119077Y-14320249D01*
X11133363Y-14248820D01*
X11133363Y-14191677D01*
X11119077Y-14120249D01*
X11104791Y-14077391D01*
X11090506Y-14048820D01*
X11061934Y-14005963D01*
X11047648Y-13991677D01*
M02*
